<?xml version="1.0" encoding="utf-8"?>
<!-- Generator: Adobe Illustrator 28.1.0, SVG Export Plug-In . SVG Version: 6.00 Build 0)  -->
<svg version="1.1" id="圖層_1" xmlns="http://www.w3.org/2000/svg" xmlns:xlink="http://www.w3.org/1999/xlink" x="0px" y="0px"
	 viewBox="0 0 150 150" style="enable-background:new 0 0 150 150;" xml:space="preserve">
<style type="text/css">
	.st0{fill:url(#SVGID_1_);}
</style>
<linearGradient id="SVGID_1_" gradientUnits="userSpaceOnUse" x1="14.7555" y1="49.2016" x2="143.2328" y2="122.9473">
	<stop  offset="5.347593e-03" style="stop-color:#9733B1"/>
	<stop  offset="1" style="stop-color:#623293"/>
</linearGradient>
<path class="st0" d="M1,78.7c0.2-5.2,0-9.9,1.2-15.2C2.7,61,5,59.2,8.3,59.1c6-0.1,10.9-1,15.5-6.6c5.3-6.5,12.3-10.9,20.7-12.5
	c0.7-0.1,1.4-0.2,2.1-0.2c7.7-0.2,15.5-0.3,23.2-0.7c10.2-0.6,19,3.1,27.1,8.6c5.3,3.6,10,8.2,15.4,11.6c2.8,1.8,6.6,2.4,10,3.3
	c5.1,1.3,10.3,2.5,15.2,4.3c8.2,3,12.1,11.7,11.4,20.4c-0.1,1.9-0.5,3.4-1.4,5.2c-1.2,2.6-3.2,6.2-8.1,6.4c-4.3,0.3-7,0.4-11.3,0.4
	c-1.7,0-2.7,0.5-3.3,2.3c-2.1,6.1-6.8,9.2-12.9,9.2c-5.1,0.1-10.7-2.2-13.2-9.7c-0.2-0.7-1.6-1.5-2.4-1.5c-15.7-0.1-31.3-0.1-47,0
	c-0.9,0-2.4,1.1-2.7,2c-2.3,5.7-7.1,9.2-13,9.3c-5.5,0.1-10.7-3.4-12.9-9c-0.7-1.9-1.8-2.4-3.8-2.5c-3.3-0.2-7-0.2-9.9-1.6
	C1.8,95.3,1.1,88.7,1,83.5C0.9,81.9,0.9,80.3,1,78.7z M104.9,60.8c0.4-0.3,0.5-0.5,0.3-0.9c-3.1-2.4-6.1-5-9.4-7.1
	c-6.5-4.2-13.1-8.4-21.3-8.4c-8.9,0-17.9,0.2-26.8,0.5c-1.9,0-3.7,0.5-5.5,1c-7.5,2.1-12.2,7.3-17.4,12.8c-2.2,2.4-5.3,3.9-10.1,5.2
	c-1.3,0.2-1.8,0.2-2.9,0.3c-4,0.1-4.8,0.5-5,4.6c-0.3,6.5-0.3,13-0.1,19.5c0.1,3.2,2.7,5.7,5.7,6.5c4.2,1.1,7.4,0.1,8.3-2.8
	c1.7-5.2,7.8-9,13-8.9c5.1,0.1,11,3.6,12.9,9.4c0.3,1,1.9,2.2,2.9,2.2c15.5,0.1,30.9,0.1,46.4,0c1,0,2.5-1.2,2.9-2.1
	c2-5.5,7.4-9.5,13.1-9.5c5,0,10.9,3.5,12.7,8.5c0.5,1.3,0.7,2.9,2.9,2.8c3.9-0.3,7.8-0.2,11.7-0.4c0.9-0.1,2.1-0.3,2.7-0.9
	c3.3-3.5,3.6-9.2,1.5-13.9c-2.3-5.3-6.2-8.8-12.3-9.7c-8.7-1.2-17.3-3.1-26-3.9c-6.8-0.6-25.9-0.3-28.6-0.3
	c-9.7-0.1-19.5,0-29.2-0.3c-4.1-0.1-9.3-4.4-10.7-8.6c-0.4-1.1,0.3-2.3,1.5-2.5l1-0.2c0.9-0.2,1.7,0.3,2.1,1.1
	c1.8,3.6,5,5.5,8.7,5.8c6,0.5,18.4,0.1,18.4,0.1l0.1-6.8c0-1.1,0.9-2,2.1-2.1l0.7,0c1.2,0,2.1,0.9,2.1,2l0.1,6.6
	c0,0,5.9,0.2,8.4,0.2C89.7,60.7,97.1,60.8,104.9,60.8z M33.5,106c4.6,0,9.1-4.4,9-8.9c-0.1-4.5-4.3-8.7-8.9-8.8
	c-4.7-0.1-8.9,4-8.9,8.6C24.6,101.8,28.6,106,33.5,106z M120.6,97.2c-0.1-5.4-4.5-9-8.5-8.9c-4.9,0-8.9,3.9-8.9,8.9
	c0,4.7,3.9,8.7,8.6,8.9C115.7,106.3,120.2,102.5,120.6,97.2z"/>
</svg>
