<?xml version="1.0" encoding="utf-8"?>
<!-- Generator: Adobe Illustrator 28.1.0, SVG Export Plug-In . SVG Version: 6.00 Build 0)  -->
<svg version="1.1" id="圖層_1" xmlns="http://www.w3.org/2000/svg" xmlns:xlink="http://www.w3.org/1999/xlink" x="0px" y="0px"
	 viewBox="0 0 35 35" style="enable-background:new 0 0 35 35;" xml:space="preserve">
<g>
	<path d="M11.5,18.5c-0.5-0.1-1.1-0.2-1.6-0.2c-3.7,0-6.8,3.1-6.8,6.8c0,1.4,0.4,2.8,1.2,3.9c0,0.3-0.3,0.9-1.1,1.4
		C2.5,30.8,2,31,1.7,31.2c-0.2,0.1-0.1,0.3,0,0.3c0.9,0.3,3.6,0.7,5.4-0.3C8,31.5,9,31.7,9.9,31.7c3.7,0,6.8-3.1,6.8-6.8
		c0-0.8-0.1-1.5-0.4-2.3C14.3,21.8,12.6,20.3,11.5,18.5z M11.2,26.7h-5c-0.4,0-0.7-0.3-0.7-0.7c0-0.4,0.3-0.7,0.7-0.7h5
		c0.4,0,0.7,0.3,0.7,0.7C11.9,26.4,11.5,26.7,11.2,26.7z M15,23c0,0.4-0.3,0.7-0.7,0.7H6.2c-0.4,0-0.7-0.3-0.7-0.7
		c0-0.4,0.3-0.7,0.7-0.7h8.1C14.7,22.3,15,22.7,15,23z"/>
	<path d="M33.2,22.2c-0.5-0.2-1.3-0.5-2.2-1.1c-1.2-0.7-1.6-1.5-1.8-2.2c1.2-1.6,1.9-3.6,1.9-5.8c0-5.5-4.5-10-10-10s-10,4.5-10,10
		c0,1.8,0.4,3.4,1.3,4.9c1.1,1.9,2.7,3.4,4.7,4.3c1.2,0.5,2.6,0.9,4.1,0.9s3-0.3,4.3-1c2.5,1.6,6.7,1,7.9,0.5
		C33.5,22.7,33.5,22.3,33.2,22.2z M21.9,15.6h-7.3c-0.5,0-1.1-0.4-1.1-1.1c0-0.5,0.4-1.1,1.1-1.1h7.3c0.5,0,1.1,0.4,1.1,1.1
		C23,15.1,22.5,15.6,21.9,15.6z M26.6,11.3h-12c-0.5,0-1.1-0.4-1.1-1.1c0-0.5,0.4-1.1,1.1-1.1h11.9c0.5,0,1.1,0.4,1.1,1.1
		C27.5,10.8,27.1,11.3,26.6,11.3z"/>
</g>
</svg>
