<?xml version="1.0" encoding="utf-8"?>
<!-- Generator: Adobe Illustrator 28.1.0, SVG Export Plug-In . SVG Version: 6.00 Build 0)  -->
<svg version="1.1" id="圖層_1" xmlns="http://www.w3.org/2000/svg" xmlns:xlink="http://www.w3.org/1999/xlink" x="0px" y="0px"
	 viewBox="0 0 35 35" style="enable-background:new 0 0 35 35;" xml:space="preserve">
<g>
	<path d="M17.5,9.3c-0.1,0.6-0.4,1.1-0.5,1.6c-0.7-0.4-1.4-0.7-2.2-1.1c0.4,1.1,0.7,2,1.1,3c0.4-0.1,0.6-0.2,0.9-0.5
		c0,0.6,0.1,1.2,0.1,1.8c0,0.1-0.2,0.2-0.4,0.4c-0.4,0.1-0.4,0.2-0.4,0.6c0.1,0.7,0.2,1.5,0.2,2.3c0,0.6-0.2,1.1-0.4,1.6
		c-0.1,0.6-0.1,1.2,0.2,1.8c0.1,0.2,0.1,0.6,0,0.9c0,0.6-0.1,1.1-0.2,1.5c0,0.1,0.1,0.4,0.2,0.4c0.8,0.5,1.6,1.1,2.5,1.5
		c0.2,0.1,0.4,0,0.5-0.1c0.8-1.1,1.4-2.2,1.8-3.5c0-0.1,0.1-0.2,0.1-0.5c0,0,0,0,0.1-0.1c0.5,0.2,0.9,0.5,1.3,0.7
		c0.1,0,0.1,0.4,0.1,0.5c-0.6,2.3-1.9,4.3-3.9,5.9C15,30.9,10,31.3,6.1,29.1c-4-2.3-6.3-6.8-5.7-11.4c0.6-5.3,4.7-9.3,9.8-10
		C12.9,7.5,15.3,8,17.5,9.3z M2.3,19.9V20c0.2,1.9,0.8,3.5,2.1,5c0,0.1,0.4,0.1,0.4,0c0.8-0.5,1.6-0.9,2.5-1.5
		c0.1-0.1,0.2-0.2,0.2-0.4c-0.1-1.1-0.1-2-0.2-3c0-0.1-0.2-0.2-0.2-0.2C5.3,19.8,3.8,19.9,2.3,19.9z M2.2,18.2c1.6,0,3.2,0,4.7,0
		c0.1,0,0.2-0.2,0.2-0.4c0.1-0.9,0.2-2,0.2-2.9c0-0.2-0.1-0.4-0.2-0.5C6.3,14,5.6,13.5,4.7,13c-0.2-0.1-0.4-0.1-0.6,0.1
		c-0.7,0.9-1.3,2-1.6,3.2C2.4,16.9,2.3,17.5,2.2,18.2z M11.8,18.2c0.9,0,1.8,0,2.7,0c0.2,0,0.4-0.1,0.4-0.4
		c-0.1-0.8-0.1-1.5-0.2-2.3c0-0.2-0.1-0.4-0.4-0.4c-1.6,0.4-3.2,0.4-4.8,0c-0.2,0-0.4,0-0.4,0.2C9,16.1,9,16.9,8.8,17.6
		c0,0.4,0.1,0.5,0.4,0.5C10,18.2,11,18.2,11.8,18.2z M9,23c1.9-0.5,3.6-0.5,5.5,0c0.1-1.1,0.2-2,0.2-2.9C14.6,20,14.6,20,14.6,20
		c-1.9,0-3.8,0-5.6,0c-0.1,0-0.2,0.2-0.2,0.2C8.8,21.1,9,21.9,9,23z M11.8,13.8c0.7-0.1,1.4-0.2,2.1-0.2c0.4,0,0.4-0.2,0.2-0.5
		c-0.4-0.8-0.6-1.6-1.1-2.5c-0.1-0.4-0.5-0.6-0.7-0.9c-0.4-0.5-0.8-0.5-1.2,0c-0.2,0.1-0.5,0.4-0.6,0.7c-0.4,0.9-0.7,1.9-1.2,2.7
		c-0.1,0.2,0,0.4,0.2,0.4C10.4,13.6,11.1,13.7,11.8,13.8z M11.7,28.7c0.6,0,0.8-0.4,1.2-0.7c0.7-0.9,1.1-2,1.4-3
		c0.1-0.2,0-0.4-0.2-0.4c-1.4-0.4-2.8-0.4-4.2,0c-0.4,0.1-0.2,0.2-0.2,0.5c0.2,0.7,0.5,1.5,0.8,2.2c0.1,0.4,0.5,0.7,0.7,1.1
		C11.3,28.5,11.5,28.6,11.7,28.7z M15.9,25.2c-0.4,1.1-0.7,2-1.1,3c1.2-0.4,2.1-0.9,3.2-1.8C17.2,26,16.6,25.6,15.9,25.2z M5.7,11.6
		c0.7,0.5,1.4,0.8,2,1.3c0.4-1.1,0.7-2,1.1-3C7.7,10.3,6.6,10.8,5.7,11.6z M5.7,26.5c0.9,0.8,2,1.4,3.2,1.8
		c-0.2-0.6-0.5-1.1-0.6-1.5c-0.2-0.5-0.4-0.9-0.5-1.5C7,25.6,6.4,26,5.7,26.5z"/>
	<path d="M26.5,21c-2.1,0-3.9-0.6-5.3-1.9c-0.7-0.6-1.2-0.6-1.9-0.1c-0.4,0.2-0.6,0.5-0.9,0.8C18.2,20,18,20.2,17.7,20
		s-0.4-0.4-0.4-0.7c0.1-0.9,0.4-1.8,0.9-2.6c0.4-0.5,0.5-0.9,0.2-1.5c-1.5-4.9,1.5-9.8,6.6-10.7c4.5-0.7,8.8,2.6,9.4,7.2
		c0.5,4.5-2.5,8.3-6.9,9C27.3,20.9,26.8,21,26.5,21z M20.8,13c0,0.8,0.7,1.5,1.5,1.5s1.5-0.7,1.5-1.6c0-0.8-0.7-1.5-1.6-1.5
		C21.5,11.5,20.8,12.2,20.8,13z M26.8,11.5c-0.8,0-1.5,0.7-1.5,1.5s0.7,1.5,1.5,1.5s1.6-0.7,1.5-1.5C28.3,12.2,27.6,11.5,26.8,11.5z
		 M31.1,11.5c-0.8,0-1.5,0.7-1.5,1.5s0.7,1.6,1.5,1.6s1.5-0.7,1.5-1.5C32.6,12.2,32.1,11.5,31.1,11.5z"/>
</g>
</svg>
