<?xml version="1.0" encoding="utf-8"?>
<!-- Generator: Adobe Illustrator 28.1.0, SVG Export Plug-In . SVG Version: 6.00 Build 0)  -->
<svg version="1.1" id="圖層_1" xmlns="http://www.w3.org/2000/svg" xmlns:xlink="http://www.w3.org/1999/xlink" x="0px" y="0px"
	 viewBox="0 0 195.8 164.2" style="enable-background:new 0 0 195.8 164.2;" xml:space="preserve">
<style type="text/css">
	.st0{fill:#A7A6A7;}
	.st1{fill:#FFFFFF;stroke:#FFFFFF;stroke-miterlimit:10;}
</style>
<path class="st0" d="M188.6,124.7c-1.2-0.7-2.4-0.6-3.4,0c-0.4,0.1-0.7,0.2-1,0.4c-0.1,0-0.3,0.1-0.4,0.1c-1-2.4-2.4-4.3-4.1-5.2
	c-1.4-0.7-2.7-0.7-3.9-0.1c-0.4,0.1-0.7,0.2-1,0.4c-0.4,0.1-0.7,0.2-1,0.4c-0.4,0.1-0.7,0.2-1,0.4c-0.4,0.1-0.7,0.2-1,0.4
	c-0.4,0.1-0.7,0.2-1,0.4c-0.4,0.1-0.7,0.2-1,0.4c-0.4,0.1-0.7,0.2-1,0.4c-0.2,0-0.4,0.1-0.6,0.2c-1.1-5.6-4.2-10.6-8.2-12.7
	c-2.3-1.2-4.6-1.2-6.5-0.3c-0.3,0.1-0.7,0.2-1,0.4c-0.3,0.1-0.7,0.2-1,0.4c-0.3,0.1-0.7,0.2-1,0.4c-0.3,0.1-0.7,0.2-1,0.4
	c-0.3,0.1-0.7,0.2-1,0.4c-0.3,0.1-0.7,0.2-1,0.4c-0.3,0.1-0.7,0.2-1,0.4c-0.3,0.1-0.7,0.2-1,0.4c-0.3,0.1-0.7,0.2-1,0.4
	c0.7-1.8,1.9-3.5,4-4.1c0.9-0.3,1.3-1.7,0.9-3.1c-0.4-1.4-1.6-2.4-2.5-2.1c-0.4,0.1-0.7,0.2-1.1,0.4c-0.4,0.1-0.7,0.2-1,0.4
	c-0.4,0.1-0.7,0.2-1,0.4c-0.4,0.1-0.7,0.2-1,0.4c-0.4,0.1-0.7,0.2-1,0.4c-0.4,0.1-0.7,0.2-1,0.4c-0.4,0.1-0.7,0.2-1,0.4
	c-0.4,0.1-0.7,0.2-1,0.4c-0.4,0.1-0.7,0.2-1,0.4c-0.4,0.1-0.7,0.2-1,0.4c-0.2,0.1-0.3,0.1-0.5,0.2c0.2-2.3,0.4-4.7,0.6-7.7
	c0.1-1.4-0.7-2.9-1.7-3.5c-0.6-0.3-1.2-0.2-1.6,0.2c-0.4,0-0.8,0.1-1,0.4c-0.3,0-0.6,0.1-0.9,0.3c-1.6-2.2-3.5-4-5.7-5.1
	c-2.7-1.4-5.2-1.4-7.3-0.4c-0.4,0.1-0.7,0.2-1,0.4c-0.4,0.1-0.7,0.2-1,0.4c-0.4,0.1-0.7,0.2-1,0.4c-0.4,0.1-0.7,0.2-1,0.4
	c-0.4,0.1-0.7,0.2-1,0.4c-0.4,0.1-0.7,0.2-1,0.4c-0.4,0.1-0.7,0.2-1,0.4c-0.3,0.1-0.5,0.2-0.8,0.3c-0.4-3.1-1.4-6.4-3.2-9.5
	c-0.8-1.4-2.1-2-2.9-1.3c-0.1,0-0.1,0.1-0.2,0.2c-0.3,0-0.6,0-0.9,0.2c-0.1,0-0.1,0.1-0.2,0.2c-0.3,0-0.6,0-0.9,0.2
	c-0.1,0-0.1,0.1-0.2,0.2c-0.3,0-0.6,0-0.9,0.2c-0.1,0-0.1,0.1-0.2,0.2c-0.2,0-0.4,0-0.5,0c0.1-3,0.2-5.8,0.3-8.6
	c0.2,0,0.5,0,0.7-0.2c0.1-0.1,0.2-0.1,0.3-0.2c0.3,0,0.5,0,0.7-0.2c0.1-0.1,0.2-0.1,0.3-0.2c0.3,0,0.5,0,0.7-0.2
	c0.1-0.1,0.2-0.1,0.3-0.2c0.3,0,0.5,0,0.7-0.2c0.1-0.1,0.2-0.1,0.3-0.2c0.3,0,0.5,0,0.7-0.2c0.1-0.1,0.2-0.1,0.3-0.2
	c0.3,0,0.5,0,0.7-0.2c0.1-0.1,0.2-0.1,0.3-0.2c0.3,0,0.5,0,0.7-0.2c1.5-0.9,2.7-2.4,3.4-4.2c1.3-3.2,1.4-7.4,0.1-11.8
	s-3.7-8.4-6.9-11.4c-3.2-3-6.7-4.5-9.9-4.4c-1,0.1-2,0.3-2.8,0.7c-0.4,0.1-0.7,0.2-1,0.4c-0.4,0.1-0.7,0.2-1,0.4
	c-0.4,0.1-0.7,0.2-1,0.4c-0.4,0.1-0.7,0.2-1,0.4c-0.4,0.1-0.7,0.2-1,0.4c-0.4,0.1-0.7,0.2-1,0.4c-0.4,0.1-0.7,0.2-1,0.4
	c-0.4,0.1-0.7,0.2-1,0.4c-0.4,0.1-0.7,0.2-1,0.4c-0.4,0.1-0.7,0.2-1,0.4c-0.1,0-0.3,0.1-0.4,0.1c0.3-2,1.2-4.7,3.5-5.8
	c0,0,0,0,0.1,0s0.3-0.1,0.4-0.2c0.2-0.1,0.4-0.1,0.6-0.2c1-0.2,1.3-1.6,0.8-3.1c-0.6-1.5-1.9-2.5-2.9-2.3c-0.5,0.1-1,0.3-1.5,0.5
	c-0.4,0.1-0.7,0.2-1,0.4c-0.4,0.1-0.7,0.2-1,0.4c-0.4,0.1-0.7,0.2-1,0.4c-0.4,0.1-0.7,0.2-1,0.4c-0.4,0.1-0.7,0.2-1,0.4
	c-0.4,0.1-0.7,0.2-1,0.4c-0.4,0.1-0.7,0.2-1,0.4c-0.4,0.1-0.7,0.2-1,0.4c-0.2,0.1-0.4,0.1-0.6,0.2c0.3-0.6,0.4-1.5,0-2.5
	c-2.1-5.4-6-10.1-10.2-12.2c-2.8-1.4-5.3-1.5-7.3-0.5c-0.4,0.1-0.7,0.2-1,0.4c-0.4,0.1-0.7,0.2-1,0.4c-0.4,0.1-0.7,0.2-1,0.4
	c-0.4,0.1-0.7,0.2-1,0.4c-0.4,0.1-0.7,0.2-1,0.4c-0.4,0.1-0.7,0.2-1,0.4c-0.4,0.1-0.7,0.2-1,0.4c-0.2,0.1-0.5,0.2-0.7,0.3
	c-0.2-1.3-1-2.6-1.9-3.1C46,24.9,45.4,25,45,25.4c-0.4-0.1-0.8,0.1-1,0.4c-0.4-0.1-0.8,0.1-1,0.4c-0.4-0.1-0.8,0.1-1,0.4
	c-0.4-0.1-0.8,0.1-1,0.4c-0.2,0-0.4,0-0.6,0c0-0.9,0-1.8,0-2.8c0.4,0,0.7-0.1,0.9-0.4c0.4,0,0.7-0.1,1-0.4c0.4,0,0.7-0.1,1-0.4
	c0.4,0,0.7-0.1,1-0.4c0.4,0,0.7-0.1,1-0.4c0.4,0,0.7-0.1,1-0.4c0.4,0,0.7-0.1,1-0.4c0.9,0,1.6-0.8,1.6-2.2c0-1.8-1.1-3.8-2.5-4.5
	c-0.7-0.4-1.4-0.3-1.8,0.2c-0.4,0-0.7,0.1-1,0.4c-0.4,0-0.7,0.1-1,0.4c-0.4,0-0.7,0.1-1,0.4c-0.4,0-0.7,0.1-1,0.4
	c-0.4,0-0.7,0.1-1,0.4c-0.2,0-0.4,0-0.6,0.1c-1.3-3.2-3.5-6-5.9-7.3c-1.7-0.9-3.2-0.9-4.4-0.2c-0.4,0.1-0.7,0.2-1,0.4h-0.1
	c-1.2-2.6-2.9-4.7-4.9-5.8c-1.5-0.8-2.9-0.8-4.1-0.2c-0.4,0.1-0.7,0.2-1,0.4c-0.4,0.1-0.7,0.2-1,0.4c-0.4,0.1-0.7,0.2-1,0.4
	c-0.4,0.1-0.7,0.2-1,0.4c-0.4,0.1-0.7,0.2-1,0.4c-0.4,0.1-0.7,0.2-1,0.4c-0.4,0.1-0.7,0.2-1,0.4c-0.4,0.1-0.7,0.2-1,0.4
	c-0.4,0.1-0.7,0.2-1,0.4C8.4,6.7,8.1,6.8,7.8,7c-2.2,0.5-3.8,3-4,6.9C3.4,20.6,3.2,24,2.9,30.7c-0.1,1.4,0.7,3,1.7,3.5
	C5.2,34.5,5.7,34.4,6,34c0.4,0.1,0.8-0.1,1-0.4c0.4,0.1,0.8-0.1,1-0.4c0.4,0.1,0.8-0.1,1-0.4c0.4,0.1,0.8-0.1,1-0.4
	c0.4,0.1,0.8-0.1,1-0.4c0.4,0.1,0.8-0.1,1-0.4c0.4,0.1,0.8-0.1,1-0.4c0.1,0,0.3,0,0.4,0c0,1.5-0.1,3.1-0.1,4.9c0,1.4,0.8,3,1.8,3.5
	c0.6,0.3,1.1,0.2,1.5-0.2c0.4,0.1,0.8-0.1,1-0.4c0.4,0.1,0.8-0.1,1-0.4c0.4,0.1,0.8-0.1,1-0.4c0.4,0.1,0.8-0.1,1-0.4
	c0.4,0.1,0.8-0.1,1-0.4c0.4,0.1,0.8-0.1,1-0.4c0.4,0.1,0.8-0.1,1-0.4c0.2,0,0.4,0,0.6-0.1c0,1.5,0,3.2-0.1,5.1c0,1.4,0.8,3,1.9,3.5
	c0.6,0.3,1.2,0.2,1.5-0.2c0.4,0.1,0.8-0.1,1-0.4c0.4,0.1,0.8-0.1,1-0.4c0.4,0.1,0.8-0.1,1-0.4c0.4,0.1,0.8-0.1,1-0.4
	c0.2,0,0.4,0,0.6-0.1c0,0.8,0,1.6,0,2.4c0,1.4,0.9,3,2,3.5c0.6,0.3,1.2,0.2,1.6-0.2c0.4,0.1,0.8-0.1,1-0.4c0.4,0.1,0.8-0.1,1-0.4
	c0.4,0.1,0.8-0.1,1-0.4c0.4,0.1,0.8-0.1,1-0.4c0.4,0.1,0.8-0.1,1-0.4c0.3,0,0.6,0,0.8-0.2c2.1,4.9,5.6,9.1,9.6,11.1
	c1.3,0.7,2.6,1,3.8,1.1c-0.6,0.1-1.1,0.3-1.6,0.5c-0.4,0.1-0.7,0.2-1,0.4c-0.4,0.1-0.7,0.2-1,0.4c-0.4,0.1-0.7,0.2-1,0.4
	c-0.4,0.1-0.7,0.2-1,0.4c-0.4,0.1-0.7,0.2-1,0.4c-0.4,0.1-0.7,0.2-1,0.4c-0.4,0.1-0.7,0.2-1,0.4c-0.4,0.1-0.7,0.2-1,0.4
	c-0.4,0.1-0.7,0.2-1,0.4c-0.4,0.1-0.7,0.2-1,0.4c-3.1,0.9-5.2,4-5.4,8.7c0,0.1,0,0.3,0,0.5c0,8.3-0.1,12.4-0.1,20.7
	c0,1.4,0.9,3,2,3.5c0.6,0.3,1.2,0.2,1.6-0.2c0.4,0,0.8-0.1,1-0.4c0.4,0,0.8-0.1,1-0.4c0.4,0,0.8-0.1,1-0.4c0.4,0,0.8-0.1,1-0.4
	c0.4,0,0.8-0.1,1-0.4c0.4,0,0.8-0.1,1-0.4c0.4,0,0.8-0.1,1-0.4c0.4,0,0.8-0.1,1-0.4c0.2,0,0.3,0,0.5,0c2.4,1,4.6,1,6.4,0.1
	c0.4-0.1,0.7-0.2,1-0.4c0.4-0.1,0.7-0.2,1-0.4c0.4-0.1,0.7-0.2,1-0.4c0.4-0.1,0.7-0.2,1-0.4c0.4-0.1,0.7-0.2,1-0.4
	c0.4-0.1,0.7-0.2,1-0.4c0.4-0.1,0.7-0.2,1-0.4c0.4-0.1,0.7-0.2,1-0.4l0,0c0,2.4-0.1,4.3-0.1,7.3c0,1.4,0.9,3,2,3.5
	c0.7,0.3,1.2,0.2,1.6-0.2c0.4,0,0.8-0.1,1-0.4c0.4,0,0.8-0.1,1-0.4c0.4,0,0.8-0.1,1-0.4c0.4,0,0.8-0.1,1-0.4c0.4,0,0.8-0.1,1-0.4
	c0.4,0,0.8-0.1,1-0.4c0.4,0,0.8-0.1,1-0.4c0.2,0,0.4,0,0.6-0.1c1.4,3.9,3.6,7.5,6.3,10.2c1.3,1.3,2.7,2.3,4.1,3
	c1.7,0.9,3.5,1.3,5.1,1.1c0.9-0.1,1.7-0.3,2.5-0.7c0.4-0.1,0.7-0.2,1-0.4c0.4-0.1,0.7-0.2,1-0.4c0.4-0.1,0.7-0.2,1-0.4
	c0.4-0.1,0.7-0.2,1-0.4c0.4-0.1,0.7-0.2,1-0.4c0.4-0.1,0.7-0.2,1-0.4c0.4-0.1,0.7-0.2,1-0.4c0.4-0.1,0.7-0.2,1-0.4h0.1
	c1,6.6,5,13.3,10,15.8c2.6,1.3,5,1.4,7,0.4h0.1c0,0.1,0,0.1-0.1,0.2c-0.3,0-0.5,0.2-0.7,0.4c-0.4,0-0.8,0.1-1,0.4
	c-0.4,0-0.8,0.1-1,0.4c-0.4,0-0.8,0.1-1,0.4c-0.4,0-0.8,0.1-1,0.4c-0.4,0-0.8,0.1-1,0.4c-0.4,0-0.8,0.1-1,0.4c-0.4,0-0.8,0.1-1,0.4
	c-0.8-0.1-1.4,0.6-1.5,1.7c-0.1,1.4,0.7,2.9,1.7,3.5c2.5,1.3,4.9,1.4,6.9,0.4c0.3-0.1,0.7-0.2,1-0.4c0.4-0.1,0.7-0.2,1-0.4
	c0.4-0.1,0.7-0.2,1-0.4c0.4-0.1,0.7-0.2,1-0.4c0.4-0.1,0.7-0.2,1-0.4c0.3-0.1,0.7-0.2,1-0.4c0.4-0.1,0.7-0.2,1-0.4
	c0.4-0.1,0.7-0.2,1-0.4c0.2-0.1,0.5-0.1,0.7-0.2c0.2,1.1,0.8,2.1,1.6,2.5c0.6,0.3,1.2,0.2,1.6-0.2c0.4,0,0.7-0.1,1-0.4
	c0.4,0,0.7-0.1,1-0.4c0.4,0,0.7-0.1,1-0.4c0.4,0,0.7-0.1,1-0.4c0.4,0,0.7-0.1,1-0.4c0.4,0,0.7-0.1,1-0.4c0.3,0,0.7-0.1,0.9-0.3
	c1.4,5.3,4.5,10,8.3,12c2.3,1.2,4.4,1.2,6.2,0.4c0.2-0.1,0.4-0.1,0.6-0.2c0,0.2,0,0.3,0,0.5c-0.1,1.4,0.5,2.9,1.5,3.4
	c0.6,0.3,1.1,0.2,1.5-0.2c0.4,0.1,0.7-0.1,1-0.4c0.4,0.1,0.7-0.1,1-0.4c0.4,0.1,0.7-0.1,1-0.4c0.4,0.1,0.7-0.1,1-0.4
	c0.1,0,0.2,0,0.2,0c-0.1,0.7-0.1,1.4-0.2,2.1c-0.1,1.4,0.5,2.9,1.5,3.4c0.5,0.3,1,0.2,1.4-0.3c0.4,0.1,0.7-0.1,1-0.4
	c0.4,0.1,0.7-0.1,1-0.4c0.4,0.1,0.7-0.1,1-0.4c0.4,0.1,0.7-0.1,1-0.4c0.4,0.1,0.7-0.1,1-0.4c0.4,0.1,0.7-0.1,1-0.4
	c0.4,0.1,0.7-0.1,1-0.4l0,0c-0.1,1.4-0.2,2.9-0.4,4.7c-0.1,1.4,0.5,2.9,1.4,3.4c0.5,0.3,1,0.1,1.3-0.3c0.4,0.1,0.7-0.1,1-0.4
	c0.4,0.1,0.7-0.1,1-0.4c0.4,0.1,0.7-0.1,1-0.4c0.4,0.1,0.7-0.1,1-0.4c0.4,0.1,0.7-0.1,1-0.4c0.4,0.1,0.7-0.1,1-0.4
	c0.2,0.1,0.4,0,0.6-0.1c-0.1,1.3-0.2,2.6-0.3,4.2c-0.1,1.4,0.5,2.9,1.4,3.4c0.5,0.3,0.9,0.1,1.2-0.3c0.4,0.1,0.8,0,1-0.4
	c0.4,0.1,0.8,0,1-0.4c0.4,0.1,0.8,0,1-0.4c0.4,0.1,0.8,0,1-0.4c0.4,0.1,0.8,0,1-0.4c0.4,0.1,0.8,0,1-0.4c0.4,0.1,0.8,0,1-0.4
	c0.4,0.1,0.8,0,1-0.4c0.4,0.1,0.8,0,1-0.4c0.4,0.1,0.8,0,1-0.4c0.8,0.2,1.4-0.5,1.5-1.8c0.4-6.7,0.5-10.1,0.9-16.8
	C194,132.2,191.8,126.4,188.6,124.7z M151.7,122.9c1.1,1.9,1.8,4.1,2,6.5C152.6,127.5,151.9,125.2,151.7,122.9z M65.5,48.9
	L65.5,48.9c-0.5,0.1-0.9,0.2-1.1,0.5c-0.1,0-0.3,0-0.4,0c-0.4-0.1-0.8-0.3-1.3-0.5c-3.8-1.9-6.8-6.9-7.4-11.6
	c1.2,1.4,2.2,3.1,2.9,4.9c0.6,1.5,1.9,2.5,2.8,2.3c0.2-0.1,0.5-0.2,0.6-0.4c0.1,0,0.3,0,0.4,0c0.2-0.1,0.5-0.2,0.6-0.4
	c0.1,0,0.3,0,0.4,0c0.2-0.1,0.5-0.2,0.6-0.4c0.1,0,0.3,0,0.4,0c0.2-0.1,0.5-0.2,0.6-0.4c0.1,0,0.3,0,0.4,0c0.2-0.1,0.5-0.2,0.6-0.4
	c0.1,0,0.3,0,0.4,0c0.2-0.1,0.5-0.2,0.6-0.4c0.1,0,0.3,0,0.4,0c0.2-0.1,0.5-0.2,0.6-0.4c0.1,0,0.3,0,0.4,0c0.2-0.1,0.5-0.2,0.6-0.4
	c0.1,0,0.3,0,0.4,0h0.1C66.8,43.3,65.9,46.5,65.5,48.9z M120.3,112.9c-1.8-2.3-3-5.3-3.2-8.3C119,106.8,120.2,109.9,120.3,112.9z
	 M93,57.3c-0.2,0.1-0.3,0.2-0.4,0.3c-0.4,0-0.8,0.1-1,0.4c-0.2,0-0.4,0-0.6,0.1C90.8,57,90.7,56,90.8,55c0.2,0.2,0.4,0.3,0.6,0.5
	C91.9,56,92.4,56.6,93,57.3z M94.9,100.6c-0.6-0.6-1.2-1.3-1.7-2c0.1-0.1,0.1-0.1,0.2-0.2c0.4,0,0.8-0.1,1-0.4c0.1,0,0.3,0,0.4,0
	C95,98.9,95,99.8,94.9,100.6C95,100.6,95,100.6,94.9,100.6z M53.4,72.9c1.8,2.3,3.1,5.2,3.5,8.1C55.1,78.7,53.8,75.7,53.4,72.9z
	 M85.4,78.9c-0.2,0-0.4,0.1-0.6,0.2c-0.1,0.1-0.2,0.1-0.3,0.2c-0.3,0-0.5,0-0.7,0.2c-0.1,0.1-0.2,0.1-0.3,0.2c-0.3,0-0.5,0-0.7,0.2
	c-0.1,0.1-0.2,0.1-0.3,0.2c-0.3,0-0.5,0-0.7,0.2c-0.1,0.1-0.2,0.1-0.3,0.2c-0.2,0-0.3,0-0.5,0.1c0.6-1.3,1.4-2.5,2.8-3.1h0.1
	c0.2-0.1,0.4-0.2,0.7-0.2c0.4-0.1,0.7-0.5,0.9-1C85.5,77,85.5,78,85.4,78.9z M68.8,65.6c0.4,0,0.8-0.1,1-0.4c0.4,0,0.8-0.1,1-0.4
	c0.4,0,0.8-0.1,1-0.4c0.4,0,0.8-0.1,1-0.4c0.4,0,0.8-0.1,1-0.4c0.4,0,0.8-0.1,1-0.4c0.4,0,0.8-0.1,1-0.4l0,0c0.6,2.5,1.6,5,3,7.4
	c0.4,0.7,0.9,1.1,1.4,1.4s1.1,0.3,1.5,0c0.1,0,0.1-0.1,0.2-0.2c0.3,0,0.6,0,0.9-0.2c0.1,0,0.1-0.1,0.2-0.2c0.3,0,0.6,0,0.9-0.2
	c0.1,0,0.1-0.1,0.2-0.2c0.3,0,0.6,0,0.9-0.2c0.1,0,0.1-0.1,0.2-0.2c0.2,0,0.4,0,0.6-0.1c-0.1,1.6-0.1,3-0.1,4.5
	c0-0.3-0.1-0.5-0.2-0.8c-0.6-1.5-1.8-2.5-2.8-2.2c-0.5,0.1-0.9,0.3-1.3,0.5c-0.4,0.1-0.7,0.2-1,0.4c-0.4,0.1-0.7,0.2-1,0.4
	c-0.4,0.1-0.7,0.2-1,0.4c-0.4,0.1-0.7,0.2-1,0.4c-0.4,0.1-0.7,0.2-1,0.4c-0.4,0.1-0.7,0.2-1,0.4c-0.4,0.1-0.7,0.2-1,0.4
	c-0.4,0.1-0.7,0.2-1,0.4c-0.4,0.1-0.7,0.2-1,0.4c-0.1,0-0.2,0.1-0.3,0.1c-0.8-3.6-2.5-7.2-4.8-10.1l0.1,0.1
	C67.8,66.1,68.4,66,68.8,65.6z M58.8,58.7c0.4-0.1,0.7-0.2,1-0.4c0.4-0.1,0.7-0.2,1-0.4c0.4-0.1,0.7-0.2,1-0.4
	c0.4-0.1,0.7-0.2,1-0.4c0.4-0.1,0.7-0.2,1-0.4c0.4-0.1,0.7-0.2,1-0.4c0.1,0,0.2,0,0.2-0.1c0,1.8,0,3.5-0.1,5.8
	c0,0.6,0.1,1.2,0.4,1.7c-1.4-1.5-3-2.7-4.7-3.6c-1.3-0.6-2.5-1-3.7-1.1C57.7,59.2,58.3,59,58.8,58.7z"/>
<g>
	<g>
		<g>
			<path class="st1" d="M72.5,41.3c-6.2,1.5-6.7,9.3-6.8,11.6c-0.1,4.1-0.1,6.2-0.1,10.4c0,1.4,0.9,3,2,3.5c1.1,0.6,2.1-0.1,2.1-1.5
				c0.1-4.1,0.1-6.2,0.2-10.3c0-1.7,0.4-7.3,4.7-8.3c1-0.2,1.3-1.6,0.8-3.1C74.8,42.1,73.5,41.1,72.5,41.3z"/>
			<path class="st1" d="M71.9,77.1c-6,1.5-6.5,9.4-6.6,11.7c-0.1,4.1-0.1,6.2-0.1,10.4c0,1.4,0.9,3,2,3.5c1.1,0.6,2-0.1,2-1.5
				c0.1-4.1,0.1-6.2,0.2-10.4c0-1.7,0.4-7.3,4.6-8.4c1-0.3,1.3-1.6,0.7-3.1C74.1,77.8,72.8,76.8,71.9,77.1z"/>
			<path class="st1" d="M138.3,111.3c-0.4-1.4-1.6-2.4-2.5-2.1c-5.8,1.7-6.9,9.3-7.1,11.7c-0.3,4.1-0.5,6.1-0.9,10.2
				c-0.1,1.4,0.6,2.9,1.7,3.4c1,0.5,1.9-0.1,2.1-1.5c0.4-4.1,0.5-6.1,0.9-10.2c0.1-1.7,1-7.2,5-8.4
				C138.3,114.1,138.7,112.7,138.3,111.3z"/>
			<path class="st1" d="M123.9,102.1c-1.1-0.5-2,0.1-2.1,1.5c0,0.6-0.1,0.8-0.1,1.4c-1.8-3.1-4.2-5.6-7-7.1
				c-6.2-3.1-11.7,0.6-12.2,8.4c-0.4,7.8,4.2,16.7,10.2,19.8c2.6,1.3,5.1,1.4,7.1,0.4c-1.1,3.6-4,5.1-7.3,3.4
				c-1.1-0.5-2,0.1-2.1,1.5s0.7,2.9,1.7,3.5c6,3.1,11.2-0.7,11.8-8.5c0.7-8.3,1-12.5,1.7-20.8C125.8,104.2,125,102.6,123.9,102.1z
				 M113.1,121.2c-3.9-2-6.9-7.8-6.6-12.8c0.3-5.1,3.9-7.5,7.9-5.5s6.9,7.8,6.5,12.8S117,123.2,113.1,121.2z"/>
			<path class="st1" d="M50.1,65.7C44,62.6,39,66.2,38.6,73.5c0,0.1,0,0.3,0,0.5c0,8.3-0.1,12.4-0.1,20.7c0,1.4,0.9,3,2,3.5
				s2-0.2,2-1.6c0-3.7,0-5.5,0-9.2c2,3.1,4.6,5.7,7.4,7.1c6.3,3.1,11.5-0.8,11.6-8.7C61.7,77.9,56.5,68.9,50.1,65.7z M50,89.5
				c-4.1-2-7.4-7.9-7.4-13c0-5.2,3.4-7.7,7.5-5.7c4.1,2.1,7.5,7.9,7.4,13.1C57.5,89,54.1,91.5,50,89.5z"/>
			<path class="st1" d="M35.2,19.4c-1.4-0.7-2.5,0.2-2.5,1.9c0,1.8,1.1,3.8,2.4,4.5c1.4,0.7,2.5-0.2,2.5-1.9
				C37.6,22.1,36.5,20.1,35.2,19.4z"/>
			<path class="st1" d="M35.1,29.7c-1.1-0.6-2,0.1-2,1.5c0,6.3-0.1,9.4-0.1,15.7c0,1.4,0.9,3,2,3.5c1.1,0.6,2-0.1,2-1.5
				c0-6.3,0-9.4,0.1-15.7C37.1,31.9,36.2,30.3,35.1,29.7z"/>
			<path class="st1" d="M52.1,35.5c2.7,1.4,5.2,4.3,6.6,7.9c0.6,1.5,1.9,2.5,2.8,2.3c1-0.2,1.3-1.6,0.8-3.1
				c-2.1-5.4-6-10.1-10.2-12.2C45.6,27.1,40.5,31,40.5,39S45.6,56.1,52,59.3c4.1,2,8,1.3,10.2-2c0.6-0.9,0.3-2.6-0.7-3.8
				s-2.2-1.4-2.8-0.5c-1.4,2.2-3.9,2.7-6.6,1.3c-4.2-2.1-7.6-8-7.5-13.2C44.5,35.9,47.9,33.3,52.1,35.5z"/>
			<path class="st1" d="M149.1,115.4c-5.6-2.9-11,1-11.7,8.8s3.4,16.6,9,19.5c2.5,1.3,4.9,1.2,6.8,0c0,0.2,0,0.4-0.1,0.6
				c-0.1,1.4,0.5,2.9,1.5,3.4s1.8-0.2,2-1.6c0.4-4.7,0.7-7.1,1.1-11.9c0-0.2,0-0.3,0-0.5C158.1,126.2,154.5,118.2,149.1,115.4z
				 M146.9,138.7c-3.6-1.9-6.3-7.6-5.8-12.6c0.5-5,3.9-7.6,7.5-5.7s6.1,7.5,5.6,12.6C153.8,138,150.5,140.6,146.9,138.7z"/>
			<path class="st1" d="M21.7,14.3c-2.1-1.1-4-0.8-5.3,0.5c-1.2-2.7-3-5-5-6.1c-3.7-2-6.8,0.8-7.1,6.3c-0.4,6.7-0.5,10.1-0.9,16.8
				c-0.1,1.4,0.7,3,1.7,3.5S7,35.1,7,33.7C7.3,27,7.4,23.6,7.7,16.9c0.1-2.7,1.7-4.1,3.5-3.1s3.3,4,3.2,6.7
				c-0.2,6.7-0.3,10.1-0.5,16.8c0,1.4,0.8,3,1.8,3.5s1.9-0.2,1.9-1.6c0.1-6.7,0.2-10,0.4-16.7c0.1-2.7,1.7-4,3.6-3s3.5,4,3.5,6.7
				c-0.1,6.7-0.1,10-0.2,16.7c0,1.4,0.8,3,1.9,3.5s2-0.2,2-1.6c0.1-6.7,0.1-10,0.2-16.7C29,22.7,25.7,16.4,21.7,14.3z"/>
			<path class="st1" d="M177.9,130c-1.7-0.9-3.4-0.5-4.6,0.9c-1-2.6-2.5-4.7-4.3-5.7c-3.4-1.8-6.8,1-7.3,6.4
				c-0.6,6.6-0.9,9.8-1.5,16.4c-0.1,1.4,0.5,2.9,1.5,3.4c0.9,0.5,1.8-0.2,1.9-1.6c0.6-6.6,0.9-9.9,1.5-16.4c0.2-2.6,1.8-4,3.5-3.1
				s2.8,3.7,2.6,6.4c-0.5,6.6-0.8,9.9-1.3,16.5c-0.1,1.4,0.5,2.9,1.4,3.4s1.7-0.3,1.8-1.7c0.5-6.6,0.7-9.9,1.2-16.6
				c0.2-2.6,1.7-4.1,3.2-3.3c1.6,0.8,2.7,3.7,2.5,6.4c-0.4,6.7-0.6,10-1,16.7c-0.1,1.4,0.5,2.9,1.4,3.4s1.6-0.3,1.7-1.7
				c0.4-6.7,0.5-10.1,0.9-16.8C183.3,137.5,181.1,131.7,177.9,130z"/>
		</g>
		<path class="st1" d="M87.2,101.6c-1.1-0.5-1.9-2.1-1.9-3.4c0.5-14.4,0.7-21.6,1.2-36c0-1.3,1-2,2.1-1.4s2,2.1,2,3.4
			c-0.5,14.4-0.8,21.5-1.4,35.9C89.2,101.5,88.3,102.2,87.2,101.6z"/>
		<g>
			<path class="st1" d="M80.9,72.8c-0.5-0.3-1-0.7-1.4-1.4c-3.5-6-4.7-13-2.8-17.9c1.3-3.2,3.7-5.1,6.9-5.3c3.2-0.2,6.7,1.4,9.9,4.4
				c3.2,3,5.6,7,6.9,11.4s1.2,8.5-0.1,11.8c-0.8,1.9-1.9,3.3-3.4,4.2c-0.9,0.5-2.2-0.2-2.9-1.6c-0.7-1.4-0.6-2.9,0.2-3.5
				c1-0.6,1.8-1.6,2.3-2.8c0.9-2.2,0.9-5,0.1-7.9c-0.9-2.9-2.5-5.6-4.6-7.6s-4.5-3-6.6-2.9s-3.8,1.4-4.6,3.6
				c-1.3,3.2-0.5,7.9,1.9,12c0.8,1.4,0.8,3,0,3.6C82,73.1,81.5,73.1,80.9,72.8z"/>
			<path class="st1" d="M86.8,112.9c-1.4-0.7-2.8-1.7-4.1-3c-3-2.9-5.4-6.9-6.7-11.3c-1.3-4.4-1.4-8.6-0.1-11.8
				c0.7-1.9,1.8-3.3,3.3-4.3c0.8-0.5,2.1,0.2,2.9,1.6c0.7,1.4,0.7,3-0.2,3.5c-1,0.6-1.7,1.6-2.2,2.9c-0.8,2.2-0.8,5,0.1,7.9
				s2.4,5.6,4.5,7.6c2,2,4.2,3,6.2,2.8s3.6-1.4,4.4-3.6c1.3-3.2,0.7-7.9-1.6-11.9c-0.8-1.4-0.7-2.9,0.1-3.6c0.8-0.6,2.1,0,2.9,1.3
				c3.4,5.9,4.2,12.9,2.3,17.7c-1.3,3.2-3.6,5.1-6.6,5.4C90.3,114.2,88.6,113.8,86.8,112.9z"/>
		</g>
	</g>
</g>
</svg>
