<?xml version="1.0" encoding="utf-8"?>
<!-- Generator: Adobe Illustrator 28.1.0, SVG Export Plug-In . SVG Version: 6.00 Build 0)  -->
<svg version="1.1" id="圖層_1" xmlns="http://www.w3.org/2000/svg" xmlns:xlink="http://www.w3.org/1999/xlink" x="0px" y="0px"
	 viewBox="0 0 195.8 164.2" style="enable-background:new 0 0 195.8 164.2;" xml:space="preserve">
<style type="text/css">
	.st0{fill:none;stroke:#A7A6A7;stroke-miterlimit:10;}
</style>
<g>
</g>
<g>
</g>
<path class="st0" d="M188.6,124.7c-1.2-0.7-2.4-0.6-3.4,0c-0.4,0.1-0.7,0.2-1,0.4c-0.1,0-0.3,0.1-0.4,0.1c-1-2.4-2.4-4.3-4.1-5.2
	c-1.4-0.7-2.7-0.7-3.9-0.1c-0.4,0.1-0.7,0.2-1,0.4c-0.4,0.1-0.7,0.2-1,0.4c-0.4,0.1-0.7,0.2-1,0.4c-0.4,0.1-0.7,0.2-1,0.4
	c-0.4,0.1-0.7,0.2-1,0.4c-0.4,0.1-0.7,0.2-1,0.4c-0.4,0.1-0.7,0.2-1,0.4c-0.2,0-0.4,0.1-0.6,0.2c-1.1-5.6-4.2-10.6-8.2-12.7
	c-2.3-1.2-4.6-1.2-6.5-0.3c-0.3,0.1-0.7,0.2-1,0.4c-0.3,0.1-0.7,0.2-1,0.4c-0.3,0.1-0.7,0.2-1,0.4c-0.3,0.1-0.7,0.2-1,0.4
	c-0.3,0.1-0.7,0.2-1,0.4c-0.3,0.1-0.7,0.2-1,0.4c-0.3,0.1-0.7,0.2-1,0.4c-0.3,0.1-0.7,0.2-1,0.4c-0.3,0.1-0.7,0.2-1,0.4
	c0.7-1.8,1.9-3.5,4-4.1c0.9-0.3,1.3-1.7,0.9-3.1c-0.4-1.4-1.6-2.4-2.5-2.1c-0.4,0.1-0.7,0.2-1.1,0.4c-0.4,0.1-0.7,0.2-1,0.4
	c-0.4,0.1-0.7,0.2-1,0.4c-0.4,0.1-0.7,0.2-1,0.4c-0.4,0.1-0.7,0.2-1,0.4c-0.4,0.1-0.7,0.2-1,0.4c-0.4,0.1-0.7,0.2-1,0.4
	c-0.4,0.1-0.7,0.2-1,0.4c-0.4,0.1-0.7,0.2-1,0.4c-0.4,0.1-0.7,0.2-1,0.4c-0.2,0.1-0.3,0.1-0.5,0.2c0.2-2.3,0.4-4.7,0.6-7.7
	c0.1-1.4-0.7-2.9-1.7-3.5c-0.6-0.3-1.2-0.2-1.6,0.2c-0.4,0-0.8,0.1-1,0.4c-0.3,0-0.6,0.1-0.9,0.3c-1.6-2.2-3.5-4-5.7-5.1
	c-2.7-1.4-5.2-1.4-7.3-0.4c-0.4,0.1-0.7,0.2-1,0.4c-0.4,0.1-0.7,0.2-1,0.4c-0.4,0.1-0.7,0.2-1,0.4c-0.4,0.1-0.7,0.2-1,0.4
	c-0.4,0.1-0.7,0.2-1,0.4c-0.4,0.1-0.7,0.2-1,0.4c-0.4,0.1-0.7,0.2-1,0.4c-0.3,0.1-0.5,0.2-0.8,0.3c-0.4-3.1-1.4-6.4-3.2-9.5
	c-0.8-1.4-2.1-2-2.9-1.3c-0.1,0-0.1,0.1-0.2,0.2c-0.3,0-0.6,0-0.9,0.2c-0.1,0-0.1,0.1-0.2,0.2c-0.3,0-0.6,0-0.9,0.2
	c-0.1,0-0.1,0.1-0.2,0.2c-0.3,0-0.6,0-0.9,0.2c-0.1,0-0.1,0.1-0.2,0.2c-0.2,0-0.4,0-0.5,0c0.1-3,0.2-5.8,0.3-8.6
	c0.2,0,0.5,0,0.7-0.2c0.1-0.1,0.2-0.1,0.3-0.2c0.3,0,0.5,0,0.7-0.2c0.1-0.1,0.2-0.1,0.3-0.2c0.3,0,0.5,0,0.7-0.2
	c0.1-0.1,0.2-0.1,0.3-0.2c0.3,0,0.5,0,0.7-0.2c0.1-0.1,0.2-0.1,0.3-0.2c0.3,0,0.5,0,0.7-0.2c0.1-0.1,0.2-0.1,0.3-0.2
	c0.3,0,0.5,0,0.7-0.2c0.1-0.1,0.2-0.1,0.3-0.2c0.3,0,0.5,0,0.7-0.2c1.5-0.9,2.7-2.4,3.4-4.2c1.3-3.2,1.4-7.4,0.1-11.8
	s-3.7-8.4-6.9-11.4c-3.2-3-6.7-4.5-9.9-4.4c-1,0.1-2,0.3-2.8,0.7c-0.4,0.1-0.7,0.2-1,0.4c-0.4,0.1-0.7,0.2-1,0.4
	c-0.4,0.1-0.7,0.2-1,0.4c-0.4,0.1-0.7,0.2-1,0.4c-0.4,0.1-0.7,0.2-1,0.4c-0.4,0.1-0.7,0.2-1,0.4c-0.4,0.1-0.7,0.2-1,0.4
	c-0.4,0.1-0.7,0.2-1,0.4c-0.4,0.1-0.7,0.2-1,0.4c-0.4,0.1-0.7,0.2-1,0.4c-0.1,0-0.3,0.1-0.4,0.1c0.3-2,1.2-4.7,3.5-5.8
	c0,0,0,0,0.1,0s0.3-0.1,0.4-0.2c0.2-0.1,0.4-0.1,0.6-0.2c1-0.2,1.3-1.6,0.8-3.1c-0.6-1.5-1.9-2.5-2.9-2.3c-0.5,0.1-1,0.3-1.5,0.5
	c-0.4,0.1-0.7,0.2-1,0.4c-0.4,0.1-0.7,0.2-1,0.4c-0.4,0.1-0.7,0.2-1,0.4c-0.4,0.1-0.7,0.2-1,0.4c-0.4,0.1-0.7,0.2-1,0.4
	c-0.4,0.1-0.7,0.2-1,0.4c-0.4,0.1-0.7,0.2-1,0.4c-0.4,0.1-0.7,0.2-1,0.4c-0.2,0.1-0.4,0.1-0.6,0.2c0.3-0.6,0.4-1.5,0-2.5
	c-2.1-5.4-6-10.1-10.2-12.2c-2.8-1.4-5.3-1.5-7.3-0.5c-0.4,0.1-0.7,0.2-1,0.4c-0.4,0.1-0.7,0.2-1,0.4c-0.4,0.1-0.7,0.2-1,0.4
	c-0.4,0.1-0.7,0.2-1,0.4c-0.4,0.1-0.7,0.2-1,0.4c-0.4,0.1-0.7,0.2-1,0.4c-0.4,0.1-0.7,0.2-1,0.4c-0.2,0.1-0.5,0.2-0.7,0.3
	c-0.2-1.3-1-2.6-1.9-3.1C46,24.9,45.4,25,45,25.4c-0.4-0.1-0.8,0.1-1,0.4c-0.4-0.1-0.8,0.1-1,0.4c-0.4-0.1-0.8,0.1-1,0.4
	c-0.4-0.1-0.8,0.1-1,0.4c-0.2,0-0.4,0-0.6,0c0-0.9,0-1.8,0-2.8c0.4,0,0.7-0.1,0.9-0.4c0.4,0,0.7-0.1,1-0.4c0.4,0,0.7-0.1,1-0.4
	c0.4,0,0.7-0.1,1-0.4c0.4,0,0.7-0.1,1-0.4c0.4,0,0.7-0.1,1-0.4c0.4,0,0.7-0.1,1-0.4c0.9,0,1.6-0.8,1.6-2.2c0-1.8-1.1-3.8-2.5-4.5
	c-0.7-0.4-1.4-0.3-1.8,0.2c-0.4,0-0.7,0.1-1,0.4c-0.4,0-0.7,0.1-1,0.4c-0.4,0-0.7,0.1-1,0.4c-0.4,0-0.7,0.1-1,0.4
	c-0.4,0-0.7,0.1-1,0.4c-0.2,0-0.4,0-0.6,0.1c-1.3-3.2-3.5-6-5.9-7.3c-1.7-0.9-3.2-0.9-4.4-0.2c-0.4,0.1-0.7,0.2-1,0.4h-0.1
	c-1.2-2.6-2.9-4.7-4.9-5.8c-1.5-0.8-2.9-0.8-4.1-0.2c-0.4,0.1-0.7,0.2-1,0.4c-0.4,0.1-0.7,0.2-1,0.4c-0.4,0.1-0.7,0.2-1,0.4
	c-0.4,0.1-0.7,0.2-1,0.4c-0.4,0.1-0.7,0.2-1,0.4c-0.4,0.1-0.7,0.2-1,0.4c-0.4,0.1-0.7,0.2-1,0.4c-0.4,0.1-0.7,0.2-1,0.4
	c-0.4,0.1-0.7,0.2-1,0.4C8.4,6.7,8.1,6.8,7.8,7c-2.2,0.5-3.8,3-4,6.9C3.4,20.6,3.2,24,2.9,30.7c-0.1,1.4,0.7,3,1.7,3.5
	C5.2,34.5,5.7,34.4,6,34c0.4,0.1,0.8-0.1,1-0.4c0.4,0.1,0.8-0.1,1-0.4c0.4,0.1,0.8-0.1,1-0.4c0.4,0.1,0.8-0.1,1-0.4
	c0.4,0.1,0.8-0.1,1-0.4c0.4,0.1,0.8-0.1,1-0.4c0.4,0.1,0.8-0.1,1-0.4c0.1,0,0.3,0,0.4,0c0,1.5-0.1,3.1-0.1,4.9c0,1.4,0.8,3,1.8,3.5
	c0.6,0.3,1.1,0.2,1.5-0.2c0.4,0.1,0.8-0.1,1-0.4c0.4,0.1,0.8-0.1,1-0.4c0.4,0.1,0.8-0.1,1-0.4c0.4,0.1,0.8-0.1,1-0.4
	c0.4,0.1,0.8-0.1,1-0.4c0.4,0.1,0.8-0.1,1-0.4c0.4,0.1,0.8-0.1,1-0.4c0.2,0,0.4,0,0.6-0.1c0,1.5,0,3.2-0.1,5.1c0,1.4,0.8,3,1.9,3.5
	c0.6,0.3,1.2,0.2,1.5-0.2c0.4,0.1,0.8-0.1,1-0.4c0.4,0.1,0.8-0.1,1-0.4c0.4,0.1,0.8-0.1,1-0.4c0.4,0.1,0.8-0.1,1-0.4
	c0.2,0,0.4,0,0.6-0.1c0,0.8,0,1.6,0,2.4c0,1.4,0.9,3,2,3.5c0.6,0.3,1.2,0.2,1.6-0.2c0.4,0.1,0.8-0.1,1-0.4c0.4,0.1,0.8-0.1,1-0.4
	c0.4,0.1,0.8-0.1,1-0.4c0.4,0.1,0.8-0.1,1-0.4c0.4,0.1,0.8-0.1,1-0.4c0.3,0,0.6,0,0.8-0.2c2.1,4.9,5.6,9.1,9.6,11.1
	c1.3,0.7,2.6,1,3.8,1.1c-0.6,0.1-1.1,0.3-1.6,0.5c-0.4,0.1-0.7,0.2-1,0.4c-0.4,0.1-0.7,0.2-1,0.4c-0.4,0.1-0.7,0.2-1,0.4
	c-0.4,0.1-0.7,0.2-1,0.4c-0.4,0.1-0.7,0.2-1,0.4c-0.4,0.1-0.7,0.2-1,0.4c-0.4,0.1-0.7,0.2-1,0.4c-0.4,0.1-0.7,0.2-1,0.4
	c-0.4,0.1-0.7,0.2-1,0.4c-0.4,0.1-0.7,0.2-1,0.4c-3.1,0.9-5.2,4-5.4,8.7c0,0.1,0,0.3,0,0.5c0,8.3-0.1,12.4-0.1,20.7
	c0,1.4,0.9,3,2,3.5c0.6,0.3,1.2,0.2,1.6-0.2c0.4,0,0.8-0.1,1-0.4c0.4,0,0.8-0.1,1-0.4c0.4,0,0.8-0.1,1-0.4c0.4,0,0.8-0.1,1-0.4
	c0.4,0,0.8-0.1,1-0.4c0.4,0,0.8-0.1,1-0.4c0.4,0,0.8-0.1,1-0.4c0.4,0,0.8-0.1,1-0.4c0.2,0,0.3,0,0.5,0c2.4,1,4.6,1,6.4,0.1
	c0.4-0.1,0.7-0.2,1-0.4c0.4-0.1,0.7-0.2,1-0.4c0.4-0.1,0.7-0.2,1-0.4c0.4-0.1,0.7-0.2,1-0.4c0.4-0.1,0.7-0.2,1-0.4
	c0.4-0.1,0.7-0.2,1-0.4c0.4-0.1,0.7-0.2,1-0.4c0.4-0.1,0.7-0.2,1-0.4l0,0c0,2.4-0.1,4.3-0.1,7.3c0,1.4,0.9,3,2,3.5
	c0.7,0.3,1.2,0.2,1.6-0.2c0.4,0,0.8-0.1,1-0.4c0.4,0,0.8-0.1,1-0.4c0.4,0,0.8-0.1,1-0.4c0.4,0,0.8-0.1,1-0.4c0.4,0,0.8-0.1,1-0.4
	c0.4,0,0.8-0.1,1-0.4c0.4,0,0.8-0.1,1-0.4c0.2,0,0.4,0,0.6-0.1c1.4,3.9,3.6,7.5,6.3,10.2c1.3,1.3,2.7,2.3,4.1,3
	c1.7,0.9,3.5,1.3,5.1,1.1c0.9-0.1,1.7-0.3,2.5-0.7c0.4-0.1,0.7-0.2,1-0.4c0.4-0.1,0.7-0.2,1-0.4c0.4-0.1,0.7-0.2,1-0.4
	c0.4-0.1,0.7-0.2,1-0.4c0.4-0.1,0.7-0.2,1-0.4c0.4-0.1,0.7-0.2,1-0.4c0.4-0.1,0.7-0.2,1-0.4c0.4-0.1,0.7-0.2,1-0.4h0.1
	c1,6.6,5,13.3,10,15.8c2.6,1.3,5,1.4,7,0.4h0.1c0,0.1,0,0.1-0.1,0.2c-0.3,0-0.5,0.2-0.7,0.4c-0.4,0-0.8,0.1-1,0.4
	c-0.4,0-0.8,0.1-1,0.4c-0.4,0-0.8,0.1-1,0.4c-0.4,0-0.8,0.1-1,0.4c-0.4,0-0.8,0.1-1,0.4c-0.4,0-0.8,0.1-1,0.4c-0.4,0-0.8,0.1-1,0.4
	c-0.8-0.1-1.4,0.6-1.5,1.7c-0.1,1.4,0.7,2.9,1.7,3.5c2.5,1.3,4.9,1.4,6.9,0.4c0.3-0.1,0.7-0.2,1-0.4c0.4-0.1,0.7-0.2,1-0.4
	c0.4-0.1,0.7-0.2,1-0.4c0.4-0.1,0.7-0.2,1-0.4c0.4-0.1,0.7-0.2,1-0.4c0.3-0.1,0.7-0.2,1-0.4c0.4-0.1,0.7-0.2,1-0.4
	c0.4-0.1,0.7-0.2,1-0.4c0.2-0.1,0.5-0.1,0.7-0.2c0.2,1.1,0.8,2.1,1.6,2.5c0.6,0.3,1.2,0.2,1.6-0.2c0.4,0,0.7-0.1,1-0.4
	c0.4,0,0.7-0.1,1-0.4c0.4,0,0.7-0.1,1-0.4c0.4,0,0.7-0.1,1-0.4c0.4,0,0.7-0.1,1-0.4c0.4,0,0.7-0.1,1-0.4c0.3,0,0.7-0.1,0.9-0.3
	c1.4,5.3,4.5,10,8.3,12c2.3,1.2,4.4,1.2,6.2,0.4c0.2-0.1,0.4-0.1,0.6-0.2c0,0.2,0,0.3,0,0.5c-0.1,1.4,0.5,2.9,1.5,3.4
	c0.6,0.3,1.1,0.2,1.5-0.2c0.4,0.1,0.7-0.1,1-0.4c0.4,0.1,0.7-0.1,1-0.4c0.4,0.1,0.7-0.1,1-0.4c0.4,0.1,0.7-0.1,1-0.4
	c0.1,0,0.2,0,0.2,0c-0.1,0.7-0.1,1.4-0.2,2.1c-0.1,1.4,0.5,2.9,1.5,3.4c0.5,0.3,1,0.2,1.4-0.3c0.4,0.1,0.7-0.1,1-0.4
	c0.4,0.1,0.7-0.1,1-0.4c0.4,0.1,0.7-0.1,1-0.4c0.4,0.1,0.7-0.1,1-0.4c0.4,0.1,0.7-0.1,1-0.4c0.4,0.1,0.7-0.1,1-0.4
	c0.4,0.1,0.7-0.1,1-0.4l0,0c-0.1,1.4-0.2,2.9-0.4,4.7c-0.1,1.4,0.5,2.9,1.4,3.4c0.5,0.3,1,0.1,1.3-0.3c0.4,0.1,0.7-0.1,1-0.4
	c0.4,0.1,0.7-0.1,1-0.4c0.4,0.1,0.7-0.1,1-0.4c0.4,0.1,0.7-0.1,1-0.4c0.4,0.1,0.7-0.1,1-0.4c0.4,0.1,0.7-0.1,1-0.4
	c0.2,0.1,0.4,0,0.6-0.1c-0.1,1.3-0.2,2.6-0.3,4.2c-0.1,1.4,0.5,2.9,1.4,3.4c0.5,0.3,0.9,0.1,1.2-0.3c0.4,0.1,0.8,0,1-0.4
	c0.4,0.1,0.8,0,1-0.4c0.4,0.1,0.8,0,1-0.4c0.4,0.1,0.8,0,1-0.4c0.4,0.1,0.8,0,1-0.4c0.4,0.1,0.8,0,1-0.4c0.4,0.1,0.8,0,1-0.4
	c0.4,0.1,0.8,0,1-0.4c0.4,0.1,0.8,0,1-0.4c0.4,0.1,0.8,0,1-0.4c0.8,0.2,1.4-0.5,1.5-1.8c0.4-6.7,0.5-10.1,0.9-16.8
	C194,132.2,191.8,126.4,188.6,124.7z M151.7,122.9c1.1,1.9,1.8,4.1,2,6.5C152.6,127.5,151.9,125.2,151.7,122.9z M65.5,48.9
	L65.5,48.9c-0.5,0.1-0.9,0.2-1.1,0.5c-0.1,0-0.3,0-0.4,0c-0.4-0.1-0.8-0.3-1.3-0.5c-3.8-1.9-6.8-6.9-7.4-11.6
	c1.2,1.4,2.2,3.1,2.9,4.9c0.6,1.5,1.9,2.5,2.8,2.3c0.2-0.1,0.5-0.2,0.6-0.4c0.1,0,0.3,0,0.4,0c0.2-0.1,0.5-0.2,0.6-0.4
	c0.1,0,0.3,0,0.4,0c0.2-0.1,0.5-0.2,0.6-0.4c0.1,0,0.3,0,0.4,0c0.2-0.1,0.5-0.2,0.6-0.4c0.1,0,0.3,0,0.4,0c0.2-0.1,0.5-0.2,0.6-0.4
	c0.1,0,0.3,0,0.4,0c0.2-0.1,0.5-0.2,0.6-0.4c0.1,0,0.3,0,0.4,0c0.2-0.1,0.5-0.2,0.6-0.4c0.1,0,0.3,0,0.4,0c0.2-0.1,0.5-0.2,0.6-0.4
	c0.1,0,0.3,0,0.4,0h0.1C66.8,43.3,65.9,46.5,65.5,48.9z M120.3,112.9c-1.8-2.3-3-5.3-3.2-8.3C119,106.8,120.2,109.9,120.3,112.9z
	 M93,57.3c-0.2,0.1-0.3,0.2-0.4,0.3c-0.4,0-0.8,0.1-1,0.4c-0.2,0-0.4,0-0.6,0.1C90.8,57,90.7,56,90.8,55c0.2,0.2,0.4,0.3,0.6,0.5
	C91.9,56,92.4,56.6,93,57.3z M94.9,100.6c-0.6-0.6-1.2-1.3-1.7-2c0.1-0.1,0.1-0.1,0.2-0.2c0.4,0,0.8-0.1,1-0.4c0.1,0,0.3,0,0.4,0
	C95,98.9,95,99.8,94.9,100.6C95,100.6,95,100.6,94.9,100.6z M53.4,72.9c1.8,2.3,3.1,5.2,3.5,8.1C55.1,78.7,53.8,75.7,53.4,72.9z
	 M85.4,78.9c-0.2,0-0.4,0.1-0.6,0.2c-0.1,0.1-0.2,0.1-0.3,0.2c-0.3,0-0.5,0-0.7,0.2c-0.1,0.1-0.2,0.1-0.3,0.2c-0.3,0-0.5,0-0.7,0.2
	c-0.1,0.1-0.2,0.1-0.3,0.2c-0.3,0-0.5,0-0.7,0.2c-0.1,0.1-0.2,0.1-0.3,0.2c-0.2,0-0.3,0-0.5,0.1c0.6-1.3,1.4-2.5,2.8-3.1h0.1
	c0.2-0.1,0.4-0.2,0.7-0.2c0.4-0.1,0.7-0.5,0.9-1C85.5,77,85.5,78,85.4,78.9z M68.8,65.6c0.4,0,0.8-0.1,1-0.4c0.4,0,0.8-0.1,1-0.4
	c0.4,0,0.8-0.1,1-0.4c0.4,0,0.8-0.1,1-0.4c0.4,0,0.8-0.1,1-0.4c0.4,0,0.8-0.1,1-0.4c0.4,0,0.8-0.1,1-0.4l0,0c0.6,2.5,1.6,5,3,7.4
	c0.4,0.7,0.9,1.1,1.4,1.4s1.1,0.3,1.5,0c0.1,0,0.1-0.1,0.2-0.2c0.3,0,0.6,0,0.9-0.2c0.1,0,0.1-0.1,0.2-0.2c0.3,0,0.6,0,0.9-0.2
	c0.1,0,0.1-0.1,0.2-0.2c0.3,0,0.6,0,0.9-0.2c0.1,0,0.1-0.1,0.2-0.2c0.2,0,0.4,0,0.6-0.1c-0.1,1.6-0.1,3-0.1,4.5
	c0-0.3-0.1-0.5-0.2-0.8c-0.6-1.5-1.8-2.5-2.8-2.2c-0.5,0.1-0.9,0.3-1.3,0.5c-0.4,0.1-0.7,0.2-1,0.4c-0.4,0.1-0.7,0.2-1,0.4
	c-0.4,0.1-0.7,0.2-1,0.4c-0.4,0.1-0.7,0.2-1,0.4c-0.4,0.1-0.7,0.2-1,0.4c-0.4,0.1-0.7,0.2-1,0.4c-0.4,0.1-0.7,0.2-1,0.4
	c-0.4,0.1-0.7,0.2-1,0.4c-0.4,0.1-0.7,0.2-1,0.4c-0.1,0-0.2,0.1-0.3,0.1c-0.8-3.6-2.5-7.2-4.8-10.1l0.1,0.1
	C67.8,66.1,68.4,66,68.8,65.6z M58.8,58.7c0.4-0.1,0.7-0.2,1-0.4c0.4-0.1,0.7-0.2,1-0.4c0.4-0.1,0.7-0.2,1-0.4
	c0.4-0.1,0.7-0.2,1-0.4c0.4-0.1,0.7-0.2,1-0.4c0.4-0.1,0.7-0.2,1-0.4c0.1,0,0.2,0,0.2-0.1c0,1.8,0,3.5-0.1,5.8
	c0,0.6,0.1,1.2,0.4,1.7c-1.4-1.5-3-2.7-4.7-3.6c-1.3-0.6-2.5-1-3.7-1.1C57.7,59.2,58.3,59,58.8,58.7z"/>
</svg>
