<?xml version="1.0" encoding="utf-8"?>
<!-- Generator: Adobe Illustrator 28.1.0, SVG Export Plug-In . SVG Version: 6.00 Build 0)  -->
<svg version="1.1" id="圖層_1" xmlns="http://www.w3.org/2000/svg" xmlns:xlink="http://www.w3.org/1999/xlink" x="0px" y="0px"
	 viewBox="0 0 130 70" style="enable-background:new 0 0 130 70;" xml:space="preserve">
<style type="text/css">
	.st0{fill:url(#SVGID_1_);}
	.st1{fill:url(#SVGID_00000026154856946665536350000010979934758194802055_);}
	.st2{fill:url(#SVGID_00000102537773515288804730000000363988312719789454_);}
	.st3{fill:url(#SVGID_00000181061405516928651370000012637877500047503769_);}
	.st4{fill:url(#SVGID_00000046327091016452264690000002437602164993708214_);}
	.st5{fill:url(#SVGID_00000022530605078078428410000013198083765859038120_);}
	.st6{fill:url(#SVGID_00000178188794794747061330000009526617173735231404_);}
	.st7{fill:url(#SVGID_00000060030665549287409990000018153485855408507791_);}
	.st8{fill:url(#SVGID_00000181057497541952062830000012975587852645797249_);}
	.st9{fill:url(#SVGID_00000098211275908929864040000017329079166348345768_);}
	.st10{fill:url(#SVGID_00000071557097010818426040000012271302956184220573_);}
	.st11{fill:url(#SVGID_00000118355580234166294620000002924671402168225184_);}
	.st12{fill:url(#SVGID_00000173136514086722748130000001800342050013907592_);}
	.st13{fill:url(#SVGID_00000011005977219977137180000007115233274405697190_);}
	.st14{fill:url(#SVGID_00000139268964821701489870000015513934882138513312_);}
	.st15{fill:url(#SVGID_00000144327297045868190520000008148037648242671284_);}
	.st16{fill:url(#SVGID_00000125602794524728872510000016326937074931613096_);}
	.st17{fill:url(#SVGID_00000054249742863501223690000014945213821050590638_);}
	.st18{fill:url(#SVGID_00000099640340787824101260000004285741265318227330_);}
	.st19{fill:url(#SVGID_00000145740755244352056350000016637467734518358435_);}
	.st20{fill:url(#SVGID_00000065072016884770441500000007745757816388457131_);}
	.st21{fill:url(#SVGID_00000156568038220515802350000007118091659753201582_);}
	.st22{fill:url(#SVGID_00000049917772932948646720000017469069534208146305_);}
	.st23{fill:url(#SVGID_00000053540936547539789880000001999870710265367207_);}
	.st24{fill:url(#SVGID_00000148662439461892338730000012777213534160116381_);}
	.st25{fill:url(#SVGID_00000113355528457389524590000017454093445711140262_);}
	.st26{fill:url(#SVGID_00000095315987390296127350000002897999262622480813_);}
	.st27{fill:url(#SVGID_00000075857997475439061940000003554941121446049680_);}
</style>
<g>
	<linearGradient id="SVGID_1_" gradientUnits="userSpaceOnUse" x1="49.2127" y1="17.817" x2="101.6962" y2="73.4654">
		<stop  offset="0.2528" style="stop-color:#823E93"/>
		<stop  offset="1" style="stop-color:#5D318B"/>
	</linearGradient>
	<path class="st0" d="M80,1.6C80,1.6,79.9,1.6,80,1.6c-3,0-5.9,0-8.8,0.1c-2,0-4,0-6,0l-1.9,0c-4.2,0-8.5,0.1-12.8,0.1
		c-2.1,0-3.6,1.1-4.6,3.3l-0.1,0.1l0,0.1c0,0.1,0,0.2-0.1,0.3c-0.1,0.3-0.1,0.8-0.1,1.2c0,2.5,0,5.1,0,7.6l0,36.7
		c0,4.1,0,8.2,0,12.3c0,1.4,0.5,2.6,1.4,3.5c0.9,0.9,2.1,1.3,3.3,1.3c0,0,0,0,0,0c10-0.1,20-0.1,29.6-0.2c3,0,5-2,5-5.1
		c0-3.7,0-7.4,0-11.1l0-9.6c0-11.9,0-23.8,0-35.7c0-1.5-0.5-2.8-1.4-3.7C82.8,2.1,81.5,1.6,80,1.6z M81.7,32.4c0,5.2,0,10.4,0,15.5
		l0,1.8c0,4.4,0,8.9,0,13.3c0,1.3-0.4,1.8-1.8,1.8c-9.1,0.1-18.7,0.1-29.3,0.2c-0.4,0-0.8-0.1-1.2-0.4c-0.3-0.3-0.4-0.8-0.4-1.1
		c0-7.9,0-15.7,0-23.6l0-14.7c0-6,0-12,0-18.1c0-1.4,0.5-1.9,1.8-2C60,5.1,69.2,5.1,78.1,5l2.1,0c0,0,0,0,0,0c0.2,0,0.3,0,0.5,0
		c0,0,0,0,0,0c0.7,0.3,1,0.8,1,1.6c0,2,0,4,0,6.1c0,1.6,0,3.2,0,4.8C81.7,22.5,81.7,27.4,81.7,32.4z"/>
	
		<linearGradient id="SVGID_00000066482129313537546260000002583721237689408162_" gradientUnits="userSpaceOnUse" x1="43.151" y1="23.534" x2="95.6345" y2="79.1824">
		<stop  offset="0.2528" style="stop-color:#823E93"/>
		<stop  offset="1" style="stop-color:#5D318B"/>
	</linearGradient>
	<path style="fill:url(#SVGID_00000066482129313537546260000002583721237689408162_);" d="M57.3,43.6c0,0.8,0.5,1.3,1.2,1.3
		c1.2,0,2.5,0,3.7,0c0.7,0,1.2-0.4,1.2-1.2c0-1.3,0-2.6,0-3.9c0-0.7-0.5-1.1-1.1-1.1c-1.3,0-2.6,0-3.9,0c-0.7,0-1.1,0.5-1.1,1.2
		c0,0.6,0,1.2,0,1.8c0,0,0,0,0,0C57.3,42.4,57.3,43,57.3,43.6z M58.5,40c1.2,0,2.4,0,3.7,0c0,1.2,0,2.4,0,3.7c-1.2,0-2.4,0-3.7,0
		C58.5,42.4,58.5,41.2,58.5,40z"/>
	
		<linearGradient id="SVGID_00000055702750443797780640000002762839911952312717_" gradientUnits="userSpaceOnUse" x1="43.0694" y1="23.611" x2="95.5529" y2="79.2593">
		<stop  offset="0.2528" style="stop-color:#823E93"/>
		<stop  offset="1" style="stop-color:#5D318B"/>
	</linearGradient>
	<path style="fill:url(#SVGID_00000055702750443797780640000002762839911952312717_);" d="M61.1,40.6l-1.7,0c-0.2,0-0.3,0.2-0.3,0.3
		l0,1.7c0,0.2,0.2,0.3,0.3,0.3l1.7,0c0.2,0,0.3-0.2,0.3-0.3l0-1.7C61.5,40.8,61.3,40.6,61.1,40.6z"/>
	
		<linearGradient id="SVGID_00000010313095766122403830000015619157206647544510_" gradientUnits="userSpaceOnUse" x1="38.3851" y1="28.0289" x2="90.8686" y2="83.6772">
		<stop  offset="0.2528" style="stop-color:#823E93"/>
		<stop  offset="1" style="stop-color:#5D318B"/>
	</linearGradient>
	<path style="fill:url(#SVGID_00000010313095766122403830000015619157206647544510_);" d="M62.3,48.3c-1.3,0-2.6,0-3.9,0
		c-0.7,0-1.1,0.5-1.1,1.2c0,0.6,0,1.2,0,1.8c0,0,0,0,0,0c0,0.6,0,1.2,0,1.8c0,0.8,0.5,1.3,1.2,1.3c1.2,0,2.5,0,3.7,0
		c0.7,0,1.2-0.4,1.2-1.2c0-1.3,0-2.6,0-3.9C63.4,48.7,62.9,48.3,62.3,48.3z M62.2,53.2c-1.2,0-2.4,0-3.7,0c0-1.2,0-2.4,0-3.7
		c1.2,0,2.4,0,3.7,0C62.2,50.7,62.2,51.9,62.2,53.2z"/>
	
		<linearGradient id="SVGID_00000106116325365962942180000000715442909084001981_" gradientUnits="userSpaceOnUse" x1="38.3035" y1="28.1058" x2="90.787" y2="83.7542">
		<stop  offset="0.2528" style="stop-color:#823E93"/>
		<stop  offset="1" style="stop-color:#5D318B"/>
	</linearGradient>
	<path style="fill:url(#SVGID_00000106116325365962942180000000715442909084001981_);" d="M59.4,52.6l1.7,0c0.2,0,0.3-0.2,0.3-0.3
		l0-1.7c0-0.2-0.2-0.3-0.3-0.3l-1.7,0c-0.2,0-0.3,0.2-0.3,0.3l0,1.7C59,52.4,59.2,52.6,59.4,52.6z"/>
	
		<linearGradient id="SVGID_00000129189313487522856770000005667267472051543705_" gradientUnits="userSpaceOnUse" x1="44.4512" y1="22.3078" x2="96.9347" y2="77.9561">
		<stop  offset="0.2528" style="stop-color:#823E93"/>
		<stop  offset="1" style="stop-color:#5D318B"/>
	</linearGradient>
	<path style="fill:url(#SVGID_00000129189313487522856770000005667267472051543705_);" d="M69,48.8c0.3,0,0.6-0.3,0.6-0.6l0-0.9
		c0-0.3-0.3-0.6-0.6-0.6l-1.2,0c-0.3,0-0.6,0.3-0.6,0.6l0,0.9c0,0.3,0.3,0.6,0.6,0.6L69,48.8z"/>
	
		<linearGradient id="SVGID_00000041289107847349756640000002749174851186156192_" gradientUnits="userSpaceOnUse" x1="43.7391" y1="22.9794" x2="96.2226" y2="78.6277">
		<stop  offset="0.2528" style="stop-color:#823E93"/>
		<stop  offset="1" style="stop-color:#5D318B"/>
	</linearGradient>
	<path style="fill:url(#SVGID_00000041289107847349756640000002749174851186156192_);" d="M72.8,52l-1.2,0c-0.3,0-0.6,0.3-0.6,0.6
		l0,1.2c0,0.3,0.3,0.6,0.6,0.6l1.2,0c0.3,0,0.6-0.3,0.6-0.6l0-1.2C73.4,52.2,73.2,52,72.8,52z"/>
	
		<linearGradient id="SVGID_00000029028895943369058310000002252247809941959080_" gradientUnits="userSpaceOnUse" x1="48.4378" y1="18.5479" x2="100.9213" y2="74.1963">
		<stop  offset="0.2528" style="stop-color:#823E93"/>
		<stop  offset="1" style="stop-color:#5D318B"/>
	</linearGradient>
	<path style="fill:url(#SVGID_00000029028895943369058310000002252247809941959080_);" d="M67.3,43.6c0,0.8,0.5,1.3,1.2,1.3
		c1.2,0,2.5,0,3.7,0c0.7,0,1.2-0.4,1.2-1.2c0-1.3,0-2.6,0-3.9c0-0.7-0.5-1.1-1.1-1.1c-1.3,0-2.6,0-3.9,0c-0.7,0-1.1,0.5-1.1,1.2
		c0,0.6,0,1.2,0,1.8c0,0,0,0,0,0C67.3,42.4,67.3,43,67.3,43.6z M68.5,40c1.2,0,2.4,0,3.7,0c0,1.2,0,2.4,0,3.7c-1.2,0-2.4,0-3.7,0
		C68.5,42.4,68.5,41.2,68.5,40z"/>
	
		<linearGradient id="SVGID_00000160872087122758475180000013709536367012866232_" gradientUnits="userSpaceOnUse" x1="48.3562" y1="18.6249" x2="100.8397" y2="74.2732">
		<stop  offset="0.2528" style="stop-color:#823E93"/>
		<stop  offset="1" style="stop-color:#5D318B"/>
	</linearGradient>
	<path style="fill:url(#SVGID_00000160872087122758475180000013709536367012866232_);" d="M71.1,40.7l-1.7,0c-0.2,0-0.3,0.2-0.3,0.3
		l0,1.7c0,0.2,0.2,0.3,0.3,0.3l1.7,0c0.2,0,0.3-0.2,0.3-0.3l0-1.7C71.5,40.8,71.3,40.7,71.1,40.7z"/>
	
		<linearGradient id="SVGID_00000124148831993148595180000012906310548128860323_" gradientUnits="userSpaceOnUse" x1="63.312" y1="4.5196" x2="115.7955" y2="60.1679">
		<stop  offset="0.2528" style="stop-color:#823E93"/>
		<stop  offset="1" style="stop-color:#5D318B"/>
	</linearGradient>
	<path style="fill:url(#SVGID_00000124148831993148595180000012906310548128860323_);" d="M62.5,7.5l5.8,0c0.4,0,0.6-0.3,0.6-0.7
		c0-0.4-0.3-0.6-0.7-0.6l-5.8,0c-0.4,0-0.6,0.3-0.6,0.7C61.9,7.2,62.2,7.5,62.5,7.5z"/>
	
		<linearGradient id="SVGID_00000167382854679951793390000017301891422642022303_" gradientUnits="userSpaceOnUse" x1="50.4971" y1="16.6057" x2="102.9806" y2="72.2541">
		<stop  offset="0.2528" style="stop-color:#823E93"/>
		<stop  offset="1" style="stop-color:#5D318B"/>
	</linearGradient>
	<path style="fill:url(#SVGID_00000167382854679951793390000017301891422642022303_);" d="M55.6,23.6l0-7c0-0.4-0.3-0.6-0.6-0.6
		l-2.3,0c-0.4,0-0.6,0.3-0.6,0.6l0,7c0,0.4,0.3,0.6,0.6,0.6l2.3,0C55.3,24.3,55.6,24,55.6,23.6z"/>
	
		<linearGradient id="SVGID_00000012455768810802101820000006261091487899308178_" gradientUnits="userSpaceOnUse" x1="59.5409" y1="8.0762" x2="112.0244" y2="63.7246">
		<stop  offset="0.2528" style="stop-color:#823E93"/>
		<stop  offset="1" style="stop-color:#5D318B"/>
	</linearGradient>
	<path style="fill:url(#SVGID_00000012455768810802101820000006261091487899308178_);" d="M69.8,24.3l2.3,0c0.4,0,0.6-0.3,0.6-0.6
		l0-7c0-0.4-0.3-0.6-0.6-0.6l-2.3,0c-0.4,0-0.6,0.3-0.6,0.6l0,7C69.1,24,69.4,24.3,69.8,24.3z"/>
	
		<linearGradient id="SVGID_00000167373299700507195530000008426832796750900611_" gradientUnits="userSpaceOnUse" x1="52.7356" y1="14.4945" x2="105.2191" y2="70.1429">
		<stop  offset="0.2528" style="stop-color:#823E93"/>
		<stop  offset="1" style="stop-color:#5D318B"/>
	</linearGradient>
	<path style="fill:url(#SVGID_00000167373299700507195530000008426832796750900611_);" d="M57.2,24.3l1.6,0c0.4,0,0.6-0.3,0.6-0.6
		l0-7c0-0.4-0.3-0.6-0.6-0.6l-1.6,0c-0.4,0-0.6,0.3-0.6,0.6l0,7C56.6,24,56.9,24.3,57.2,24.3z"/>
	
		<linearGradient id="SVGID_00000073711572734562292090000000150084789825321661_" gradientUnits="userSpaceOnUse" x1="54.4917" y1="12.8382" x2="106.9753" y2="68.4866">
		<stop  offset="0.2528" style="stop-color:#823E93"/>
		<stop  offset="1" style="stop-color:#5D318B"/>
	</linearGradient>
	<path style="fill:url(#SVGID_00000073711572734562292090000000150084789825321661_);" d="M61.1,24.3l0.6,0c0.4,0,0.6-0.3,0.6-0.6
		l0-7c0-0.4-0.3-0.6-0.6-0.6l-0.6,0c-0.4,0-0.6,0.3-0.6,0.6l0,7C60.4,24,60.7,24.3,61.1,24.3z"/>
	
		<linearGradient id="SVGID_00000000925189582521011740000007287665322718211229_" gradientUnits="userSpaceOnUse" x1="56.046" y1="11.3724" x2="108.5295" y2="67.0208">
		<stop  offset="0.2528" style="stop-color:#823E93"/>
		<stop  offset="1" style="stop-color:#5D318B"/>
	</linearGradient>
	<path style="fill:url(#SVGID_00000000925189582521011740000007287665322718211229_);" d="M64,16c-0.4,0-0.6,0.3-0.6,0.6l0,7
		c0,0.4,0.3,0.6,0.6,0.6l0.6,0c0.4,0,0.6-0.3,0.6-0.6l0-7c0-0.4-0.3-0.6-0.6-0.6L64,16z"/>
	
		<linearGradient id="SVGID_00000134218178664514449610000013678832682526097810_" gradientUnits="userSpaceOnUse" x1="57.6124" y1="9.8951" x2="110.0959" y2="65.5434">
		<stop  offset="0.2528" style="stop-color:#823E93"/>
		<stop  offset="1" style="stop-color:#5D318B"/>
	</linearGradient>
	<path style="fill:url(#SVGID_00000134218178664514449610000013678832682526097810_);" d="M67,16c-0.4,0-0.6,0.3-0.6,0.6l0,7
		c0,0.4,0.3,0.6,0.6,0.6l0.6,0c0.4,0,0.6-0.3,0.6-0.6l0-7c0-0.4-0.3-0.6-0.6-0.6L67,16z"/>
	
		<linearGradient id="SVGID_00000143578854246914361770000015034479734884755086_" gradientUnits="userSpaceOnUse" x1="61.6264" y1="6.1093" x2="114.11" y2="61.7577">
		<stop  offset="0.2528" style="stop-color:#823E93"/>
		<stop  offset="1" style="stop-color:#5D318B"/>
	</linearGradient>
	<path style="fill:url(#SVGID_00000143578854246914361770000015034479734884755086_);" d="M74.6,24.3l0.6,0c0.4,0,0.6-0.3,0.6-0.6
		l0-7c0-0.4-0.3-0.6-0.6-0.6l-0.6,0c-0.4,0-0.6,0.3-0.6,0.6l0,7C73.9,24,74.2,24.3,74.6,24.3z"/>
	
		<linearGradient id="SVGID_00000171707155934999694890000008438213787559942581_" gradientUnits="userSpaceOnUse" x1="63.1929" y1="4.6319" x2="115.6764" y2="60.2803">
		<stop  offset="0.2528" style="stop-color:#823E93"/>
		<stop  offset="1" style="stop-color:#5D318B"/>
	</linearGradient>
	<path style="fill:url(#SVGID_00000171707155934999694890000008438213787559942581_);" d="M78.2,16l-0.6,0c-0.4,0-0.6,0.3-0.6,0.6
		l0,7c0,0.4,0.3,0.6,0.6,0.6l0.6,0c0.4,0,0.6-0.3,0.6-0.6l0-7C78.8,16.3,78.5,16,78.2,16z"/>
	
		<linearGradient id="SVGID_00000150811969880547807580000012918526198184671400_" gradientUnits="userSpaceOnUse" x1="43.5621" y1="23.1463" x2="96.0456" y2="78.7947">
		<stop  offset="0.2528" style="stop-color:#823E93"/>
		<stop  offset="1" style="stop-color:#5D318B"/>
	</linearGradient>
	<path style="fill:url(#SVGID_00000150811969880547807580000012918526198184671400_);" d="M74.4,35.7l-17.8,0
		c-1.1,0-1.9,0.9-1.9,1.9l0,17.5c0,1.1,0.9,1.9,1.9,1.9l17.8,0c1.1,0,1.9-0.9,1.9-1.9l0-17.5C76.3,36.6,75.5,35.7,74.4,35.7z
		 M74.9,55.2c0,0.3-0.2,0.5-0.5,0.5l-17.8,0c-0.3,0-0.5-0.2-0.5-0.5l0-17.5c0-0.3,0.2-0.5,0.5-0.5l17.8,0c0.3,0,0.5,0.2,0.5,0.5
		L74.9,55.2z"/>
	
		<linearGradient id="SVGID_00000065757793174387828440000012505497907676824462_" gradientUnits="userSpaceOnUse" x1="45.7711" y1="21.0629" x2="98.2546" y2="76.7113">
		<stop  offset="0.2528" style="stop-color:#823E93"/>
		<stop  offset="1" style="stop-color:#5D318B"/>
	</linearGradient>
	<path style="fill:url(#SVGID_00000065757793174387828440000012505497907676824462_);" d="M65.6,38.7l-0.5,0c-0.3,0-0.5,0.2-0.5,0.5
		l0,5.2c0,0.3,0.2,0.5,0.5,0.5l0.5,0c0.3,0,0.5-0.2,0.5-0.5l0-5.2C66.1,38.9,65.9,38.7,65.6,38.7z"/>
	
		<linearGradient id="SVGID_00000025441680939391746350000006497750319534463380_" gradientUnits="userSpaceOnUse" x1="41.2297" y1="25.3461" x2="93.7132" y2="80.9944">
		<stop  offset="0.2528" style="stop-color:#823E93"/>
		<stop  offset="1" style="stop-color:#5D318B"/>
	</linearGradient>
	<path style="fill:url(#SVGID_00000025441680939391746350000006497750319534463380_);" d="M64.7,46.1l-6.8,0c-0.4,0-0.7,0.3-0.7,0.7
		c0,0.4,0.3,0.7,0.7,0.7l6.6,0l0,6.4c0,0.4,0.3,0.7,0.7,0.7c0.4,0,0.7-0.3,0.7-0.7l0-6.6C66,46.7,65.4,46.1,64.7,46.1z"/>
	
		<linearGradient id="SVGID_00000092420976153514286230000010185960771505795980_" gradientUnits="userSpaceOnUse" x1="44.0559" y1="22.6805" x2="96.5395" y2="78.3289">
		<stop  offset="0.2528" style="stop-color:#823E93"/>
		<stop  offset="1" style="stop-color:#5D318B"/>
	</linearGradient>
	<path style="fill:url(#SVGID_00000092420976153514286230000010185960771505795980_);" d="M73.4,50.1l0-2.9c0-0.4-0.3-0.7-0.7-0.7
		c-0.4,0-0.7,0.3-0.7,0.7l0,2.4l-3.5,0c-0.5,0-0.9,0.4-0.9,0.9l0,3.7c0,0.4,0.3,0.7,0.7,0.7c0.4,0,0.7-0.3,0.7-0.7l0-3.2l3.5,0
		C73,51,73.4,50.6,73.4,50.1z"/>
	<g>
		
			<linearGradient id="SVGID_00000141425199016688360900000010867180024404191907_" gradientUnits="userSpaceOnUse" x1="33.1205" y1="32.9941" x2="85.604" y2="88.6424">
			<stop  offset="0.2528" style="stop-color:#823E93"/>
			<stop  offset="1" style="stop-color:#5D318B"/>
		</linearGradient>
		<path style="fill:url(#SVGID_00000141425199016688360900000010867180024404191907_);" d="M43.3,35.3c0-1.1-0.9-2.1-2.1-2.1H29.4
			c-1.1,0-2.1,0.9-2.1,2.1s0.9,2.1,2.1,2.1h11.8C42.4,37.4,43.3,36.5,43.3,35.3z"/>
		
			<linearGradient id="SVGID_00000153699734077294902140000017964651478547730358_" gradientUnits="userSpaceOnUse" x1="42.8419" y1="23.8255" x2="95.3254" y2="79.4739">
			<stop  offset="0.2528" style="stop-color:#823E93"/>
			<stop  offset="1" style="stop-color:#5D318B"/>
		</linearGradient>
		<path style="fill:url(#SVGID_00000153699734077294902140000017964651478547730358_);" d="M41.3,10.4h-5.2c-3.5,0-6.3,2.8-6.3,6.3
			V22c0,1.1,0.9,2.1,2.1,2.1c1.1,0,2.1-0.9,2.1-2.1v-5.2c0-1.2,1-2.1,2.1-2.1h5.2c1.1,0,2.1-0.9,2.1-2.1
			C43.4,11.4,42.5,10.4,41.3,10.4z"/>
		
			<linearGradient id="SVGID_00000034775592460624797070000013825266197307916956_" gradientUnits="userSpaceOnUse" x1="21.8471" y1="43.6263" x2="74.3306" y2="99.2747">
			<stop  offset="0.2528" style="stop-color:#823E93"/>
			<stop  offset="1" style="stop-color:#5D318B"/>
		</linearGradient>
		<path style="fill:url(#SVGID_00000034775592460624797070000013825266197307916956_);" d="M41.3,58.5h-5.2c-1.2,0-2.1-1-2.1-2.1
			v-5.2c0-1.1-0.9-2.1-2.1-2.1c-1.1,0-2.1,0.9-2.1,2.1v5.2c0,3.5,2.8,6.3,6.3,6.3h5.2c1.1,0,2.1-0.9,2.1-2.1S42.5,58.5,41.3,58.5z"
			/>
		
			<linearGradient id="SVGID_00000113351702352502956010000000473915978315712698_" gradientUnits="userSpaceOnUse" x1="64.5255" y1="3.3751" x2="117.0091" y2="59.0234">
			<stop  offset="0.2528" style="stop-color:#823E93"/>
			<stop  offset="1" style="stop-color:#5D318B"/>
		</linearGradient>
		<path style="fill:url(#SVGID_00000113351702352502956010000000473915978315712698_);" d="M100.6,33.3H88.8c-1.1,0-2.1,0.9-2.1,2.1
			s0.9,2.1,2.1,2.1h11.8c1.1,0,2.1-0.9,2.1-2.1S101.7,33.3,100.6,33.3z"/>
		
			<linearGradient id="SVGID_00000086690898607090185280000005775267326059646874_" gradientUnits="userSpaceOnUse" x1="74.5973" y1="-6.1239" x2="127.0808" y2="49.5245">
			<stop  offset="0.2528" style="stop-color:#823E93"/>
			<stop  offset="1" style="stop-color:#5D318B"/>
		</linearGradient>
		<path style="fill:url(#SVGID_00000086690898607090185280000005775267326059646874_);" d="M88.7,14.6h5.2c1.2,0,2.1,1,2.1,2.1V22
			c0,1.1,0.9,2.1,2.1,2.1s2.1-0.9,2.1-2.1v-5.2c0-3.5-2.8-6.3-6.3-6.3h-5.2c-1.1,0-2.1,0.9-2.1,2.1C86.6,13.7,87.5,14.6,88.7,14.6z"
			/>
		
			<linearGradient id="SVGID_00000163034361824618820360000005270871109096154280_" gradientUnits="userSpaceOnUse" x1="53.6025" y1="13.6769" x2="106.0861" y2="69.3252">
			<stop  offset="0.2528" style="stop-color:#823E93"/>
			<stop  offset="1" style="stop-color:#5D318B"/>
		</linearGradient>
		<path style="fill:url(#SVGID_00000163034361824618820360000005270871109096154280_);" d="M98.1,49C96.9,49,96,50,96,51.1v5.2
			c0,1.2-1,2.1-2.1,2.1h-5.2c-1.1,0-2.1,0.9-2.1,2.1s0.9,2.1,2.1,2.1h5.2c3.5,0,6.3-2.8,6.3-6.3v-5.2C100.2,50,99.2,49,98.1,49z"/>
	</g>
</g>
</svg>
