<?xml version="1.0" encoding="utf-8"?>
<!-- Generator: Adobe Illustrator 28.1.0, SVG Export Plug-In . SVG Version: 6.00 Build 0)  -->
<svg version="1.1" id="圖層_1" xmlns="http://www.w3.org/2000/svg" xmlns:xlink="http://www.w3.org/1999/xlink" x="0px" y="0px"
	 viewBox="0 0 130 70" style="enable-background:new 0 0 130 70;" xml:space="preserve">
<style type="text/css">
	.st0{fill:url(#SVGID_1_);}
	.st1{fill:url(#SVGID_00000088836334810765000320000011988881105111660725_);}
	.st2{fill:url(#SVGID_00000035527486631654063090000010751405864543333051_);}
	.st3{fill:url(#SVGID_00000045593567505309567510000003152600400990934973_);}
	.st4{fill:url(#SVGID_00000001634900215071594800000006493638540805613216_);}
	.st5{fill:url(#SVGID_00000069374514295938163410000017915645962634170264_);}
	.st6{fill:url(#SVGID_00000039812200202332883540000004486593220194576002_);}
</style>
<g>
	
		<linearGradient id="SVGID_1_" gradientUnits="userSpaceOnUse" x1="45.5138" y1="702.0858" x2="86.9319" y2="761.6697" gradientTransform="matrix(1 0 0 1 0 -695.1)">
		<stop  offset="0.2528" style="stop-color:#823E93"/>
		<stop  offset="1" style="stop-color:#5D318B"/>
	</linearGradient>
	<path class="st0" d="M90.7,8.3H39.3c-5.2,0-9.4,4.2-9.4,9.4v34.7c0,5.2,4.2,9.4,9.4,9.4h51.4c5.2,0,9.4-4.2,9.4-9.4V17.7
		C100.2,12.5,95.9,8.3,90.7,8.3z M95.6,52.4c0,2.7-2.2,4.8-4.8,4.8H39.4c-2.7,0-4.8-2.2-4.8-4.8V17.7c0-2.7,2.2-4.8,4.8-4.8h51.4
		c2.7,0,4.8,2.2,4.8,4.8C95.6,17.7,95.6,52.4,95.6,52.4z"/>
	
		<linearGradient id="SVGID_00000176758960678867257490000016735148588959885468_" gradientUnits="userSpaceOnUse" x1="46.5796" y1="701.3449" x2="87.9977" y2="760.9289" gradientTransform="matrix(1 0 0 1 0 -695.1)">
		<stop  offset="0.2528" style="stop-color:#823E93"/>
		<stop  offset="1" style="stop-color:#5D318B"/>
	</linearGradient>
	<path style="fill:url(#SVGID_00000176758960678867257490000016735148588959885468_);" d="M90.3,30.3H39.1c-1.6,0-2.8,0.9-2.8,2
		c0,1.1,1.2,2,2.8,2h51.2c1.6,0,2.8-0.9,2.8-2C93.1,31.2,91.8,30.3,90.3,30.3z"/>
	
		<linearGradient id="SVGID_00000156571664569460487970000012348076123935987886_" gradientUnits="userSpaceOnUse" x1="24.7132" y1="716.5448" x2="66.1313" y2="776.1288" gradientTransform="matrix(1 0 0 1 0 -695.1)">
		<stop  offset="0.2528" style="stop-color:#823E93"/>
		<stop  offset="1" style="stop-color:#5D318B"/>
	</linearGradient>
	<path style="fill:url(#SVGID_00000156571664569460487970000012348076123935987886_);" d="M45.6,47.7h-3.3l0,0c-1.1,0-2,0.6-2,1.4
		c0,0.8,0.9,1.4,2,1.5h3.3l0,0c1.1,0,2-0.6,2-1.4C47.6,48.3,46.7,47.7,45.6,47.7z"/>
	
		<linearGradient id="SVGID_00000066503793123780762070000010829353388359725696_" gradientUnits="userSpaceOnUse" x1="33.9848" y1="710.5739" x2="75.4029" y2="770.1579" gradientTransform="matrix(1 0 0 1 0 -695.1)">
		<stop  offset="0.2528" style="stop-color:#823E93"/>
		<stop  offset="1" style="stop-color:#5D318B"/>
	</linearGradient>
	<path style="fill:url(#SVGID_00000066503793123780762070000010829353388359725696_);" d="M59,47.7h-3.3l0,0c-1.1,0-2,0.6-2,1.4
		c0,0.8,0.9,1.4,2,1.5H59l0,0c1.1,0,2-0.6,2-1.4C61.1,48.3,60.1,47.7,59,47.7z"/>
	
		<linearGradient id="SVGID_00000172411039714601281750000009919016849375017604_" gradientUnits="userSpaceOnUse" x1="43.6119" y1="703.4078" x2="85.03" y2="762.9918" gradientTransform="matrix(1 0 0 1 0 -695.1)">
		<stop  offset="0.2528" style="stop-color:#823E93"/>
		<stop  offset="1" style="stop-color:#5D318B"/>
	</linearGradient>
	<path style="fill:url(#SVGID_00000172411039714601281750000009919016849375017604_);" d="M73.7,47.8h-3.3l0,0c-1.1,0-2,0.6-2,1.4
		c0,0.8,0.9,1.4,2,1.5h3.3l0,0c1.1,0,2-0.6,2-1.4C75.7,48.4,74.8,47.8,73.7,47.8z"/>
	
		<linearGradient id="SVGID_00000029032475750202577610000006534841020514100916_" gradientUnits="userSpaceOnUse" x1="53.3207" y1="696.6591" x2="94.7388" y2="756.243" gradientTransform="matrix(1 0 0 1 0 -695.1)">
		<stop  offset="0.2528" style="stop-color:#823E93"/>
		<stop  offset="1" style="stop-color:#5D318B"/>
	</linearGradient>
	<path style="fill:url(#SVGID_00000029032475750202577610000006534841020514100916_);" d="M88.1,47.8h-3.3l0,0c-1.1,0-2,0.6-2,1.4
		c0,0.8,0.9,1.4,2,1.5h3.3l0,0c1.1,0,2-0.6,2-1.4C90.1,48.4,89.2,47.8,88.1,47.8z"/>
	
		<linearGradient id="SVGID_00000085931018729698421450000011264897573291204743_" gradientUnits="userSpaceOnUse" x1="64.6306" y1="688.7973" x2="106.0488" y2="748.3813" gradientTransform="matrix(1 0 0 1 0 -695.1)">
		<stop  offset="0.2528" style="stop-color:#823E93"/>
		<stop  offset="1" style="stop-color:#5D318B"/>
	</linearGradient>
	<path style="fill:url(#SVGID_00000085931018729698421450000011264897573291204743_);" d="M81.8,26.6h3.9c2.8,0,5.2-2.3,5.2-5.2V21
		c0-2.8-2.3-5.2-5.2-5.2h-3.9c-2.8,0-5.2,2.3-5.2,5.2v0.4C76.6,24.3,79,26.6,81.8,26.6z M79.3,20.9c0-1.4,1.1-2.5,2.5-2.5h3.9
		c1.4,0,2.5,1.1,2.5,2.5v0.4c0,1.4-1.1,2.5-2.5,2.5h-3.9c-1.4,0-2.5-1.1-2.5-2.5V20.9z"/>
</g>
</svg>
