<?xml version="1.0" encoding="utf-8"?>
<!-- Generator: Adobe Illustrator 28.1.0, SVG Export Plug-In . SVG Version: 6.00 Build 0)  -->
<svg version="1.1" id="圖層_1" xmlns="http://www.w3.org/2000/svg" xmlns:xlink="http://www.w3.org/1999/xlink" x="0px" y="0px"
	 viewBox="0 0 130 70" style="enable-background:new 0 0 130 70;" xml:space="preserve">
<style type="text/css">
	.st0{fill:#FFFFFF;}
</style>
<g>
	<g>
		<path class="st0" d="M57.5,30.3c-0.7-3.2-2.6-6-5.3-7.8c-2.7-1.9-6-2.6-9.2-2.2c-6.1,0.8-10.8,5.9-11.2,12.2
			c-0.4,6.2,3.7,11.8,9.7,13.3c0.9,0.2,1.8,0.3,2.7,0.4c0.3,0,0.6,0.1,1,0.1v5c0,3.7,0,7.4,0,11c0,3-1.7,4.6-4.6,4.6
			c-8.5,0-17.3,0-26.2,0c-3,0-4.7-1.7-4.7-4.7c0-10.1,0-20.2,0-30.3v-8.7c0-1.2,0-2.4,0-3.6c0-2.9,0-5.8,0-8.8
			c0-2.4,1.7-4.2,4.1-4.3c0.4,0,0.4,0,0.5,0.3c0.2,0.7,0.4,1.4,0.6,2.1c0.1,0.3,0.2,0.6,0.2,0.8c0.7,2.3,2.3,3.6,4.7,3.6
			c4.7,0,9.7,0,15.3,0c2.3,0,4-1.3,4.6-3.5c0.1-0.3,0.1-0.5,0.2-0.8c0.2-0.7,0.4-1.5,0.6-2.3c0.1-0.3,0.1-0.3,0.4-0.3
			c2.5,0.1,4.2,1.9,4.2,4.3c0,1.3,0,2.5,0,3.8c0,0.8,0,1.6,0,2.4c0,1.2,0.6,1.9,1.6,1.9c0.4,0,0.8-0.1,1.1-0.4s0.5-0.8,0.5-1.5
			c0-0.8,0-1.6,0-2.4c0-1.2,0-2.4,0-3.6c0-2.2-0.7-4.1-2.1-5.6c-1.4-1.4-3.3-2.2-5.5-2.2c-9.4,0-18.1,0-26.6,0
			c-0.7,0-1.2,0.1-1.7,0.2C8.9,4.1,6.5,7,6.5,10.7c0,18.2,0,35.1,0,51.7c0,4.2,3.2,7.4,7.6,7.4c4.1,0,8.2,0,12.3,0
			c4.8,0,9.5,0,14.2,0c2.3,0,4.2-0.7,5.6-2.1c1.4-1.4,2.1-3.3,2.2-5.6c0-5.3,0-10.8,0-16.3c0-0.4,0-0.5,0.4-0.6
			c3.1-1,5.7-3.1,7.3-5.9C57.7,36.8,58.2,33.5,57.5,30.3z M54.6,33.1c0,5.4-4.4,9.8-9.8,9.8l0,0c-5.4,0-9.8-4.4-9.8-9.8
			c0-2.6,1-5.1,2.9-6.9c1.9-1.9,4.3-2.9,7-2.9l0,0C50.3,23.3,54.6,27.7,54.6,33.1z M22.7,10.2c-0.9,0-1.9,0-2.8,0
			c-1,0-1.4-0.3-1.7-1.3C18,8.3,17.9,7.6,17.7,7l-0.1-0.4h19.8c-0.1,0.2-0.1,0.4-0.2,0.6C37,8,36.7,8.8,36.5,9.6
			c-0.1,0.3-0.4,0.7-1.5,0.7c-1.7,0-3.4,0-5.2,0c-1,0-2,0-3,0h-2.9C23.5,10.2,23.1,10.2,22.7,10.2z"/>
		<path class="st0" d="M27.6,20.9c0.8-0.6,0.9-1.6,0.3-2.3c-0.6-0.7-1.6-0.8-2.4-0.1c-0.1,0.1-0.3,0.2-0.4,0.3
			c-3.7,3.5-5.8,8.2-6,13.2l0,0c0,3.1,0.3,5.4,1.1,7.7c1.1,3.3,2.9,6,5.4,8c0.4,0.3,0.8,0.5,1.2,0.5h0.1c0.4,0,0.8-0.2,1-0.6
			c0.6-0.7,0.5-1.6-0.3-2.3c-0.1-0.1-0.2-0.2-0.3-0.3c-0.3-0.3-0.7-0.6-0.9-0.9c-4.2-4.9-5.2-10.7-3-17.1
			C24.2,24.6,25.6,22.6,27.6,20.9z"/>
		<path class="st0" d="M33.8,43.1c-3.2-2.4-5.1-6-5.1-9.9s1.8-7.5,5-9.9c0.9-0.7,1.2-1.6,0.6-2.4c-0.3-0.4-0.6-0.6-1-0.6
			c-0.5-0.1-1,0.1-1.5,0.5c-4,3-6.2,7.1-6.3,11.8l0,0l0,0c0,4.4,1.3,7.9,3.9,10.7c0.8,0.9,1.7,1.6,2.9,2.5c0.3,0.2,0.6,0.3,1,0.3
			c0.2,0,0.4,0,0.6-0.1c0.5-0.2,0.9-0.7,1-1.2C34.8,44,34.3,43.5,33.8,43.1z"/>
		<path class="st0" d="M16.6,60.8c-0.7,0-1.4,0-2.1,0c-0.9,0-1.5,0.7-1.5,1.6c0,0.9,0.6,1.5,1.5,1.6c0.1,0,0.2,0,0.3,0s0.1,0,0.2,0
			c0.1,0,0.1,0,0.2,0h14.6c3.4,0,6.8,0,10.2,0h0.1c0.2,0,0.5,0,0.7-0.1c0.8-0.2,1.2-0.8,1.2-1.6s-0.5-1.3-1.3-1.5
			c-0.2,0-0.4,0-0.6,0H40c-7.5,0-15,0-22.6,0C17.2,60.8,16.9,60.8,16.6,60.8z"/>
		<path class="st0" d="M47.7,31.5c-0.4,0-0.8,0-1.1,0h-0.1v-3.1h0.7c0,0.3,0,0.5,0,0.7c0,1,0.7,1.6,1.6,1.6l0,0
			c0.9,0,1.5-0.7,1.6-1.6c0-0.5,0-0.9,0-1.4v-0.1c-0.1-1.5-1-2.5-2.5-2.5c-0.4,0-0.8,0-1.2,0c-0.1,0-0.1,0-0.2,0
			c-0.1-0.5-0.5-1.3-1.5-1.3c-0.9,0-1.3,0.5-1.7,1.3c-0.1,0-0.1,0-0.2,0c-0.4,0-0.8,0-1.2,0c-1.6,0-2.6,1-2.6,2.6c0,1.4,0,2.8,0,4.3
			c0,1.6,1,2.6,2.6,2.6c0.4,0,0.8,0,1.1,0h0.1v3.1h-0.7c0-0.2,0-0.5,0-0.7c0-1-0.7-1.6-1.5-1.6c-0.9,0-1.6,0.6-1.6,1.6
			c0,0.4,0,0.9,0,1.3c0,1.6,1.1,2.6,2.7,2.7c0.4,0,0.8,0,1.1,0c0.1,0,0.1,0,0.2,0c0.2,0.7,0.6,1.3,1.5,1.3h0.1
			c0.8,0,1.2-0.5,1.6-1.3c0.1,0,0.1,0,0.2,0c0.4,0,0.7,0,1.1,0c1.6,0,2.6-1.1,2.7-2.7c0-1.4,0-2.8,0-4.2
			C50.3,32.6,49.3,31.6,47.7,31.5z M47.2,35.6c0,0.8,0,1.5,0,2.3h-0.7v-3.1c0.3,0,0.6-0.1,0.7,0C47.2,34.8,47.2,35.3,47.2,35.6z
			 M43.2,31.5L43.2,31.5c-0.3,0.1-0.6,0.1-0.7,0.1c-0.1-0.1-0.1-0.6-0.1-0.9v-2.2h0.8v0.4C43.2,29.7,43.2,30.6,43.2,31.5z"/>
	</g>
	<g>
		<path class="st0" d="M109.8,28.6h2.9c2.5,0,4.6-2,4.6-4.6v-0.3c0-2.5-2-4.6-4.6-4.6h-2.9c-2.5,0-4.6,2-4.6,4.6V24
			C105.3,26.6,107.3,28.6,109.8,28.6z M108.7,23.8c0-0.6,0.5-1.1,1.1-1.1h2.9c0.6,0,1.1,0.5,1.1,1.1v0.3c0,0.6-0.5,1.1-1.1,1.1h-2.9
			c-0.6,0-1.1-0.5-1.1-1.1V23.8z"/>
		<path class="st0" d="M116.5,14.4H78.3c-3.8,0-7,3.1-7,7v25.7c0,3.8,3.1,7,7,7h38.1c3.8,0,7-3.1,7-7V21.3
			C123.5,17.5,120.3,14.4,116.5,14.4z M120,47.1c0,2-1.6,3.6-3.6,3.6H78.3c-2,0-3.6-1.6-3.6-3.6V21.3c0-2,1.6-3.6,3.6-3.6h38.1
			c2,0,3.6,1.6,3.6,3.6V47.1z"/>
		<path class="st0" d="M116.1,29.7h-38c-1.1,0-2,0.9-2,2c0,1.1,0.9,2,2,2h38c1.1,0,2-0.9,2-2S117.3,29.7,116.1,29.7z"/>
		<path class="st0" d="M83,43.6h-2.4l0,0c-0.8,0-1.5,0.5-1.5,1c0,0.6,0.7,1.1,1.5,1.1H83l0,0c0.8,0,1.5-0.5,1.5-1
			C84.5,44,83.8,43.6,83,43.6z"/>
		<path class="st0" d="M93,43.6h-2.4l0,0c-0.8,0-1.5,0.5-1.5,1c0,0.6,0.7,1.1,1.5,1.1H93l0,0c0.8,0,1.5-0.5,1.5-1
			C94.5,44.1,93.8,43.6,93,43.6z"/>
		<path class="st0" d="M103.8,43.6h-2.4l0,0c-0.8,0-1.5,0.5-1.5,1c0,0.6,0.7,1.1,1.5,1.1h2.4l0,0c0.8,0,1.5-0.5,1.5-1
			C105.3,44.1,104.6,43.6,103.8,43.6z"/>
		<path class="st0" d="M114.5,43.6h-2.4l0,0c-0.8,0-1.5,0.5-1.5,1c0,0.6,0.7,1.1,1.5,1.1h2.4l0,0c0.8,0,1.5-0.5,1.5-1
			C116,44.1,115.3,43.6,114.5,43.6z"/>
	</g>
</g>
</svg>
