<?xml version="1.0" encoding="utf-8"?>
<!-- Generator: Adobe Illustrator 28.1.0, SVG Export Plug-In . SVG Version: 6.00 Build 0)  -->
<svg version="1.1" id="圖層_1" xmlns="http://www.w3.org/2000/svg" xmlns:xlink="http://www.w3.org/1999/xlink" x="0px" y="0px"
	 viewBox="0 0 130 70" style="enable-background:new 0 0 130 70;" xml:space="preserve">
<style type="text/css">
	.st0{fill:#FFFFFF;}
</style>
<g>
	<path class="st0" d="M88.2,46.8c0,2.3,0.1,4.6,0,6.8c-0.1,2.9-1.7,4.6-4.6,4.6c-4.6,0.1-9.3,0.1-13.9,0c-2.9,0-4.7-1.9-4.7-4.8
		c-0.1-4.6-0.1-9.1,0-13.7c0-2.7,1.6-4.6,4.2-4.7c4.9-0.2,9.8-0.2,14.6,0c2.7,0.1,4.2,2,4.3,4.7C88.3,42.1,88.2,44.5,88.2,46.8z
		 M83.7,53.7c0-4.4,0.1-8.5-0.1-12.6c0-0.5-1-1.4-1.6-1.4c-3.6-0.1-7.1-0.1-10.7,0c-0.6,0-1.6,0.8-1.6,1.2
		c-0.1,4.3-0.1,8.5-0.1,12.9C74.4,53.7,78.8,53.7,83.7,53.7z"/>
	<path class="st0" d="M41.6,23.2c0-2.3,0-4.6,0-6.8c0.1-2.7,1.7-4.6,4.3-4.6c4.9-0.1,9.8-0.1,14.6,0c2.5,0.1,4.1,1.7,4.2,4.2
		c0.1,4.9,0.1,9.8,0,14.6c-0.1,2.7-1.8,4.3-4.6,4.4c-4.6,0.1-9.3,0.1-13.9,0c-2.8-0.1-4.6-2-4.6-4.9C41.6,27.8,41.6,25.5,41.6,23.2
		L41.6,23.2z M60.2,16.4c-4.7,0-9.2,0-13.9,0c0,4.7,0,9.1,0,13.8c4.7,0,9.2,0,13.9,0C60.2,25.6,60.2,21.1,60.2,16.4z"/>
	<path class="st0" d="M83.7,16.4c-1.7-0.1-3-0.2-4.4-0.2c0-1.4,0-2.8,0-4.3c1.9,0,3.7-0.2,5.5,0.1c2.2,0.3,3.4,2,3.4,4.1
		c0.1,4.6,0,9.2,0,14c-1.5,0-2.9,0-4.6,0C83.7,25.5,83.7,21.1,83.7,16.4z"/>
	<path class="st0" d="M50.9,52.9c0,1.4,0,2.7,0,4.4c-2,0-4.2,0.5-5.9-0.2c-1.3-0.5-3-2.2-3.1-3.5c-0.4-4.8-0.1-9.7-0.1-14.7
		c1.5,0,2.7,0,4.4,0c0,4.5,0,9.1,0,14C47.9,53,49.4,53,50.9,52.9L50.9,52.9z"/>
	<path class="st0" d="M83.8,6.8c-0.1-1-0.1-1.7-0.1-2.4c0-0.6,0.1-1.3,0.1-1.8c9.7-1.8,15.6,4.2,13.5,13.6c-0.7,0-1.4,0-2.1,0.1
		c-1.7,0.2-2.4-0.5-2.2-2.2c0.1-0.6,0-1.3,0-1.9c-0.1-3.6-1.9-5.3-5.5-5.3C86.3,6.8,85.1,6.8,83.8,6.8z"/>
	<path class="st0" d="M83.7,67.5c0-1-0.2-1.9,0.1-2.7c0.2-0.6,1-1.1,1.5-1.6c0.1-0.1,0.3,0,0.5,0c6.4-0.2,7.2-1,7.3-7.4
		c0-0.5,0.1-1.1,0.2-1.8c1.4,0,2.8,0,4.1,0C99.4,63.4,94,68.9,83.7,67.5z"/>
	<path class="st0" d="M46,2.4c0,1.5,0,2.8,0,4.2c-8.5,0.9-8.5,0.9-9.3,9.5c-1.3,0-2.6,0-4,0C30.7,7.5,35.2,0.9,46,2.4z"/>
	<path class="st0" d="M46,64c0,0.8,0,2.1,0,3.4c-7.3,1.8-15.5-1.7-13.5-13.3c1.3,0,2.6,0,3.6,0c0.7,2.6,0.6,5.8,2.2,7.4
		C39.9,63.1,43.1,63.1,46,64z"/>
	<path class="st0" d="M60,43.4c-3,0-5.9,0-9,0c0-1.5,0-2.9,0-4.3c3,0,5.9,0,9,0C60,40.4,60,41.8,60,43.4z"/>
	<path class="st0" d="M69.8,30.1c0-1.6,0-2.9,0-4.3c3,0,5.9,0,8.9,0c0,1.4,0,2.8,0,4.3C75.7,30.1,72.8,30.1,69.8,30.1z"/>
	<path class="st0" d="M74.4,16.3c-1.5,0-3,0-4.6,0c0-1.6,0-3,0-4.4c0.6-0.1,1.2-0.1,1.7-0.2c2.2-0.4,3.1,0.5,2.8,2.8
		C74.2,15.1,74.3,15.7,74.4,16.3L74.4,16.3z"/>
	<path class="st0" d="M50.9,53c0-1.4,0-2.9,0-4.5c1.5,0,2.8,0,4.4,0c0,1.4,0,2.7,0,4.4C53.8,52.9,52.4,52.9,50.9,53
		C50.9,52.9,50.9,53,50.9,53z"/>
	<path class="st0" d="M74.3,16.4c1.4,0,2.9,0,4.5,0c0,1.5,0,2.8,0,4.3c-1.5,0-2.8,0-4.4,0C74.4,19.2,74.4,17.7,74.3,16.4
		C74.4,16.3,74.3,16.4,74.3,16.4z"/>
	<path class="st0" d="M60,57.4c-1.5,0-2.7,0-4.2,0c0-1.4,0-2.7,0-4.2c1.3,0,2.6,0,4.2,0C60,54.5,60,55.9,60,57.4z"/>
	<path class="st0" d="M74.5,48.7c0-1.3,0-2.6,0-4.1c1.4,0,2.7,0,4.3,0c0,1.2,0,2.5,0,4.1C77.5,48.7,76.1,48.7,74.5,48.7z"/>
	<path class="st0" d="M55.3,21.2c0,1.5,0,2.8,0,4.2c-1.5,0-2.8,0-4.3,0c0-1.4,0-2.7,0-4.2C52.4,21.2,53.7,21.2,55.3,21.2z"/>
</g>
</svg>
