<?xml version="1.0" encoding="utf-8"?>
<!-- Generator: Adobe Illustrator 28.1.0, SVG Export Plug-In . SVG Version: 6.00 Build 0)  -->
<svg version="1.1" id="圖層_1" xmlns="http://www.w3.org/2000/svg" xmlns:xlink="http://www.w3.org/1999/xlink" x="0px" y="0px"
	 viewBox="0 0 130 70" style="enable-background:new 0 0 130 70;" xml:space="preserve">
<style type="text/css">
	.st0{fill:url(#SVGID_1_);}
	.st1{fill:url(#SVGID_00000026851117837293790270000015509437548483853987_);}
	.st2{fill:url(#SVGID_00000009568242847332016100000000514288892677744280_);}
	.st3{fill:url(#SVGID_00000075875747729796706670000007067316793036823226_);}
	.st4{fill:url(#SVGID_00000003802997677453848190000011317350841954446524_);}
	.st5{fill:url(#SVGID_00000160170948114150738180000009658244112820967832_);}
	.st6{fill:url(#SVGID_00000176747334093568985190000002048532906535788707_);}
	.st7{fill:url(#SVGID_00000150820876432856778580000013572782345294773410_);}
	.st8{fill:url(#SVGID_00000088818261537870832680000011114310173684903812_);}
	.st9{fill:url(#SVGID_00000034090493393388710750000018099606315478366640_);}
	.st10{fill:url(#SVGID_00000084498032481055452460000010140550422008834201_);}
	.st11{fill:url(#SVGID_00000004546064375034944040000018383803729579671711_);}
	.st12{fill:url(#SVGID_00000020395322476077947640000009935579747266006157_);}
	.st13{fill:url(#SVGID_00000033356729133396709310000018348474868474208430_);}
	.st14{fill:url(#SVGID_00000018223472314582968930000010182469762895284147_);}
	.st15{fill:url(#SVGID_00000077296207907490921940000007751210595608663450_);}
</style>
<g>
	<linearGradient id="SVGID_1_" gradientUnits="userSpaceOnUse" x1="45.4114" y1="16.9813" x2="98.9498" y2="67.8824">
		<stop  offset="0.2528" style="stop-color:#823E93"/>
		<stop  offset="1" style="stop-color:#5D318B"/>
	</linearGradient>
	<path class="st0" d="M88.2,46.8c0,2.3,0.1,4.6,0,6.8c-0.1,2.9-1.7,4.6-4.6,4.6c-4.6,0.1-9.3,0.1-13.9,0c-2.9,0-4.7-1.9-4.7-4.8
		c-0.1-4.6-0.1-9.1,0-13.7c0-2.7,1.6-4.6,4.2-4.7c4.9-0.2,9.8-0.2,14.6,0c2.7,0.1,4.2,2,4.3,4.7C88.3,42.1,88.2,44.5,88.2,46.8z
		 M83.7,53.7c0-4.4,0.1-8.5-0.1-12.6c0-0.5-1-1.4-1.6-1.4c-3.6-0.1-7.1-0.1-10.7,0c-0.6,0-1.6,0.8-1.6,1.2
		c-0.1,4.3-0.1,8.5-0.1,12.9C74.4,53.7,78.8,53.7,83.7,53.7z"/>
	
		<linearGradient id="SVGID_00000101066146980698304490000015837083739889307324_" gradientUnits="userSpaceOnUse" x1="46.0042" y1="16.3577" x2="99.5427" y2="67.2588">
		<stop  offset="0.2528" style="stop-color:#823E93"/>
		<stop  offset="1" style="stop-color:#5D318B"/>
	</linearGradient>
	<path style="fill:url(#SVGID_00000101066146980698304490000015837083739889307324_);" d="M41.6,23.2c0-2.3,0-4.6,0-6.8
		c0.1-2.7,1.7-4.6,4.3-4.6c4.9-0.1,9.8-0.1,14.6,0c2.5,0.1,4.1,1.7,4.2,4.2c0.1,4.9,0.1,9.8,0,14.6c-0.1,2.7-1.8,4.3-4.6,4.4
		c-4.6,0.1-9.3,0.1-13.9,0c-2.8-0.1-4.6-2-4.6-4.9C41.6,27.8,41.6,25.5,41.6,23.2C41.6,23.2,41.6,23.2,41.6,23.2z M60.2,16.4
		c-4.7,0-9.2,0-13.9,0c0,4.7,0,9.1,0,13.8c4.7,0,9.2,0,13.9,0C60.2,25.6,60.2,21.1,60.2,16.4z"/>
	
		<linearGradient id="SVGID_00000051377516525559274390000008135073883356106158_" gradientUnits="userSpaceOnUse" x1="62.1168" y1="-0.5897" x2="115.6553" y2="50.3114">
		<stop  offset="0.2528" style="stop-color:#823E93"/>
		<stop  offset="1" style="stop-color:#5D318B"/>
	</linearGradient>
	<path style="fill:url(#SVGID_00000051377516525559274390000008135073883356106158_);" d="M83.7,16.4c-1.7-0.1-3-0.2-4.4-0.2
		c0-1.4,0-2.8,0-4.3c1.9,0,3.7-0.2,5.5,0.1c2.2,0.3,3.4,2,3.4,4.1c0.1,4.6,0,9.2,0,14c-1.5,0-2.9,0-4.6,0
		C83.7,25.5,83.7,21.1,83.7,16.4z"/>
	
		<linearGradient id="SVGID_00000167363326843706187690000018277898394627101345_" gradientUnits="userSpaceOnUse" x1="29.7857" y1="33.4165" x2="83.3242" y2="84.3176">
		<stop  offset="0.2528" style="stop-color:#823E93"/>
		<stop  offset="1" style="stop-color:#5D318B"/>
	</linearGradient>
	<path style="fill:url(#SVGID_00000167363326843706187690000018277898394627101345_);" d="M50.9,52.9c0,1.4,0,2.7,0,4.4
		c-2,0-4.2,0.5-5.9-0.2c-1.3-0.5-3-2.2-3.1-3.5c-0.4-4.8-0.1-9.7-0.1-14.7c1.5,0,2.7,0,4.4,0c0,4.5,0,9.1,0,14
		C47.9,53,49.4,53,50.9,52.9L50.9,52.9z"/>
	
		<linearGradient id="SVGID_00000007410014763248308510000015143807234166381239_" gradientUnits="userSpaceOnUse" x1="71.801" y1="-10.7757" x2="125.3394" y2="40.1254">
		<stop  offset="0.2528" style="stop-color:#823E93"/>
		<stop  offset="1" style="stop-color:#5D318B"/>
	</linearGradient>
	<path style="fill:url(#SVGID_00000007410014763248308510000015143807234166381239_);" d="M83.8,6.8c-0.1-1-0.1-1.7-0.1-2.4
		c0-0.6,0.1-1.3,0.1-1.8c9.7-1.8,15.6,4.2,13.5,13.6c-0.7,0-1.4,0-2.1,0.1c-1.7,0.2-2.4-0.5-2.2-2.2c0.1-0.6,0-1.3,0-1.9
		c-0.1-3.6-1.9-5.3-5.5-5.3C86.3,6.8,85.1,6.8,83.8,6.8z"/>
	
		<linearGradient id="SVGID_00000029043120462194546130000007424579218150402474_" gradientUnits="userSpaceOnUse" x1="44.9597" y1="17.4563" x2="98.4982" y2="68.3574">
		<stop  offset="0.2528" style="stop-color:#823E93"/>
		<stop  offset="1" style="stop-color:#5D318B"/>
	</linearGradient>
	<path style="fill:url(#SVGID_00000029043120462194546130000007424579218150402474_);" d="M83.7,67.5c0-1-0.2-1.9,0.1-2.7
		c0.2-0.6,1-1.1,1.5-1.6c0.1-0.1,0.3,0,0.5,0c6.4-0.2,7.2-1,7.3-7.4c0-0.5,0.1-1.1,0.2-1.8c1.4,0,2.8,0,4.1,0
		C99.4,63.4,94,68.9,83.7,67.5z"/>
	
		<linearGradient id="SVGID_00000152257484167824639060000003940788003923113102_" gradientUnits="userSpaceOnUse" x1="46.4044" y1="15.9367" x2="99.9429" y2="66.8378">
		<stop  offset="0.2528" style="stop-color:#823E93"/>
		<stop  offset="1" style="stop-color:#5D318B"/>
	</linearGradient>
	<path style="fill:url(#SVGID_00000152257484167824639060000003940788003923113102_);" d="M46,2.4c0,1.5,0,2.8,0,4.2
		c-8.5,0.9-8.5,0.9-9.3,9.5c-1.3,0-2.6,0-4,0C30.7,7.5,35.2,0.9,46,2.4z"/>
	
		<linearGradient id="SVGID_00000152252782044033501810000009022827787695418518_" gradientUnits="userSpaceOnUse" x1="19.504" y1="44.231" x2="73.0424" y2="95.1321">
		<stop  offset="0.2528" style="stop-color:#823E93"/>
		<stop  offset="1" style="stop-color:#5D318B"/>
	</linearGradient>
	<path style="fill:url(#SVGID_00000152252782044033501810000009022827787695418518_);" d="M46,64c0,0.8,0,2.1,0,3.4
		c-7.3,1.8-15.5-1.7-13.5-13.3c1.3,0,2.6,0,3.6,0c0.7,2.6,0.6,5.8,2.2,7.4C39.9,63.1,43.1,63.1,46,64z"/>
	
		<linearGradient id="SVGID_00000132771370778730899710000006829623952601968281_" gradientUnits="userSpaceOnUse" x1="38.127" y1="24.6431" x2="91.6654" y2="75.5442">
		<stop  offset="0.2528" style="stop-color:#823E93"/>
		<stop  offset="1" style="stop-color:#5D318B"/>
	</linearGradient>
	<path style="fill:url(#SVGID_00000132771370778730899710000006829623952601968281_);" d="M60,43.4c-3,0-5.9,0-9,0
		c0-1.5,0-2.9,0-4.3c3,0,5.9,0,9,0C60,40.4,60,41.8,60,43.4z"/>
	
		<linearGradient id="SVGID_00000066478481853827837820000002205569481289794990_" gradientUnits="userSpaceOnUse" x1="53.6252" y1="8.3419" x2="107.1636" y2="59.243">
		<stop  offset="0.2528" style="stop-color:#823E93"/>
		<stop  offset="1" style="stop-color:#5D318B"/>
	</linearGradient>
	<path style="fill:url(#SVGID_00000066478481853827837820000002205569481289794990_);" d="M69.8,30.1c0-1.6,0-2.9,0-4.3
		c3,0,5.9,0,8.9,0c0,1.4,0,2.8,0,4.3C75.7,30.1,72.8,30.1,69.8,30.1z"/>
	
		<linearGradient id="SVGID_00000131358285904131271460000012133946918317081748_" gradientUnits="userSpaceOnUse" x1="59.3204" y1="2.3515" x2="112.8589" y2="53.2526">
		<stop  offset="0.2528" style="stop-color:#823E93"/>
		<stop  offset="1" style="stop-color:#5D318B"/>
	</linearGradient>
	<path style="fill:url(#SVGID_00000131358285904131271460000012133946918317081748_);" d="M74.4,16.3c-1.5,0-3,0-4.6,0
		c0-1.6,0-3,0-4.4c0.6-0.1,1.2-0.1,1.7-0.2c2.2-0.4,3.1,0.5,2.8,2.8C74.2,15.1,74.3,15.7,74.4,16.3L74.4,16.3z"/>
	
		<linearGradient id="SVGID_00000023241042686207634460000005818115728407509407_" gradientUnits="userSpaceOnUse" x1="32.2092" y1="30.8675" x2="85.7477" y2="81.7686">
		<stop  offset="0.2528" style="stop-color:#823E93"/>
		<stop  offset="1" style="stop-color:#5D318B"/>
	</linearGradient>
	<path style="fill:url(#SVGID_00000023241042686207634460000005818115728407509407_);" d="M50.9,53c0-1.4,0-2.9,0-4.5
		c1.5,0,2.8,0,4.4,0c0,1.4,0,2.7,0,4.4C53.8,52.9,52.4,52.9,50.9,53C50.9,52.9,50.9,53,50.9,53z"/>
	
		<linearGradient id="SVGID_00000017500893103304801790000002452391198402901896_" gradientUnits="userSpaceOnUse" x1="59.4368" y1="2.2292" x2="112.9752" y2="53.1303">
		<stop  offset="0.2528" style="stop-color:#823E93"/>
		<stop  offset="1" style="stop-color:#5D318B"/>
	</linearGradient>
	<path style="fill:url(#SVGID_00000017500893103304801790000002452391198402901896_);" d="M74.3,16.4c1.4,0,2.9,0,4.5,0
		c0,1.5,0,2.8,0,4.3c-1.5,0-2.8,0-4.4,0C74.4,19.2,74.4,17.7,74.3,16.4C74.4,16.3,74.3,16.4,74.3,16.4z"/>
	
		<linearGradient id="SVGID_00000117675296530583695230000014884573324248602302_" gradientUnits="userSpaceOnUse" x1="32.2523" y1="30.8221" x2="85.7908" y2="81.7232">
		<stop  offset="0.2528" style="stop-color:#823E93"/>
		<stop  offset="1" style="stop-color:#5D318B"/>
	</linearGradient>
	<path style="fill:url(#SVGID_00000117675296530583695230000014884573324248602302_);" d="M60,57.4c-1.5,0-2.7,0-4.2,0
		c0-1.4,0-2.7,0-4.2c1.3,0,2.6,0,4.2,0C60,54.5,60,55.9,60,57.4z"/>
	
		<linearGradient id="SVGID_00000160894756044413754210000003009080262170377650_" gradientUnits="userSpaceOnUse" x1="45.3786" y1="17.0157" x2="98.917" y2="67.9168">
		<stop  offset="0.2528" style="stop-color:#823E93"/>
		<stop  offset="1" style="stop-color:#5D318B"/>
	</linearGradient>
	<path style="fill:url(#SVGID_00000160894756044413754210000003009080262170377650_);" d="M74.5,48.7c0-1.3,0-2.6,0-4.1
		c1.4,0,2.7,0,4.3,0c0,1.2,0,2.5,0,4.1C77.5,48.7,76.1,48.7,74.5,48.7z"/>
	
		<linearGradient id="SVGID_00000104674654959247605240000010853586027262679950_" gradientUnits="userSpaceOnUse" x1="45.9214" y1="16.4448" x2="99.4599" y2="67.3459">
		<stop  offset="0.2528" style="stop-color:#823E93"/>
		<stop  offset="1" style="stop-color:#5D318B"/>
	</linearGradient>
	<path style="fill:url(#SVGID_00000104674654959247605240000010853586027262679950_);" d="M55.3,21.2c0,1.5,0,2.8,0,4.2
		c-1.5,0-2.8,0-4.3,0c0-1.4,0-2.7,0-4.2C52.4,21.2,53.7,21.2,55.3,21.2z"/>
</g>
</svg>
