<?xml version="1.0" encoding="utf-8"?>
<!-- Generator: Adobe Illustrator 28.1.0, SVG Export Plug-In . SVG Version: 6.00 Build 0)  -->
<svg version="1.1" id="圖層_1" xmlns="http://www.w3.org/2000/svg" xmlns:xlink="http://www.w3.org/1999/xlink" x="0px" y="0px"
	 viewBox="0 0 130 70" style="enable-background:new 0 0 130 70;" xml:space="preserve">
<style type="text/css">
	.st0{fill:#FFFFFF;}
</style>
<g>
	<path class="st0" d="M90.7,8.3H39.3c-5.2,0-9.4,4.2-9.4,9.4v34.7c0,5.2,4.2,9.4,9.4,9.4h51.4c5.2,0,9.4-4.2,9.4-9.4V17.7
		C100.2,12.5,95.9,8.3,90.7,8.3z M95.6,52.4c0,2.7-2.2,4.8-4.8,4.8H39.4c-2.7,0-4.8-2.2-4.8-4.8V17.7c0-2.7,2.2-4.8,4.8-4.8h51.4
		c2.7,0,4.8,2.2,4.8,4.8C95.6,17.7,95.6,52.4,95.6,52.4z"/>
	<path class="st0" d="M90.3,30.3H39.1c-1.6,0-2.8,0.9-2.8,2c0,1.1,1.2,2,2.8,2h51.2c1.6,0,2.8-0.9,2.8-2
		C93.1,31.2,91.8,30.3,90.3,30.3z"/>
	<path class="st0" d="M45.6,47.7h-3.3l0,0c-1.1,0-2,0.6-2,1.4c0,0.8,0.9,1.4,2,1.5h3.3l0,0c1.1,0,2-0.6,2-1.4
		C47.6,48.3,46.7,47.7,45.6,47.7z"/>
	<path class="st0" d="M59,47.7h-3.3l0,0c-1.1,0-2,0.6-2,1.4c0,0.8,0.9,1.4,2,1.5H59l0,0c1.1,0,2-0.6,2-1.4
		C61.1,48.3,60.1,47.7,59,47.7z"/>
	<path class="st0" d="M73.7,47.8h-3.3l0,0c-1.1,0-2,0.6-2,1.4c0,0.8,0.9,1.4,2,1.5h3.3l0,0c1.1,0,2-0.6,2-1.4
		C75.7,48.4,74.8,47.8,73.7,47.8z"/>
	<path class="st0" d="M88.1,47.8h-3.3l0,0c-1.1,0-2,0.6-2,1.4c0,0.8,0.9,1.4,2,1.5h3.3l0,0c1.1,0,2-0.6,2-1.4
		C90.1,48.4,89.2,47.8,88.1,47.8z"/>
	<path class="st0" d="M81.8,26.6h3.9c2.8,0,5.2-2.3,5.2-5.2V21c0-2.8-2.3-5.2-5.2-5.2h-3.9c-2.8,0-5.2,2.3-5.2,5.2v0.4
		C76.6,24.3,79,26.6,81.8,26.6z M79.3,20.9c0-1.4,1.1-2.5,2.5-2.5h3.9c1.4,0,2.5,1.1,2.5,2.5v0.4c0,1.4-1.1,2.5-2.5,2.5h-3.9
		c-1.4,0-2.5-1.1-2.5-2.5V20.9z"/>
</g>
</svg>
