<?xml version="1.0" encoding="utf-8"?>
<!-- Generator: Adobe Illustrator 28.1.0, SVG Export Plug-In . SVG Version: 6.00 Build 0)  -->
<svg version="1.1" id="圖層_1" xmlns="http://www.w3.org/2000/svg" xmlns:xlink="http://www.w3.org/1999/xlink" x="0px" y="0px"
	 viewBox="0 0 130 70" style="enable-background:new 0 0 130 70;" xml:space="preserve">
<style type="text/css">
	.st0{fill:url(#SVGID_1_);}
</style>
<g>
	<linearGradient id="SVGID_1_" gradientUnits="userSpaceOnUse" x1="45.9496" y1="22.1701" x2="97.6419" y2="56.9833">
		<stop  offset="0.2528" style="stop-color:#823E93"/>
		<stop  offset="1" style="stop-color:#5D318B"/>
	</linearGradient>
	<path class="st0" d="M65,5.6c16.2,0,29.4,13.2,29.4,29.4c0,16.2-13.2,29.4-29.4,29.4c-16.2,0-29.4-13.2-29.4-29.4
		C35.6,18.8,48.8,5.6,65,5.6 M64.6,45c-2.2,0-4.3-0.9-6.7-2.8l-3,4.7c2.3,2,5.5,3.3,8.3,3.6v4.7h4.6v-4.9c4.8-1,7.3-4.5,7.3-9
		c0-9-12.5-8.6-12.5-13.1c0-2.1,1.2-3,3.5-3c2,0,3.4,0.8,5.1,2.4l3.5-4c-1.8-1.9-4-3.4-7-3.8v-4.8h-4.6v4.9
		c-4.4,0.9-7.2,4.1-7.2,8.7c0,8.5,12.5,8.4,12.5,13.3C68.5,43.8,67.3,45,64.6,45 M65,0.8C46.2,0.8,30.8,16.2,30.8,35
		S46.2,69.2,65,69.2S99.2,53.8,99.2,35S83.8,0.8,65,0.8L65,0.8z"/>
</g>
</svg>
