<?xml version="1.0" encoding="utf-8"?>
<!-- Generator: Adobe Illustrator 28.1.0, SVG Export Plug-In . SVG Version: 6.00 Build 0)  -->
<svg version="1.1" id="圖層_1" xmlns="http://www.w3.org/2000/svg" xmlns:xlink="http://www.w3.org/1999/xlink" x="0px" y="0px"
	 viewBox="0 0 130 70" style="enable-background:new 0 0 130 70;" xml:space="preserve">
<style type="text/css">
	.st0{fill:url(#SVGID_1_);}
	.st1{fill:url(#SVGID_00000117637464788855904920000018293200500474999997_);}
	.st2{fill:url(#SVGID_00000027584898290243285170000012591178717788541105_);}
	.st3{fill:url(#SVGID_00000002348711602765190370000005241544193776056707_);}
	.st4{fill:url(#SVGID_00000075150719637738421900000002128535040091338629_);}
	.st5{fill:url(#SVGID_00000029729934441081958680000012463165310352945799_);}
	.st6{fill:url(#SVGID_00000116195624655503418680000004171257141693171114_);}
	.st7{fill:url(#SVGID_00000165940091610029138030000010562024936055893947_);}
</style>
<g>
	
		<linearGradient id="SVGID_1_" gradientUnits="userSpaceOnUse" x1="49.8321" y1="62.1224" x2="109.6915" y2="9.0555" gradientTransform="matrix(1 0 0 -1 0 72.9)">
		<stop  offset="0.2528" style="stop-color:#823E93"/>
		<stop  offset="1" style="stop-color:#5D318B"/>
	</linearGradient>
	<path class="st0" d="M101.2,13.1h-44c-4.8,0-8.8,4-8.8,8.8v29.7c0,4.8,4,8.8,8.8,8.8h44c4.8,0,8.8-4,8.8-8.8V21.9
		C110,17.1,106,13.1,101.2,13.1z M104.6,51.5c0,1.9-1.5,3.4-3.4,3.4h-44c-1.9,0-3.4-1.5-3.4-3.4V21.9c0-1.9,1.5-3.4,3.4-3.4h44
		c1.9,0,3.4,1.5,3.4,3.4V51.5z"/>
	
		<linearGradient id="SVGID_00000106114556177422149870000016128791579893079723_" gradientUnits="userSpaceOnUse" x1="35.9588" y1="46.4733" x2="95.8182" y2="-6.5936" gradientTransform="matrix(1 0 0 -1 0 72.9)">
		<stop  offset="0.2528" style="stop-color:#823E93"/>
		<stop  offset="1" style="stop-color:#5D318B"/>
	</linearGradient>
	<path style="fill:url(#SVGID_00000106114556177422149870000016128791579893079723_);" d="M62.5,47.6h-2.8l0,0c-1,0-1.7,0.5-1.7,1.2
		c0,0.6,0.8,1.2,1.7,1.2h2.8l0,0c1,0,1.7-0.5,1.7-1.2C64.3,48.1,63.5,47.6,62.5,47.6z"/>
	
		<linearGradient id="SVGID_00000054956920604224268650000011256572005734496430_" gradientUnits="userSpaceOnUse" x1="41.0119" y1="52.1731" x2="100.8713" y2="-0.8938" gradientTransform="matrix(1 0 0 -1 0 72.9)">
		<stop  offset="0.2528" style="stop-color:#823E93"/>
		<stop  offset="1" style="stop-color:#5D318B"/>
	</linearGradient>
	<path style="fill:url(#SVGID_00000054956920604224268650000011256572005734496430_);" d="M74,47.6h-2.8l0,0c-1,0-1.7,0.5-1.7,1.2
		c0,0.6,0.8,1.2,1.7,1.2H74l0,0c1,0,1.7-0.5,1.7-1.2C75.7,48.1,75,47.6,74,47.6z"/>
	
		<linearGradient id="SVGID_00000100362875033372360180000007053579775536721593_" gradientUnits="userSpaceOnUse" x1="46.5372" y1="58.4056" x2="106.3965" y2="5.3388" gradientTransform="matrix(1 0 0 -1 0 72.9)">
		<stop  offset="0.2528" style="stop-color:#823E93"/>
		<stop  offset="1" style="stop-color:#5D318B"/>
	</linearGradient>
	<path style="fill:url(#SVGID_00000100362875033372360180000007053579775536721593_);" d="M86.6,47.6h-2.8l0,0c-1,0-1.7,0.5-1.7,1.2
		c0,0.6,0.8,1.2,1.7,1.2h2.8l0,0c1,0,1.7-0.5,1.7-1.2C88.3,48.1,87.5,47.6,86.6,47.6z"/>
	
		<linearGradient id="SVGID_00000087403314445442581450000017584374788716098948_" gradientUnits="userSpaceOnUse" x1="51.9508" y1="64.5123" x2="111.8102" y2="11.4454" gradientTransform="matrix(1 0 0 -1 0 72.9)">
		<stop  offset="0.2528" style="stop-color:#823E93"/>
		<stop  offset="1" style="stop-color:#5D318B"/>
	</linearGradient>
	<path style="fill:url(#SVGID_00000087403314445442581450000017584374788716098948_);" d="M98.9,47.6h-2.8l0,0c-1,0-1.7,0.5-1.7,1.2
		c0,0.6,0.8,1.2,1.7,1.2h2.8l0,0c1,0,1.7-0.5,1.7-1.2C100.5,48.1,99.8,47.6,98.9,47.6z"/>
	
		<linearGradient id="SVGID_00000155115525715348506900000004251132640982598288_" gradientUnits="userSpaceOnUse" x1="25.6014" y1="34.7901" x2="85.4609" y2="-18.2767" gradientTransform="matrix(1 0 0 -1 0 72.9)">
		<stop  offset="0.2528" style="stop-color:#823E93"/>
		<stop  offset="1" style="stop-color:#5D318B"/>
	</linearGradient>
	<path style="fill:url(#SVGID_00000155115525715348506900000004251132640982598288_);" d="M24.5,52c-0.4-0.4-0.9-0.8-1.3-1.2
		c-5.6-6.7-7-14.2-4-22.9c1.1-3.1,2.9-5.8,5.6-8c1.2-1.1,1.4-2.7,0.4-3.9c-1-1.2-2.6-1.3-4-0.2c-0.2,0.1-0.4,0.2-0.5,0.4
		c-5.2,4.8-8.2,11.4-8.3,18.4l0,0c0,4.3,0.4,7.5,1.5,10.6c1.5,4.5,4.1,8.3,7.5,11.2c0.6,0.5,1.3,0.9,2,0.9c0.1,0,0.1,0,0.2,0
		c0.6-0.1,1.3-0.4,1.7-1c1-1.2,0.8-2.7-0.5-3.9L24.5,52z"/>
	
		<linearGradient id="SVGID_00000026872776183452580600000004904371192225455546_" gradientUnits="userSpaceOnUse" x1="30.8924" y1="40.7583" x2="90.7517" y2="-12.3086" gradientTransform="matrix(1 0 0 -1 0 72.9)">
		<stop  offset="0.2528" style="stop-color:#823E93"/>
		<stop  offset="1" style="stop-color:#5D318B"/>
	</linearGradient>
	<path style="fill:url(#SVGID_00000026872776183452580600000004904371192225455546_);" d="M36.9,49.3c-4.3-3.1-6.8-7.9-6.8-13
		c0-5.2,2.4-9.9,6.7-13.1c1.5-1.1,1.8-2.7,1-4c-0.4-0.6-1-1-1.7-1.1c-0.8-0.1-1.6,0.1-2.4,0.8c-5.6,4.2-8.6,9.9-8.8,16.5l0,0
		c0.1,6.1,1.8,11.1,5.4,15c1.1,1.3,2.4,2.3,4,3.5c0.5,0.3,1.1,0.5,1.6,0.5c0.3,0,0.6-0.1,1-0.2c0.9-0.3,1.5-1.1,1.6-2
		C38.6,50.5,37.3,49.6,36.9,49.3z"/>
	
		<linearGradient id="SVGID_00000124856693549448319920000000664650158761195709_" gradientUnits="userSpaceOnUse" x1="57.7207" y1="71.0205" x2="117.58" y2="17.9537" gradientTransform="matrix(1 0 0 -1 0 72.9)">
		<stop  offset="0.2528" style="stop-color:#823E93"/>
		<stop  offset="1" style="stop-color:#5D318B"/>
	</linearGradient>
	<path style="fill:url(#SVGID_00000124856693549448319920000000664650158761195709_);" d="M96.9,30h-3.4c-2.7,0-4.9,2.1-4.9,4.9v0.3
		c0,2.7,2.1,4.9,4.9,4.9h3.4c2.7,0,4.9-2.1,4.9-4.9v-0.3C101.8,32.1,99.6,30,96.9,30z M98.6,35.1c0,1-0.8,1.7-1.7,1.7h-3.4
		c-1,0-1.7-0.8-1.7-1.7v-0.3c0-1,0.8-1.7,1.7-1.7h3.4c1,0,1.7,0.8,1.7,1.7V35.1z"/>
</g>
</svg>
