<?xml version="1.0" encoding="utf-8"?>
<!-- Generator: Adobe Illustrator 28.1.0, SVG Export Plug-In . SVG Version: 6.00 Build 0)  -->
<svg version="1.1" id="圖層_1" xmlns="http://www.w3.org/2000/svg" xmlns:xlink="http://www.w3.org/1999/xlink" x="0px" y="0px"
	 viewBox="0 0 130 70" style="enable-background:new 0 0 130 70;" xml:space="preserve">
<style type="text/css">
	.st0{fill:#FFFFFF;}
</style>
<g>
	<path class="st0" d="M91.8,27.1c-0.7-3.3-2.7-6.2-5.4-8.1c-2.8-1.9-6.1-2.7-9.5-2.3c-6.3,0.9-11.2,6.1-11.6,12.6
		c-0.4,6.4,3.8,12.2,10,13.7c0.9,0.2,1.9,0.3,2.8,0.4h0.1c0.1,0,0.3,0,0.4,0v15.5c0,2.7-1.5,4.1-4.1,4.1c-8.5,0-17.2,0-26,0
		c-2.7,0-4.1-1.5-4.1-4.2V16.4c0-2.8,0-5.8,0-8.6c0-2.1,1.5-3.7,3.6-3.8c0.2,0.7,0.4,1.4,0.6,2.1l0.2,0.8c0.7,2.5,2.5,3.9,5.1,3.9
		c4.7,0,9.6,0,15.2,0c2.5,0,4.4-1.4,5.1-3.9l0.2-0.7l-0.5-0.1l0,0h0.5C74.6,5.4,74.8,4.7,75,4c2.1,0.1,3.6,1.7,3.6,3.8
		c0,1.3,0,2.5,0,3.8V14c0,1.4,0.8,2.4,2.1,2.4c0.6,0,1.1-0.2,1.5-0.6s0.7-1,0.7-1.8v-2.4c0-1.2,0-2.4,0-3.5c0-2.3-0.8-4.4-2.3-5.9
		s-3.5-2.3-5.8-2.3c-9.4,0-18,0-26.4,0c-0.7,0-1.3,0.1-1.8,0.2c-3.7,0.8-6.2,3.9-6.2,7.8c0,18.2,0,35.1,0,51.4c0,4.5,3.4,7.9,8,7.9
		c4.1,0,8.1,0,12.2,0h14.1c2.4,0,4.4-0.8,5.9-2.3s2.3-3.5,2.3-5.9c0-5.3,0-10.8,0-16.1v-0.1l0,0c3.2-1,5.9-3.2,7.6-6.1
		C92,33.8,92.5,30.3,91.8,27.1z M87.9,30c0,5.1-4.2,9.2-9.3,9.2c-5.1,0-9.3-4.2-9.3-9.3c0-2.5,1-4.8,2.7-6.5
		c1.8-1.8,4.1-2.7,6.6-2.7C83.8,20.7,87.9,24.9,87.9,30z M56.7,6.7c-0.9,0-1.9,0-2.8,0c-0.8,0-1-0.2-1.2-0.9l-0.5-1.7h18.3
		c-0.2,0.8-0.4,1.5-0.7,2.2c0,0.1-0.1,0.4-1,0.4c-1.7,0-3.4,0-5.1,0L56.7,6.7z M56.7,7.2L56.7,7.2L56.7,7.2L56.7,7.2z"/>
	<path class="st0" d="M61.5,17.8c0.7-0.6,0.9-1.6,0.3-2.3c-0.6-0.7-1.6-0.8-2.4-0.1c-0.1,0.1-0.3,0.2-0.4,0.3
		c-3.7,3.5-5.8,8.1-5.9,13.1l0,0c0,3.1,0.3,5.4,1.1,7.6c1.1,3.2,2.9,5.9,5.4,8c0.4,0.3,0.8,0.5,1.2,0.5h0.1c0.4,0,0.8-0.2,1-0.6
		c0.6-0.7,0.4-1.6-0.3-2.3c-0.1-0.1-0.2-0.2-0.3-0.3c-0.3-0.3-0.7-0.6-0.9-0.9c-4.1-4.9-5.1-10.6-3-17
		C58.2,21.6,59.6,19.5,61.5,17.8z"/>
	<path class="st0" d="M66.1,42.6c0.3,0.2,0.6,0.3,1,0.3c0.2,0,0.4,0,0.5-0.1c0.5-0.2,0.9-0.6,1-1.2c0.2-0.9-0.4-1.4-0.9-1.8
		c-3.2-2.4-5.1-5.9-5.1-9.8s1.8-7.5,5-9.8c0.9-0.7,1.2-1.6,0.6-2.4c-0.3-0.4-0.6-0.6-1-0.6c-0.5-0.1-1,0.1-1.5,0.5
		c-4,3-6.1,7-6.3,11.7l0,0l0,0c0,4.4,1.3,7.9,3.8,10.7C64.1,41,65,41.7,66.1,42.6z"/>
	<path class="st0" d="M81.5,28.4c-0.4,0-0.8,0-1.1,0h-0.1v-3.1H81c0,0.3,0,0.5,0,0.7c0,0.9,0.7,1.6,1.6,1.6l0,0
		c0.9,0,1.5-0.7,1.6-1.6c0-0.5,0-0.9,0-1.4v-0.1c-0.1-1.5-1-2.5-2.5-2.5c-0.4,0-0.8,0-1.2,0c-0.1,0-0.1,0-0.2,0
		c-0.1-0.5-0.5-1.3-1.5-1.3c-0.9,0-1.3,0.5-1.7,1.3c-0.1,0-0.1,0-0.2,0c-0.4,0-0.8,0-1.1,0c-1.6,0-2.6,1-2.6,2.6c0,1.4,0,2.8,0,4.3
		c0,1.6,1,2.6,2.6,2.6c0.4,0,0.7,0,1.1,0H77v3.1h-0.7c0-0.2,0-0.5,0-0.7c0-1-0.6-1.6-1.5-1.6s-1.6,0.6-1.6,1.6c0,0.4,0,0.8,0,1.3
		c0,1.6,1.1,2.6,2.7,2.7c0.4,0,0.8,0,1.1,0c0.1,0,0.1,0,0.2,0c0.2,0.7,0.6,1.3,1.5,1.3h0.1c0.8,0,1.2-0.5,1.6-1.3c0.1,0,0.1,0,0.2,0
		c0.4,0,0.7,0,1.1,0c1.6,0,2.6-1.1,2.6-2.7c0-1.4,0-2.7,0-4.1C84.2,29.4,83.2,28.4,81.5,28.4z M81,32.4c0,0.8,0,1.5,0,2.3h-0.7v-3.1
		c0.3,0,0.6-0.1,0.7,0C81,31.7,81,32.1,81,32.4z M77.1,28.3C77.1,28.4,77.1,28.4,77.1,28.3c-0.3,0.1-0.6,0.1-0.7,0.1
		c-0.1-0.1-0.1-0.6-0.1-0.9v-2.2h0.8v0.4C77.1,26.6,77.1,27.5,77.1,28.3z"/>
</g>
</svg>
