<?xml version="1.0" encoding="utf-8"?>
<!-- Generator: Adobe Illustrator 28.1.0, SVG Export Plug-In . SVG Version: 6.00 Build 0)  -->
<svg version="1.1" id="圖層_1" xmlns="http://www.w3.org/2000/svg" xmlns:xlink="http://www.w3.org/1999/xlink" x="0px" y="0px"
	 viewBox="0 0 130 70" style="enable-background:new 0 0 130 70;" xml:space="preserve">
<style type="text/css">
	.st0{fill:#FFFFFF;}
</style>
<g>
	<path class="st0" d="M80,1.6C80,1.6,79.9,1.6,80,1.6c-3,0-5.9,0-8.8,0.1c-2,0-4,0-6,0h-1.9c-4.2,0-8.5,0.1-12.8,0.1
		c-2.1,0-3.6,1.1-4.6,3.3l-0.1,0.1v0.1c0,0.1,0,0.2-0.1,0.3c-0.1,0.3-0.1,0.8-0.1,1.2c0,2.5,0,5.1,0,7.6v36.7c0,4.1,0,8.2,0,12.3
		c0,1.4,0.5,2.6,1.4,3.5c0.9,0.9,2.1,1.3,3.3,1.3l0,0c10-0.1,20-0.1,29.6-0.2c3,0,5-2,5-5.1c0-3.7,0-7.4,0-11.1v-9.6
		c0-11.9,0-23.8,0-35.7c0-1.5-0.5-2.8-1.4-3.7C82.8,2.1,81.5,1.6,80,1.6z M81.7,32.4c0,5.2,0,10.4,0,15.5v1.8c0,4.4,0,8.9,0,13.3
		c0,1.3-0.4,1.8-1.8,1.8c-9.1,0.1-18.7,0.1-29.3,0.2c-0.4,0-0.8-0.1-1.2-0.4c-0.3-0.3-0.4-0.8-0.4-1.1c0-7.9,0-15.7,0-23.6V25.2
		c0-6,0-12,0-18.1c0-1.4,0.5-1.9,1.8-2c9.2,0,18.4,0,27.3-0.1h2.1l0,0c0.2,0,0.3,0,0.5,0l0,0c0.7,0.3,1,0.8,1,1.6c0,2,0,4,0,6.1
		c0,1.6,0,3.2,0,4.8C81.7,22.5,81.7,27.4,81.7,32.4z"/>
	<path class="st0" d="M57.3,43.6c0,0.8,0.5,1.3,1.2,1.3c1.2,0,2.5,0,3.7,0c0.7,0,1.2-0.4,1.2-1.2c0-1.3,0-2.6,0-3.9
		c0-0.7-0.5-1.1-1.1-1.1c-1.3,0-2.6,0-3.9,0c-0.7,0-1.1,0.5-1.1,1.2c0,0.6,0,1.2,0,1.8l0,0C57.3,42.4,57.3,43,57.3,43.6z M58.5,40
		c1.2,0,2.4,0,3.7,0c0,1.2,0,2.4,0,3.7c-1.2,0-2.4,0-3.7,0C58.5,42.4,58.5,41.2,58.5,40z"/>
	<path class="st0" d="M61.1,40.6h-1.7c-0.2,0-0.3,0.2-0.3,0.3v1.7c0,0.2,0.2,0.3,0.3,0.3h1.7c0.2,0,0.3-0.2,0.3-0.3v-1.7
		C61.5,40.8,61.3,40.6,61.1,40.6z"/>
	<path class="st0" d="M62.3,48.3c-1.3,0-2.6,0-3.9,0c-0.7,0-1.1,0.5-1.1,1.2c0,0.6,0,1.2,0,1.8l0,0c0,0.6,0,1.2,0,1.8
		c0,0.8,0.5,1.3,1.2,1.3c1.2,0,2.5,0,3.7,0c0.7,0,1.2-0.4,1.2-1.2c0-1.3,0-2.6,0-3.9C63.4,48.7,62.9,48.3,62.3,48.3z M62.2,53.2
		c-1.2,0-2.4,0-3.7,0c0-1.2,0-2.4,0-3.7c1.2,0,2.4,0,3.7,0C62.2,50.7,62.2,51.9,62.2,53.2z"/>
	<path class="st0" d="M59.4,52.6h1.7c0.2,0,0.3-0.2,0.3-0.3v-1.7c0-0.2-0.2-0.3-0.3-0.3h-1.7c-0.2,0-0.3,0.2-0.3,0.3v1.7
		C59,52.4,59.2,52.6,59.4,52.6z"/>
	<path class="st0" d="M69,48.8c0.3,0,0.6-0.3,0.6-0.6v-0.9c0-0.3-0.3-0.6-0.6-0.6h-1.2c-0.3,0-0.6,0.3-0.6,0.6v0.9
		c0,0.3,0.3,0.6,0.6,0.6H69z"/>
	<path class="st0" d="M72.8,52h-1.2c-0.3,0-0.6,0.3-0.6,0.6v1.2c0,0.3,0.3,0.6,0.6,0.6h1.2c0.3,0,0.6-0.3,0.6-0.6v-1.2
		C73.4,52.2,73.2,52,72.8,52z"/>
	<path class="st0" d="M67.3,43.6c0,0.8,0.5,1.3,1.2,1.3c1.2,0,2.5,0,3.7,0c0.7,0,1.2-0.4,1.2-1.2c0-1.3,0-2.6,0-3.9
		c0-0.7-0.5-1.1-1.1-1.1c-1.3,0-2.6,0-3.9,0c-0.7,0-1.1,0.5-1.1,1.2c0,0.6,0,1.2,0,1.8l0,0C67.3,42.4,67.3,43,67.3,43.6z M68.5,40
		c1.2,0,2.4,0,3.7,0c0,1.2,0,2.4,0,3.7c-1.2,0-2.4,0-3.7,0C68.5,42.4,68.5,41.2,68.5,40z"/>
	<path class="st0" d="M71.1,40.7h-1.7c-0.2,0-0.3,0.2-0.3,0.3v1.7c0,0.2,0.2,0.3,0.3,0.3h1.7c0.2,0,0.3-0.2,0.3-0.3V41
		C71.5,40.8,71.3,40.7,71.1,40.7z"/>
	<path class="st0" d="M62.5,7.5h5.8c0.4,0,0.6-0.3,0.6-0.7c0-0.4-0.3-0.6-0.7-0.6h-5.8c-0.4,0-0.6,0.3-0.6,0.7
		C61.9,7.2,62.2,7.5,62.5,7.5z"/>
	<path class="st0" d="M55.6,23.6v-7c0-0.4-0.3-0.6-0.6-0.6h-2.3c-0.4,0-0.6,0.3-0.6,0.6v7c0,0.4,0.3,0.6,0.6,0.6H55
		C55.3,24.3,55.6,24,55.6,23.6z"/>
	<path class="st0" d="M69.8,24.3h2.3c0.4,0,0.6-0.3,0.6-0.6v-7c0-0.4-0.3-0.6-0.6-0.6h-2.3c-0.4,0-0.6,0.3-0.6,0.6v7
		C69.1,24,69.4,24.3,69.8,24.3z"/>
	<path class="st0" d="M57.2,24.3h1.6c0.4,0,0.6-0.3,0.6-0.6v-7c0-0.4-0.3-0.6-0.6-0.6h-1.6c-0.4,0-0.6,0.3-0.6,0.6v7
		C56.6,24,56.9,24.3,57.2,24.3z"/>
	<path class="st0" d="M61.1,24.3h0.6c0.4,0,0.6-0.3,0.6-0.6v-7c0-0.4-0.3-0.6-0.6-0.6h-0.6c-0.4,0-0.6,0.3-0.6,0.6v7
		C60.4,24,60.7,24.3,61.1,24.3z"/>
	<path class="st0" d="M64,16c-0.4,0-0.6,0.3-0.6,0.6v7c0,0.4,0.3,0.6,0.6,0.6h0.6c0.4,0,0.6-0.3,0.6-0.6v-7c0-0.4-0.3-0.6-0.6-0.6
		H64z"/>
	<path class="st0" d="M67,16c-0.4,0-0.6,0.3-0.6,0.6v7c0,0.4,0.3,0.6,0.6,0.6h0.6c0.4,0,0.6-0.3,0.6-0.6v-7c0-0.4-0.3-0.6-0.6-0.6
		H67z"/>
	<path class="st0" d="M74.6,24.3h0.6c0.4,0,0.6-0.3,0.6-0.6v-7c0-0.4-0.3-0.6-0.6-0.6h-0.6c-0.4,0-0.6,0.3-0.6,0.6v7
		C73.9,24,74.2,24.3,74.6,24.3z"/>
	<path class="st0" d="M78.2,16h-0.6c-0.4,0-0.6,0.3-0.6,0.6v7c0,0.4,0.3,0.6,0.6,0.6h0.6c0.4,0,0.6-0.3,0.6-0.6v-7
		C78.8,16.3,78.5,16,78.2,16z"/>
	<path class="st0" d="M74.4,35.7H56.6c-1.1,0-1.9,0.9-1.9,1.9v17.5c0,1.1,0.9,1.9,1.9,1.9h17.8c1.1,0,1.9-0.9,1.9-1.9V37.6
		C76.3,36.6,75.5,35.7,74.4,35.7z M74.9,55.2c0,0.3-0.2,0.5-0.5,0.5H56.6c-0.3,0-0.5-0.2-0.5-0.5V37.7c0-0.3,0.2-0.5,0.5-0.5h17.8
		c0.3,0,0.5,0.2,0.5,0.5V55.2z"/>
	<path class="st0" d="M65.6,38.7h-0.5c-0.3,0-0.5,0.2-0.5,0.5v5.2c0,0.3,0.2,0.5,0.5,0.5h0.5c0.3,0,0.5-0.2,0.5-0.5v-5.2
		C66.1,38.9,65.9,38.7,65.6,38.7z"/>
	<path class="st0" d="M64.7,46.1h-6.8c-0.4,0-0.7,0.3-0.7,0.7s0.3,0.7,0.7,0.7h6.6v6.4c0,0.4,0.3,0.7,0.7,0.7c0.4,0,0.7-0.3,0.7-0.7
		v-6.6C66,46.7,65.4,46.1,64.7,46.1z"/>
	<path class="st0" d="M73.4,50.1v-2.9c0-0.4-0.3-0.7-0.7-0.7c-0.4,0-0.7,0.3-0.7,0.7v2.4h-3.5c-0.5,0-0.9,0.4-0.9,0.9v3.7
		c0,0.4,0.3,0.7,0.7,0.7c0.4,0,0.7-0.3,0.7-0.7V51h3.5C73,51,73.4,50.6,73.4,50.1z"/>
	<g>
		<path class="st0" d="M43.3,35.3c0-1.1-0.9-2.1-2.1-2.1H29.4c-1.1,0-2.1,0.9-2.1,2.1s0.9,2.1,2.1,2.1h11.8
			C42.4,37.4,43.3,36.5,43.3,35.3z"/>
		<path class="st0" d="M41.3,10.4h-5.2c-3.5,0-6.3,2.8-6.3,6.3V22c0,1.1,0.9,2.1,2.1,2.1c1.1,0,2.1-0.9,2.1-2.1v-5.2
			c0-1.2,1-2.1,2.1-2.1h5.2c1.1,0,2.1-0.9,2.1-2.1C43.4,11.4,42.5,10.4,41.3,10.4z"/>
		<path class="st0" d="M41.3,58.5h-5.2c-1.2,0-2.1-1-2.1-2.1v-5.2c0-1.1-0.9-2.1-2.1-2.1c-1.1,0-2.1,0.9-2.1,2.1v5.2
			c0,3.5,2.8,6.3,6.3,6.3h5.2c1.1,0,2.1-0.9,2.1-2.1S42.5,58.5,41.3,58.5z"/>
		<path class="st0" d="M100.6,33.3H88.8c-1.1,0-2.1,0.9-2.1,2.1s0.9,2.1,2.1,2.1h11.8c1.1,0,2.1-0.9,2.1-2.1S101.7,33.3,100.6,33.3z
			"/>
		<path class="st0" d="M88.7,14.6h5.2c1.2,0,2.1,1,2.1,2.1V22c0,1.1,0.9,2.1,2.1,2.1s2.1-0.9,2.1-2.1v-5.2c0-3.5-2.8-6.3-6.3-6.3
			h-5.2c-1.1,0-2.1,0.9-2.1,2.1C86.6,13.7,87.5,14.6,88.7,14.6z"/>
		<path class="st0" d="M98.1,49c-1.2,0-2.1,1-2.1,2.1v5.2c0,1.2-1,2.1-2.1,2.1h-5.2c-1.1,0-2.1,0.9-2.1,2.1s0.9,2.1,2.1,2.1h5.2
			c3.5,0,6.3-2.8,6.3-6.3v-5.2C100.2,50,99.2,49,98.1,49z"/>
	</g>
</g>
</svg>
