<?xml version="1.0" encoding="utf-8"?>
<!-- Generator: Adobe Illustrator 28.1.0, SVG Export Plug-In . SVG Version: 6.00 Build 0)  -->
<svg version="1.1" id="圖層_1" xmlns="http://www.w3.org/2000/svg" xmlns:xlink="http://www.w3.org/1999/xlink" x="0px" y="0px"
	 viewBox="0 0 130 70" style="enable-background:new 0 0 130 70;" xml:space="preserve">
<style type="text/css">
	.st0{fill:url(#SVGID_1_);}
	.st1{fill:url(#SVGID_00000028296292147354019210000007382108144980978858_);}
	.st2{fill:url(#SVGID_00000100349785133657981480000001096561317595996303_);}
	.st3{fill:url(#SVGID_00000003810209535893740050000008425075730082896795_);}
	.st4{fill:url(#SVGID_00000047744395444217092130000007501225252986984064_);}
	.st5{fill:url(#SVGID_00000057142319024891004310000015995829001961503416_);}
	.st6{fill:url(#SVGID_00000018235918139737815510000013398692575926725567_);}
	.st7{fill:url(#SVGID_00000026883989303932850510000005288507778409409198_);}
	.st8{fill:url(#SVGID_00000168827234501692415330000006548989768987607471_);}
	.st9{fill:url(#SVGID_00000105428835513775884260000018134915156086257328_);}
	.st10{fill:url(#SVGID_00000183948476461391956910000015657322711320455338_);}
	.st11{fill:url(#SVGID_00000142138976818112875570000001921364686531473087_);}
</style>
<g>
	<g>
		<linearGradient id="SVGID_1_" gradientUnits="userSpaceOnUse" x1="9.5605" y1="23.2972" x2="62.2109" y2="62.7849">
			<stop  offset="0.2528" style="stop-color:#823E93"/>
			<stop  offset="1" style="stop-color:#5D318B"/>
		</linearGradient>
		<path class="st0" d="M57.5,30.3c-0.7-3.2-2.6-6-5.3-7.8c-2.7-1.9-6-2.6-9.2-2.2c-6.1,0.8-10.8,5.9-11.2,12.2
			c-0.4,6.2,3.7,11.8,9.7,13.3c0.9,0.2,1.8,0.3,2.7,0.4c0.3,0,0.6,0.1,1,0.1l0,5c0,3.7,0,7.4,0,11c0,3-1.7,4.6-4.6,4.6
			c-8.5,0-17.3,0-26.2,0c-3,0-4.7-1.7-4.7-4.7c0-10.1,0-20.2,0-30.3l0-8.7c0-1.2,0-2.4,0-3.6c0-2.9,0-5.8,0-8.8
			c0-2.4,1.7-4.2,4.1-4.3c0.4,0,0.4,0,0.5,0.3c0.2,0.7,0.4,1.4,0.6,2.1c0.1,0.3,0.2,0.6,0.2,0.8c0.7,2.3,2.3,3.6,4.7,3.6
			c4.7,0,9.7,0,15.3,0c2.3,0,4-1.3,4.6-3.5c0.1-0.3,0.1-0.5,0.2-0.8c0.2-0.7,0.4-1.5,0.6-2.3c0.1-0.3,0.1-0.3,0.4-0.3
			c2.5,0.1,4.2,1.9,4.2,4.3c0,1.3,0,2.5,0,3.8c0,0.8,0,1.6,0,2.4c0,1.2,0.6,1.9,1.6,1.9c0.4,0,0.8-0.1,1.1-0.4
			c0.3-0.3,0.5-0.8,0.5-1.5c0-0.8,0-1.6,0-2.4c0-1.2,0-2.4,0-3.6c0-2.2-0.7-4.1-2.1-5.6c-1.4-1.4-3.3-2.2-5.5-2.2
			c-9.4,0-18.1,0-26.6,0c-0.7,0-1.2,0.1-1.7,0.2c-3.5,0.8-5.9,3.7-5.9,7.4c0,18.2,0,35.1,0,51.7c0,4.2,3.2,7.4,7.6,7.4
			c4.1,0,8.2,0,12.3,0c4.8,0,9.5,0,14.2,0c2.3,0,4.2-0.7,5.6-2.1c1.4-1.4,2.1-3.3,2.2-5.6c0-5.3,0-10.8,0-16.3c0-0.4,0-0.5,0.4-0.6
			c3.1-1,5.7-3.1,7.3-5.9C57.7,36.8,58.2,33.5,57.5,30.3z M54.6,33.1c0,5.4-4.4,9.8-9.8,9.8c0,0,0,0,0,0c-5.4,0-9.8-4.4-9.8-9.8
			c0-2.6,1-5.1,2.9-6.9c1.9-1.9,4.3-2.9,7-2.9c0,0,0,0,0,0C50.3,23.3,54.6,27.7,54.6,33.1z M22.7,10.2c-0.9,0-1.9,0-2.8,0
			c-1,0-1.4-0.3-1.7-1.3C18,8.3,17.9,7.6,17.7,7l-0.1-0.4h19.8c-0.1,0.2-0.1,0.4-0.2,0.6c-0.2,0.8-0.5,1.6-0.7,2.4
			c-0.1,0.3-0.4,0.7-1.5,0.7c-1.7,0-3.4,0-5.2,0c-1,0-2,0-3,0l-2.9,0C23.5,10.2,23.1,10.2,22.7,10.2z"/>
		
			<linearGradient id="SVGID_00000001625227163484649280000011707751835316151951_" gradientUnits="userSpaceOnUse" x1="11.0202" y1="21.3508" x2="63.6706" y2="60.8386">
			<stop  offset="0.2528" style="stop-color:#823E93"/>
			<stop  offset="1" style="stop-color:#5D318B"/>
		</linearGradient>
		<path style="fill:url(#SVGID_00000001625227163484649280000011707751835316151951_);" d="M27.6,20.9c0.8-0.6,0.9-1.6,0.3-2.3
			c-0.6-0.7-1.6-0.8-2.4-0.1c-0.1,0.1-0.3,0.2-0.4,0.3c-3.7,3.5-5.8,8.2-6,13.2l0,0c0,3.1,0.3,5.4,1.1,7.7c1.1,3.3,2.9,6,5.4,8
			c0.4,0.3,0.8,0.5,1.2,0.5c0,0,0.1,0,0.1,0c0.4,0,0.8-0.2,1-0.6c0.6-0.7,0.5-1.6-0.3-2.3c-0.1-0.1-0.2-0.2-0.3-0.3
			c-0.3-0.3-0.7-0.6-0.9-0.9c-4.2-4.9-5.2-10.7-3-17.1C24.2,24.6,25.6,22.6,27.6,20.9z"/>
		
			<linearGradient id="SVGID_00000170999496394759633710000004235189430810940070_" gradientUnits="userSpaceOnUse" x1="13.2792" y1="18.3389" x2="65.9296" y2="57.8267">
			<stop  offset="0.2528" style="stop-color:#823E93"/>
			<stop  offset="1" style="stop-color:#5D318B"/>
		</linearGradient>
		<path style="fill:url(#SVGID_00000170999496394759633710000004235189430810940070_);" d="M33.8,43.1c-3.2-2.4-5.1-6-5.1-9.9
			c0-3.9,1.8-7.5,5-9.9c0.9-0.7,1.2-1.6,0.6-2.4c-0.3-0.4-0.6-0.6-1-0.6c-0.5-0.1-1,0.1-1.5,0.5c-4,3-6.2,7.1-6.3,11.8l0,0l0,0
			c0,4.4,1.3,7.9,3.9,10.7c0.8,0.9,1.7,1.6,2.9,2.5c0.3,0.2,0.6,0.3,1,0.3c0.2,0,0.4,0,0.6-0.1c0.5-0.2,0.9-0.7,1-1.2
			C34.8,44,34.3,43.5,33.8,43.1z"/>
		
			<linearGradient id="SVGID_00000078043392171474962080000010245300263614209418_" gradientUnits="userSpaceOnUse" x1="-2.7793" y1="39.7502" x2="49.8711" y2="79.238">
			<stop  offset="0.2528" style="stop-color:#823E93"/>
			<stop  offset="1" style="stop-color:#5D318B"/>
		</linearGradient>
		<path style="fill:url(#SVGID_00000078043392171474962080000010245300263614209418_);" d="M16.6,60.8c-0.7,0-1.4,0-2.1,0
			c-0.9,0-1.5,0.7-1.5,1.6c0,0.9,0.6,1.5,1.5,1.6c0.1,0,0.2,0,0.3,0c0.1,0,0.1,0,0.2,0c0.1,0,0.1,0,0.2,0l14.6,0c3.4,0,6.8,0,10.2,0
			l0.1,0c0.2,0,0.5,0,0.7-0.1c0.8-0.2,1.2-0.8,1.2-1.6c0-0.8-0.5-1.3-1.3-1.5c-0.2,0-0.4,0-0.6,0l-0.1,0c-7.5,0-15,0-22.6,0
			C17.2,60.8,16.9,60.8,16.6,60.8z"/>
		
			<linearGradient id="SVGID_00000048476435598207287970000008004770841441994428_" gradientUnits="userSpaceOnUse" x1="17.5323" y1="12.668" x2="70.1827" y2="52.1558">
			<stop  offset="0.2528" style="stop-color:#823E93"/>
			<stop  offset="1" style="stop-color:#5D318B"/>
		</linearGradient>
		<path style="fill:url(#SVGID_00000048476435598207287970000008004770841441994428_);" d="M47.7,31.5c-0.4,0-0.8,0-1.1,0
			c0,0-0.1,0-0.1,0v-3.1h0.7c0,0.3,0,0.5,0,0.7c0,1,0.7,1.6,1.6,1.6c0,0,0,0,0,0c0.9,0,1.5-0.7,1.6-1.6c0-0.5,0-0.9,0-1.4l0-0.1
			c-0.1-1.5-1-2.5-2.5-2.5c-0.4,0-0.8,0-1.2,0c-0.1,0-0.1,0-0.2,0c-0.1-0.5-0.5-1.3-1.5-1.3c-0.9,0-1.3,0.5-1.7,1.3
			c-0.1,0-0.1,0-0.2,0c-0.4,0-0.8,0-1.2,0c-1.6,0-2.6,1-2.6,2.6c0,1.4,0,2.8,0,4.3c0,1.6,1,2.6,2.6,2.6c0.4,0,0.8,0,1.1,0
			c0,0,0.1,0,0.1,0v3.1h-0.7c0-0.2,0-0.5,0-0.7c0-1-0.7-1.6-1.5-1.6c-0.9,0-1.6,0.6-1.6,1.6c0,0.4,0,0.9,0,1.3
			c0,1.6,1.1,2.6,2.7,2.7c0.4,0,0.8,0,1.1,0c0.1,0,0.1,0,0.2,0c0.2,0.7,0.6,1.3,1.5,1.3c0,0,0.1,0,0.1,0c0.8,0,1.2-0.5,1.6-1.3
			c0.1,0,0.1,0,0.2,0c0.4,0,0.7,0,1.1,0c1.6,0,2.6-1.1,2.7-2.7c0-1.4,0-2.8,0-4.2C50.3,32.6,49.3,31.6,47.7,31.5z M47.2,35.6
			c0,0.8,0,1.5,0,2.3h-0.7v-3.1c0.3,0,0.6-0.1,0.7,0C47.2,34.8,47.2,35.3,47.2,35.6z M43.2,31.5C43.2,31.5,43.2,31.5,43.2,31.5
			c-0.3,0.1-0.6,0.1-0.7,0.1c-0.1-0.1-0.1-0.6-0.1-0.9v-2.2h0.8v0.4C43.2,29.7,43.2,30.6,43.2,31.5z"/>
	</g>
	<g>
		
			<linearGradient id="SVGID_00000150791932994266587990000017625253398337428924_" gradientUnits="userSpaceOnUse" x1="93.8348" y1="7.2189" x2="134.1869" y2="45.7451">
			<stop  offset="0.2528" style="stop-color:#823E93"/>
			<stop  offset="1" style="stop-color:#5D318B"/>
		</linearGradient>
		<path style="fill:url(#SVGID_00000150791932994266587990000017625253398337428924_);" d="M109.8,28.6h2.9c2.5,0,4.6-2,4.6-4.6
			v-0.3c0-2.5-2-4.6-4.6-4.6h-2.9c-2.5,0-4.6,2-4.6,4.6v0.3C105.3,26.6,107.3,28.6,109.8,28.6z M108.7,23.8c0-0.6,0.5-1.1,1.1-1.1
			h2.9c0.6,0,1.1,0.5,1.1,1.1v0.3c0,0.6-0.5,1.1-1.1,1.1h-2.9c-0.6,0-1.1-0.5-1.1-1.1V23.8z"/>
		
			<linearGradient id="SVGID_00000006702688638437685850000001981706393398178192_" gradientUnits="userSpaceOnUse" x1="82.0575" y1="19.5544" x2="122.4096" y2="58.0806">
			<stop  offset="0.2528" style="stop-color:#823E93"/>
			<stop  offset="1" style="stop-color:#5D318B"/>
		</linearGradient>
		<path style="fill:url(#SVGID_00000006702688638437685850000001981706393398178192_);" d="M116.5,14.4H78.3c-3.8,0-7,3.1-7,7v25.7
			c0,3.8,3.1,7,7,7h38.1c3.8,0,7-3.1,7-7V21.3C123.5,17.5,120.3,14.4,116.5,14.4z M120,47.1c0,2-1.6,3.6-3.6,3.6H78.3
			c-2,0-3.6-1.6-3.6-3.6V21.3c0-2,1.6-3.6,3.6-3.6h38.1c2,0,3.6,1.6,3.6,3.6V47.1z"/>
		
			<linearGradient id="SVGID_00000040572445043681481450000006257196795819875001_" gradientUnits="userSpaceOnUse" x1="83.1852" y1="18.3732" x2="123.5373" y2="56.8994">
			<stop  offset="0.2528" style="stop-color:#823E93"/>
			<stop  offset="1" style="stop-color:#5D318B"/>
		</linearGradient>
		<path style="fill:url(#SVGID_00000040572445043681481450000006257196795819875001_);" d="M116.1,29.7h-38c-1.1,0-2,0.9-2,2
			s0.9,2,2,2h38c1.1,0,2-0.9,2-2S117.3,29.7,116.1,29.7z"/>
		
			<linearGradient id="SVGID_00000049930398431589334300000006440299655615369606_" gradientUnits="userSpaceOnUse" x1="69.4163" y1="32.7947" x2="109.7684" y2="71.3209">
			<stop  offset="0.2528" style="stop-color:#823E93"/>
			<stop  offset="1" style="stop-color:#5D318B"/>
		</linearGradient>
		<path style="fill:url(#SVGID_00000049930398431589334300000006440299655615369606_);" d="M83,43.6l-2.4,0c0,0,0,0,0,0
			c-0.8,0-1.5,0.5-1.5,1c0,0.6,0.7,1.1,1.5,1.1l2.4,0c0,0,0,0,0,0c0.8,0,1.5-0.5,1.5-1C84.5,44,83.8,43.6,83,43.6z"/>
		
			<linearGradient id="SVGID_00000045592545294207748770000012139112950484978081_" gradientUnits="userSpaceOnUse" x1="74.1503" y1="27.8363" x2="114.5024" y2="66.3625">
			<stop  offset="0.2528" style="stop-color:#823E93"/>
			<stop  offset="1" style="stop-color:#5D318B"/>
		</linearGradient>
		<path style="fill:url(#SVGID_00000045592545294207748770000012139112950484978081_);" d="M93,43.6l-2.4,0c0,0,0,0,0,0
			c-0.8,0-1.5,0.5-1.5,1c0,0.6,0.7,1.1,1.5,1.1l2.4,0c0,0,0,0,0,0c0.8,0,1.5-0.5,1.5-1C94.5,44.1,93.8,43.6,93,43.6z"/>
		
			<linearGradient id="SVGID_00000100360408975322028700000001470446838871598724_" gradientUnits="userSpaceOnUse" x1="79.313" y1="22.4289" x2="119.6651" y2="60.9551">
			<stop  offset="0.2528" style="stop-color:#823E93"/>
			<stop  offset="1" style="stop-color:#5D318B"/>
		</linearGradient>
		<path style="fill:url(#SVGID_00000100360408975322028700000001470446838871598724_);" d="M103.8,43.6l-2.4,0c0,0,0,0,0,0
			c-0.8,0-1.5,0.5-1.5,1c0,0.6,0.7,1.1,1.5,1.1l2.4,0c0,0,0,0,0,0c0.8,0,1.5-0.5,1.5-1C105.3,44.1,104.6,43.6,103.8,43.6z"/>
		
			<linearGradient id="SVGID_00000100341572130329057230000004166802212341909950_" gradientUnits="userSpaceOnUse" x1="84.3972" y1="17.1038" x2="124.7493" y2="55.63">
			<stop  offset="0.2528" style="stop-color:#823E93"/>
			<stop  offset="1" style="stop-color:#5D318B"/>
		</linearGradient>
		<path style="fill:url(#SVGID_00000100341572130329057230000004166802212341909950_);" d="M114.5,43.6l-2.4,0c0,0,0,0,0,0
			c-0.8,0-1.5,0.5-1.5,1c0,0.6,0.7,1.1,1.5,1.1l2.4,0c0,0,0,0,0,0c0.8,0,1.5-0.5,1.5-1C116,44.1,115.3,43.6,114.5,43.6z"/>
	</g>
</g>
</svg>
