<?xml version="1.0" encoding="utf-8"?>
<!-- Generator: Adobe Illustrator 28.1.0, SVG Export Plug-In . SVG Version: 6.00 Build 0)  -->
<svg version="1.1" id="圖層_1" xmlns="http://www.w3.org/2000/svg" xmlns:xlink="http://www.w3.org/1999/xlink" x="0px" y="0px"
	 viewBox="0 0 130 70" style="enable-background:new 0 0 130 70;" xml:space="preserve">
<style type="text/css">
	.st0{fill:#FFFFFF;}
</style>
<g>
	<path class="st0" d="M101.2,13.1h-44c-4.8,0-8.8,4-8.8,8.8v29.7c0,4.8,4,8.8,8.8,8.8h44c4.8,0,8.8-4,8.8-8.8V21.9
		C110,17.1,106,13.1,101.2,13.1z M104.6,51.5c0,1.9-1.5,3.4-3.4,3.4h-44c-1.9,0-3.4-1.5-3.4-3.4V21.9c0-1.9,1.5-3.4,3.4-3.4h44
		c1.9,0,3.4,1.5,3.4,3.4V51.5z"/>
	<path class="st0" d="M62.5,47.6h-2.8l0,0c-1,0-1.7,0.5-1.7,1.2c0,0.6,0.8,1.2,1.7,1.2h2.8l0,0c1,0,1.7-0.5,1.7-1.2
		C64.3,48.1,63.5,47.6,62.5,47.6z"/>
	<path class="st0" d="M74,47.6h-2.8l0,0c-1,0-1.7,0.5-1.7,1.2c0,0.6,0.8,1.2,1.7,1.2H74l0,0c1,0,1.7-0.5,1.7-1.2S75,47.6,74,47.6z"
		/>
	<path class="st0" d="M86.6,47.6h-2.8l0,0c-1,0-1.7,0.5-1.7,1.2c0,0.6,0.8,1.2,1.7,1.2h2.8l0,0c1,0,1.7-0.5,1.7-1.2
		C88.3,48.1,87.5,47.6,86.6,47.6z"/>
	<path class="st0" d="M98.9,47.6h-2.8l0,0c-1,0-1.7,0.5-1.7,1.2c0,0.6,0.8,1.2,1.7,1.2h2.8l0,0c1,0,1.7-0.5,1.7-1.2
		C100.5,48.1,99.8,47.6,98.9,47.6z"/>
	<path class="st0" d="M24.5,52c-0.4-0.4-0.9-0.8-1.3-1.2c-5.6-6.7-7-14.2-4-22.9c1.1-3.1,2.9-5.8,5.6-8c1.2-1.1,1.4-2.7,0.4-3.9
		s-2.6-1.3-4-0.2c-0.2,0.1-0.4,0.2-0.5,0.4c-5.2,4.8-8.2,11.4-8.3,18.4l0,0c0,4.3,0.4,7.5,1.5,10.6c1.5,4.5,4.1,8.3,7.5,11.2
		c0.6,0.5,1.3,0.9,2,0.9c0.1,0,0.1,0,0.2,0c0.6-0.1,1.3-0.4,1.7-1c1-1.2,0.8-2.7-0.5-3.9L24.5,52z"/>
	<path class="st0" d="M36.9,49.3c-4.3-3.1-6.8-7.9-6.8-13c0-5.2,2.4-9.9,6.7-13.1c1.5-1.1,1.8-2.7,1-4c-0.4-0.6-1-1-1.7-1.1
		c-0.8-0.1-1.6,0.1-2.4,0.8c-5.6,4.2-8.6,9.9-8.8,16.5l0,0c0.1,6.1,1.8,11.1,5.4,15c1.1,1.3,2.4,2.3,4,3.5c0.5,0.3,1.1,0.5,1.6,0.5
		c0.3,0,0.6-0.1,1-0.2c0.9-0.3,1.5-1.1,1.6-2C38.6,50.5,37.3,49.6,36.9,49.3z"/>
	<path class="st0" d="M96.9,30h-3.4c-2.7,0-4.9,2.1-4.9,4.9v0.3c0,2.7,2.1,4.9,4.9,4.9h3.4c2.7,0,4.9-2.1,4.9-4.9v-0.3
		C101.8,32.1,99.6,30,96.9,30z M98.6,35.1c0,1-0.8,1.7-1.7,1.7h-3.4c-1,0-1.7-0.8-1.7-1.7v-0.3c0-1,0.8-1.7,1.7-1.7h3.4
		c1,0,1.7,0.8,1.7,1.7V35.1z"/>
</g>
</svg>
