<?xml version="1.0" encoding="utf-8"?>
<!-- Generator: Adobe Illustrator 28.1.0, SVG Export Plug-In . SVG Version: 6.00 Build 0)  -->
<svg version="1.1" id="圖層_1" xmlns="http://www.w3.org/2000/svg" xmlns:xlink="http://www.w3.org/1999/xlink" x="0px" y="0px"
	 viewBox="0 0 130 70" style="enable-background:new 0 0 130 70;" xml:space="preserve">
<style type="text/css">
	.st0{fill:#FFFFFF;}
</style>
<g>
	<path class="st0" d="M95.6,65.8c-2.7-0.6-3.3-1.4-3.3-4.1V57c0-3.6,0-7.3,0-11c0-4.2-2.9-7.1-7.2-7.1H72.5h-0.1V3
		c0-1.1-0.3-1.9-0.9-2.3s-1.3-0.3-2.3,0.1c-2.2,1.1-4.2,1.1-6.4,0c-0.7-0.4-1.8-0.4-2.5,0C58,2,55.9,2,53.8,0.9
		c-0.7-0.4-1.8-0.4-2.5,0C49.1,2,47,2,44.8,0.9c-0.7-0.4-1.7-0.4-2.4,0c-2.2,1.1-4.3,1.1-6.6,0c-0.8-0.4-1.5-0.4-2.1-0.1
		c-0.6,0.4-0.9,1.1-0.9,2.1c0,16.3,0,32.3,0,48.3c0,0.5,0,1.2,0.2,1.8c0.8,3.3,3.5,5.3,6.9,5.3c4.7,0,8.8,0,12.8,0
		c0.1,0,0.1,0,0.2,0v0.1c-0.1,1,0,2,0,2.9v0.8c0,4.5,2.8,7.3,7.3,7.3h18.2h9.4c2.4,0,4.9,0,7.3,0c0.7,0,1.3-0.2,1.7-0.6
		c0.2-0.2,0.5-0.7,0.4-1.3C97.1,66.8,96.3,66,95.6,65.8z M56.6,62.1c0-4.6,0-9.8,0-14.9c0-1.5-0.1-3-0.8-4.5h28.9
		c2.6,0,3.8,1.1,3.8,3.8v4.2c0,3.4,0,6.9,0,10.3c0,1.5,0,3.1,0.8,4.6h-2.9c-8.6,0-17.5,0-26.3,0c-2.1,0-3.3-1.3-3.4-3.4L56.6,62.1z
		 M46.6,49.1h-0.5l0,0l0,0l0,0H46.6c0-0.7,0-1.3,0-2c0-0.2,0-0.5,0-0.7c0-0.5,0-1,0.1-1.4c0.4-1.4,1.7-2.3,3.2-2.2
		c1.6,0.1,2.7,1.3,2.8,2.7c0.1,2.3,0.1,4.5,0,6.9c0,0.7,0,1.4,0,2.1h-6.9C46.7,52.7,46.7,50.8,46.6,49.1z M42.8,48
		c0,1.1,0,2.2,0,3.2c0,1.8-1.4,3.3-3.1,3.3c-0.8,0-1.6-0.3-2.2-0.9c-0.6-0.6-1-1.4-1-2.3c0-3.3,0-6.7,0-10V5.2
		c1.9,0.8,3.8,0.7,5.8-0.3c0.8-0.4,1.6-0.4,2.4,0c2.2,1.2,4.4,1.2,6.4,0c0.9-0.5,1.7-0.5,2.7,0C55.8,6,58,6,60.2,4.8
		c0.9-0.5,1.6-0.5,2.4,0C62.8,4.9,62.9,5,62.9,5c1.9,1,3.7,1,5.5,0.2v33.7h-5.6H50.2c-4.6,0-7.4,2.9-7.4,7.4V48z"/>
	<path class="st0" d="M51.6,21.1l-3-1.5L47,21.9l0.4,0.2c0.3,0.1,0.6,0.3,0.9,0.5c0.7,0.4,1.3,0.7,2,0.9c1,0.2,1.3,0.5,1.2,1.5
		c0,0.2,0.1,0.3,0.1,0.4l0,0l0.1,0.2H54v-0.5c-0.3-1,0.1-1.2,1.3-1.6c1.5-0.5,2.5-1.7,2.5-3.3c0.1-1.6-0.7-2.9-2.3-3.6
		c-0.2-0.1-0.4-0.2-0.7-0.3c-0.2-0.1-0.5-0.2-0.6-0.3c-0.1-0.1-0.3-0.2-0.3-0.3c0-0.7,0-1.3,0-2.1c0-0.1,0-0.2,0-0.3l2.2,1l1.4-2.4
		L54,10.4c-0.1-0.9-0.2-1.3-0.5-1.5c-0.4-0.2-0.8-0.1-1.6,0.1l-0.3,0.1l-0.1,1.4c-0.1,0-0.1,0-0.2,0.1c-0.4,0.1-0.7,0.2-1,0.3
		c-1.5,0.6-2.4,1.7-2.5,3.2c-0.1,1.7,0.6,2.9,2.2,3.7c0.2,0.1,0.4,0.2,0.7,0.3c0.2,0.1,0.5,0.2,0.7,0.3c0.1,0.1,0.3,0.2,0.3,0.2
		c0,0.7,0,1.5,0,2.3C51.6,20.9,51.6,21,51.6,21.1z M53.9,21.1v-2c0.8,0.2,0.9,0.6,0.9,1C54.8,20.5,54.8,20.8,53.9,21.1z M51.6,13.2
		v2.1c-0.7-0.2-0.9-0.6-0.9-1C50.7,13.8,50.8,13.4,51.6,13.2z"/>
	<path class="st0" d="M41.4,30.8c0.9,0,1.9,0,2.8,0h3.3c5.3,0,10.7,0,16,0l0,0c0.6,0,1.5,0,1.8-1.1c0.1-0.4,0-0.8-0.2-1.1
		c-0.3-0.4-0.8-0.6-1.5-0.6c-2.7,0-5.4,0-8,0h-5.7c-2.8,0-5.7,0-8.5,0l0,0c-1.4,0-1.7,0.7-1.7,1.3c0,0.4,0.1,0.8,0.3,1
		C40.3,30.7,40.8,30.8,41.4,30.8z"/>
	<path class="st0" d="M55.6,36.1c2.6,0,5.1,0,7.7,0l0,0c0.1,0,0.1,0,0.2,0c0.3,0,0.6,0,0.9-0.2c0.2-0.2,1-0.7,0.9-1.3
		c-0.1-0.5-0.5-0.8-0.8-1.1l-0.1-0.1c-0.2-0.2-0.5-0.2-0.7-0.1c-0.1,0-0.1,0-0.2,0c-7.3,0-14.7,0-22,0h-0.1c-0.2,0-0.5,0-0.7,0.1
		l-0.1,0.1c-0.4,0.3-0.9,0.7-0.8,1.1c0,0.5,0.5,1,0.9,1.3c0.2,0.1,0.4,0.2,0.7,0.2c0.1,0,0.2,0,0.3,0s0.2,0,0.3,0l0,0
		c3.4,0,6.7,0,10.1,0H55.6z"/>
	<path class="st0" d="M60.7,48.7L60.7,48.7c0.3,0.2,0.4,0.2,0.6,0.2c0.1,0,0.2,0,0.3,0s0.1,0,0.2,0c3.9,0,7.7,0,11.6,0h1.9
		c0.7,0,1.4,0,2.1,0c2.1,0,4.2,0,6.3,0c0.5,0,1.1-0.3,1.5-0.7c0.2-0.2,0.2-0.5,0.2-0.8c0-0.2-0.1-0.6-0.3-0.8
		c-0.4-0.3-1-0.5-1.5-0.5c-2.8,0-5.7,0-8.4,0c-0.9,0-1.7,0-2.6,0H63c-0.2,0-0.3,0-0.5,0c-0.5,0-0.9,0-1.4,0.1s-1.2,0.7-1.2,1.3
		C59.7,48,60.2,48.3,60.7,48.7z"/>
	<path class="st0" d="M84.3,57.3L84.3,57.3c-0.3-0.3-0.6-0.2-0.9-0.2c-0.1,0-0.1,0-0.2,0c-7.2,0-14.3,0-21.5,0l0,0
		c-0.1,0-0.1,0-0.2,0c-0.3,0-0.6,0-0.9,0.1c-0.3,0.2-0.9,0.7-0.9,1.3s0.7,1.1,0.9,1.3c0.2,0.1,0.4,0.2,0.6,0.2c0.1,0,0.2,0,0.3,0
		s0.1,0,0.2,0l0,0c2.9,0,5.7,0,8.6,0h12.8c0.1,0,0.1,0,0.2,0c0.2,0,0.4,0,0.6,0c0.5,0,0.9-0.2,1.2-0.6c0.2-0.3,0.3-0.6,0.2-0.9
		C85.2,57.9,84.7,57.6,84.3,57.3z"/>
	<path class="st0" d="M61.2,54.4c0.2,0,0.5,0,0.7,0H62c3.5,0,7,0,10.5,0h2.7c2.3,0,4.6,0,6.9,0c0.2,0,0.4,0,0.5,0c0.2,0,0.4,0,0.5,0
		c0.3,0,0.7,0,1-0.1c0.5-0.1,1.3-0.8,1.2-1.3c-0.1-0.5-0.6-0.9-1-1.2l0,0c-0.2-0.2-0.5-0.2-0.8-0.1c-0.1,0-0.1,0-0.2,0
		c-7.2,0-14.4,0-21.6,0c0,0-0.1,0-0.2,0c-0.2,0-0.5-0.1-0.7,0.1c-0.1,0.1-0.1,0.1-0.2,0.2c-0.4,0.3-0.9,0.6-1,1.1
		c-0.1,0.3,0,0.7,0.2,0.9C60.2,54.2,60.6,54.4,61.2,54.4z"/>
</g>
</svg>
