<?xml version="1.0" encoding="utf-8"?>
<!-- Generator: Adobe Illustrator 28.1.0, SVG Export Plug-In . SVG Version: 6.00 Build 0)  -->
<svg version="1.1" id="圖層_1" xmlns="http://www.w3.org/2000/svg" xmlns:xlink="http://www.w3.org/1999/xlink" x="0px" y="0px"
	 viewBox="0 0 130 70" style="enable-background:new 0 0 130 70;" xml:space="preserve">
<style type="text/css">
	.st0{fill:url(#SVGID_1_);}
	.st1{fill:url(#SVGID_00000055701710631199289790000001350369758122227871_);}
	.st2{fill:url(#SVGID_00000078034302864544374740000007276272915717107592_);}
	.st3{fill:url(#SVGID_00000039122789833789179810000011131841845414674574_);}
	.st4{fill:url(#SVGID_00000174568682281102930370000014214303724683229853_);}
</style>
<g>
	
		<linearGradient id="SVGID_1_" gradientUnits="userSpaceOnUse" x1="38.8866" y1="35.4844" x2="87.6591" y2="-8.2428" gradientTransform="matrix(1 0 0 -1 0 72)">
		<stop  offset="0.2528" style="stop-color:#823E93"/>
		<stop  offset="1" style="stop-color:#5D318B"/>
	</linearGradient>
	<path class="st0" d="M28,34.8h14.6c0.8,0,1.5-0.7,1.5-1.5s-0.7-1.5-1.5-1.5H28c-0.8,0-1.5,0.7-1.5,1.5S27.2,34.8,28,34.8z"/>
	
		<linearGradient id="SVGID_00000006707003562389670400000014480375134467232191_" gradientUnits="userSpaceOnUse" x1="37.6991" y1="34.1598" x2="86.4717" y2="-9.5673" gradientTransform="matrix(1 0 0 -1 0 72)">
		<stop  offset="0.2528" style="stop-color:#823E93"/>
		<stop  offset="1" style="stop-color:#5D318B"/>
	</linearGradient>
	<path style="fill:url(#SVGID_00000006707003562389670400000014480375134467232191_);" d="M49.5,37.3H28c-0.8,0-1.5,0.7-1.5,1.5
		s0.7,1.5,1.5,1.5h21.5c0.8,0,1.5-0.7,1.5-1.5C51,37.9,50.3,37.3,49.5,37.3z"/>
	
		<linearGradient id="SVGID_00000082326868817230572330000007178979346189605273_" gradientUnits="userSpaceOnUse" x1="49.2562" y1="47.0505" x2="98.0288" y2="3.3234" gradientTransform="matrix(1 0 0 -1 0 72)">
		<stop  offset="0.2528" style="stop-color:#823E93"/>
		<stop  offset="1" style="stop-color:#5D318B"/>
	</linearGradient>
	<path style="fill:url(#SVGID_00000082326868817230572330000007178979346189605273_);" d="M104,46.9c-2.1-4.4-7.2-6.5-11.9-4.8
		C87,44,82,44.1,77.5,42.4c-4.5-1.7-9.6,0.2-11.8,4.3c-2.6,4.9-4.1,10.2-4.5,16c0,0.6,0.2,1.2,0.6,1.6c0.4,0.4,1,0.7,1.6,0.7h42.4
		c0.6,0,1.1-0.2,1.5-0.7c0.4-0.4,0.6-1,0.6-1.6C107.7,59.4,106.9,52.9,104,46.9z M65.7,60.8c0.5-4.3,1.8-8.3,3.8-12
		c0.9-1.7,2.7-2.7,4.6-2.7c0.7,0,1.3,0.1,2,0.4c5.4,2,11.5,1.9,17.6-0.3c2.6-1,5.5,0.2,6.6,2.6c2,4.3,2.9,8.8,3.2,12H65.7z"/>
	
		<linearGradient id="SVGID_00000112612159503226490480000006476457622008028600_" gradientUnits="userSpaceOnUse" x1="65.9504" y1="65.6711" x2="114.7231" y2="21.9439" gradientTransform="matrix(1 0 0 -1 0 72)">
		<stop  offset="0.2528" style="stop-color:#823E93"/>
		<stop  offset="1" style="stop-color:#5D318B"/>
	</linearGradient>
	<path style="fill:url(#SVGID_00000112612159503226490480000006476457622008028600_);" d="M84.5,40.8c4.8,0,9.3-1.9,12.6-5.2
		c3.4-3.4,5.2-7.9,5.2-12.6c0-9.9-8-17.9-17.9-17.9c-4.8,0-9.3,1.9-12.6,5.2c-3.4,3.4-5.2,7.9-5.2,12.6
		C66.6,32.7,74.7,40.8,84.5,40.8z M74.9,13.2c2.6-2.6,6-4,9.6-4c7.5,0,13.6,6.1,13.6,13.6c0,3.6-1.4,7.1-4,9.6l0,0
		c-2.6,2.6-6,4-9.6,4c-7.5,0-13.6-6.1-13.6-13.6C70.9,19.2,72.3,15.8,74.9,13.2z"/>
	
		<linearGradient id="SVGID_00000045591740339282345150000002764612968584381065_" gradientUnits="userSpaceOnUse" x1="38.2762" y1="34.8036" x2="87.0488" y2="-8.9235" gradientTransform="matrix(1 0 0 -1 0 72)">
		<stop  offset="0.2528" style="stop-color:#823E93"/>
		<stop  offset="1" style="stop-color:#5D318B"/>
	</linearGradient>
	<path style="fill:url(#SVGID_00000045591740339282345150000002764612968584381065_);" d="M59.1,32.3c-0.2-0.2-0.5-0.4-0.9-0.5
		l-3.6-1.2c-0.2-0.1-0.4-0.2-0.5-0.4L54,30.1V30c-0.1-0.2-0.1-0.4,0-0.6v-0.1l1.4-3.6c0.2-0.4,0.2-0.8,0.2-1.1
		c0-0.2-0.1-0.5-0.2-0.7c-0.1-0.2-0.3-0.3-0.5-0.5c-0.6-0.4-1.3-0.3-1.5-0.3l-3.8,0.6c-0.4,0.1-0.6-0.1-0.8-0.2
		c-0.1-0.1-0.1-0.1-0.2-0.2c-0.1-0.2-0.2-0.4-0.3-0.6l-0.4-3.8c-0.1-0.7-0.3-1.2-0.8-1.5c-0.3-0.2-0.8-0.3-1.2-0.3s-0.7,0.2-1.1,0.5
		l-3.1,2.3c-0.1,0.1-0.3,0.2-0.4,0.2c-0.3,0.1-0.6,0-0.8-0.2c-0.1-0.1-0.2-0.2-0.2-0.3l-2.1-3.2c-0.1-0.2-0.3-0.4-0.4-0.5
		c-0.1-0.1-0.2-0.1-0.2-0.2c-0.2-0.1-0.5-0.2-0.7-0.3c-0.3,0-0.5,0-0.8,0.1c-0.1,0-0.3,0.1-0.4,0.2c-0.2,0.1-0.4,0.3-0.5,0.5
		c-0.1,0.1-0.1,0.2-0.2,0.4L33.4,20c-0.1,0.1-0.1,0.2-0.2,0.3c-0.2,0.2-0.5,0.5-1.2,0.2l-3.4-1.8c-0.5-0.3-1.1-0.4-1.6-0.2
		c-0.6,0.2-1.2,0.8-1.2,2l0.2,3.8c0,0.1,0,0.3-0.1,0.4v0.1c0,0.1-0.1,0.2-0.2,0.3c-0.2,0.2-0.5,0.3-0.8,0.3H21c-0.4,0-0.7,0.1-1,0.2
		c-0.2,0.1-0.4,0.2-0.5,0.4c-0.2,0.2-0.4,0.5-0.4,0.9c0,0.1,0,0.2,0,0.3c0,0.3,0.1,0.7,0.3,1.1l1.9,3.3c0.1,0.3,0.2,0.5,0.1,0.8
		c-0.1,0.3-0.3,0.5-0.5,0.6l-3.4,1.7c-0.6,0.3-1,0.8-1.1,1.3c0,0.2,0,0.3,0,0.5c0,0.3,0.2,0.7,0.4,0.9l0,0c0.2,0.2,0.3,0.3,0.6,0.5
		l3.2,2c0.3,0.2,0.4,0.4,0.5,0.7c0,0.2,0,0.4-0.1,0.6c0,0.1-0.1,0.1-0.1,0.2l-2.2,3.1c-0.2,0.3-0.4,0.7-0.4,1.1c0,0.2,0,0.4,0.1,0.6
		c0.1,0.2,0.2,0.4,0.3,0.6c0.3,0.4,0.8,0.6,1.5,0.7l3.8,0.3c0,0,0.1,0,0.2,0h0.1c0.1,0,0.2,0.1,0.3,0.1c0.2,0,0.5,0.1,0.7,0.4
		c0.2,0.2,0.3,0.5,0.2,0.8L25,52.9c0,0.1,0,0.2,0,0.3c0,0.5,0.2,1.1,0.7,1.4c0.4,0.3,1,0.4,1.5,0.2l3.4-1.4c0.1,0,0.1,0,0.2-0.1l0,0
		c0.1,0,0.2,0,0.3,0l0,0c0.1,0,0.1,0,0.2,0s0.2,0.1,0.3,0.1c0.1,0,0.2,0,0.3,0.1c0.2,0.1,0.4,0.2,0.5,0.4c-0.2,0.4-0.2,0.8,0,1.2
		l0.9,2.4c0.1,0.4,0.3,0.7,0.6,0.9l0.1,0.1c0.1,0.1,0.2,0.1,0.3,0.2c0.2,0.1,0.5,0.2,0.7,0.2c0.1,0,0.2,0,0.2,0
		c0.2,0,0.4-0.1,0.6-0.2l0,0c0.1,0,0.1-0.1,0.2-0.1c0.1-0.1,0.2-0.1,0.3-0.2c0.1-0.1,0.1-0.1,0.2-0.2l2.4-3c0-0.1,0.1-0.1,0.2-0.2
		c0,0,0.1-0.1,0.2-0.1c0.3-0.2,0.6-0.2,0.9,0c0.1,0.1,0.2,0.1,0.3,0.2l2.8,2.6c0.1,0.1,0.2,0.2,0.4,0.3c0.1,0,0.3,0.1,0.3,0.2
		c0.6,0.3,1.3,0.1,1.8-0.4c0.4-0.4,0.5-1,0.4-1.5l0.6-3c0.1-0.3,0.2-0.5,0.4-0.7c0.1-0.1,0.2-0.1,0.3-0.2c0,0,0.1-0.1,0.2-0.1
		c0,0,0.1,0,0.1-0.1l-0.7-1.4l0.8,1.4c0,0,0.1,0,0.2,0c0,0,0.1,0,0.2,0c0.1,0,0.1,0,0.2,0l3.6,0.9c0.6,0.1,1.1,0,1.5-0.4
		s0.5-1,0.4-1.6l-1.1-3.6c0,0,0-0.1,0.2-0.3l0,0c0.1-0.2,0.2-0.4,0.2-0.6c0-0.1,0-0.1,0-0.2c0-0.1,0-0.1,0.1-0.2
		c0.1-0.3,0.4-0.4,0.7-0.5l3.7-0.9c0.4-0.1,0.7-0.3,1-0.5c0.1,0,0.1-0.1,0.2-0.2c0.1-0.1,0.2-0.2,0.3-0.4s0.2-0.5,0.2-0.7
		c0-0.5-0.2-1-0.6-1.4L56,39.1c-0.2-0.2-0.3-0.5-0.3-0.8s0.1-0.6,0.4-0.8L59,35c0.2-0.1,0.3-0.3,0.4-0.4c0.3-0.4,0.4-0.7,0.4-1.1
		c0-0.3-0.1-0.6-0.2-0.8C59.4,32.5,59.2,32.4,59.1,32.3z M53.7,41.3l1.1,1.1l-1.5,0.4c-1.2,0.3-2.1,1-2.7,2
		c-0.1,0.2-0.2,0.5-0.3,0.7c-0.1,0.1-0.1,0.3-0.1,0.4c-0.4,0.7-0.7,1.5-0.4,2.6l0.3,1L49,49.1C48.8,49,48.5,49,48.2,49s-0.7,0-1,0
		c0,0-0.1,0-0.2,0c-0.2,0-0.4,0.1-0.6,0.2l-0.2,0.1c-0.1,0-0.2,0.1-0.3,0.2c-0.1,0.1-0.3,0.2-0.4,0.2l-0.1,0.1
		c-0.2,0.1-0.3,0.3-0.5,0.4c-0.9,0.6-1.4,1.5-1.6,2.6l-0.2,0.9l-0.9-0.8c-0.3-0.3-0.7-0.5-1.1-0.7c-1.3-0.6-2.7-0.5-3.8,0.2
		c-0.2,0.1-0.4,0.3-0.6,0.4c-0.2,0.2-0.4,0.4-0.6,0.6l-0.7,0.9c0-0.3,0-0.6-0.1-0.9l-0.1-0.2c-0.4-1.1-1.2-2-2.3-2.5
		c-0.3-0.1-0.6-0.2-1-0.3c-0.2,0-0.3-0.1-0.5-0.1c0,0,0,0-0.1,0c-0.5-0.1-1-0.1-1.5,0c0,0,0,0-0.1,0c-0.3,0.1-0.6,0.1-0.8,0.3
		L28.2,51l0.2-1.1c0.2-1.2-0.2-2.3-0.9-3.2c-0.6-0.8-1.6-1.3-2.6-1.5c-0.1,0-0.2-0.1-0.3-0.1C24.4,45,24.1,45,23.9,45l-1.5-0.1
		l0.9-1.3c0.2-0.2,0.3-0.5,0.4-0.8c0.4-0.8,0.4-1.7,0.3-2.5c-0.2-1.2-0.9-2.1-1.9-2.8l-1.3-0.8l1.4-0.7c1.1-0.5,1.8-1.5,2.2-2.6
		c0.3-1.1,0.2-2.2-0.3-3.2L24,30.1l-0.8-1.3h1.6c1.2,0,2.3-0.5,3.1-1.3c0.4-0.4,0.7-0.9,0.9-1.5c0,0,0-0.1,0.1-0.2
		c0.2-0.5,0.2-1,0.2-1.5L29,22.8l1.4,0.7c0.1,0,0.1,0.1,0.2,0.1c1.6,0.8,3.5,0.4,4.7-0.7c0.4-0.4,0.7-0.8,0.9-1.3l0.7-1.4l0.9,1.3
		c0.3,0.4,0.6,0.7,1,1c1,0.7,2.1,1,3.4,0.8c0.6-0.1,1.2-0.4,1.7-0.8l1.2-0.9l0.2,1.5c0.1,0.9,0.4,1.7,1,2.3c0.2,0.2,0.4,0.4,0.7,0.6
		c0.9,0.7,2.1,1,3.2,0.8l1.5-0.2L51,28c-0.1,0.1-0.1,0.3-0.2,0.5c-0.2,0.8-0.2,1.6,0.1,2.4c0.1,0.2,0.1,0.3,0.2,0.5
		c0.1,0.2,0.2,0.4,0.3,0.6c0.5,0.8,1.3,1.4,2.2,1.7l1.5,0.5l-1.2,1c-0.9,0.8-1.4,1.8-1.5,3C52.4,39.3,52.8,40.4,53.7,41.3z"/>
</g>
</svg>
