<?xml version="1.0" encoding="utf-8"?>
<!-- Generator: Adobe Illustrator 28.1.0, SVG Export Plug-In . SVG Version: 6.00 Build 0)  -->
<svg version="1.1" id="圖層_1" xmlns="http://www.w3.org/2000/svg" xmlns:xlink="http://www.w3.org/1999/xlink" x="0px" y="0px"
	 viewBox="0 0 130 70" style="enable-background:new 0 0 130 70;" xml:space="preserve">
<style type="text/css">
	.st0{fill:#FFFFFF;}
</style>
<path class="st0" d="M63.8,39.6c-0.1,0-0.2,0-0.3,0c-0.4,0-0.8,0.1-1.1,0.4c-0.4,0.4-0.6,1-0.6,1.7c0,1.3,0.7,2,2,2.1
	c1.1,0.1,1.7-0.5,2-1.7c0.1-0.6,0-1.2-0.5-1.6C64.8,40.1,64.3,39.7,63.8,39.6z"/>
<path class="st0" d="M49.7,26.2c-1.4,0.2-2.1,0.9-2.1,2.2c0,1.3,0.7,2,1.9,2.1c0.7,0,1.2-0.1,1.6-0.5c0.4-0.4,0.6-0.9,0.6-1.5
	C51.8,26.8,50.7,26.3,49.7,26.2z"/>
<path class="st0" d="M106.8,46.9c-1.2-0.7-1.8-1.6-1.8-2.6c0-1.1,0.7-2.3,2.1-3.1c2.3-1.4,3.7-3.8,3.7-6.3c0-2.4-1.3-4.6-3.5-6
	c-1.5-0.9-2.3-2-2.3-3.1s0.8-2.2,2.4-3.2c2.6-1.6,3.7-4.2,3.2-7.3c-0.7-4.3-4.3-7.1-9.2-7.1c-17.4,0-34.8,0-52.2,0H29.5
	c-0.2,0-3.4,0.2-6.3,2.1c-3.4,2.2-3.6,6.7-3.7,6.9v0.1v0.1c0.1,0.2,0.1,0.5,0.1,0.7c0.3,1.7,1.8,3.4,3.2,4.4c1.4,1,2.2,2.2,2.2,3.3
	c0,1-0.8,2.1-2.2,3c-2.3,1.4-3.6,3.7-3.6,6.1c0,2.5,1.3,4.7,3.7,6.2c1.4,0.9,2.1,1.9,2.2,3c0,1.1-0.8,2.1-2.1,3
	c-3.7,2.4-4.6,6.5-2.4,10.2c1.7,2.8,4.3,4.4,7.7,4.4c24.5,0,49.1,0,73.6,0c0.9,0,2.1-0.1,3.4-0.6c3.1-1.2,5-3.6,5.4-7
	C110.9,51.1,109.7,48.6,106.8,46.9z M83,56.2l-0.1,0.3l-0.3,0.1c-0.2,0.1-0.7,0.1-1,0.1c-8.3,0-16.5,0-24.8,0h-0.6
	c-8.8,0-17.9,0-26.9-0.1c-1.4,0-2.9-0.5-3.8-1.2c-0.7-0.6-1.1-1.2-1-1.9c0-0.8,0.6-1.5,1.5-2.1c2.6-1.6,4.2-4.2,4.2-7.1
	c0-2.9-1.5-5.5-4.1-7.2c-1.1-0.7-1.7-1.4-1.7-2.1c0-0.8,0.9-1.5,1.7-2c2.6-1.7,4.1-4.3,4.1-7.1c0-2.9-1.5-5.5-4.2-7.2
	c-0.6-0.4-0.9-0.7-1.1-0.8h-0.4l0.1-0.6c0-0.2,0.2-0.6,1.4-1.8c2.2-2.1,4.6-2.1,7.4-2.1h1.1c11.5,0,23,0,34.4,0h14v17.1
	c0,8.1,0,16.4,0,24.7C83.1,55.6,83,56,83,56.2z M104.7,55.2c-0.7,0.7-1.8,1.3-2.6,1.3c-2.3,0.1-4.5,0.1-6.8,0.1c-1.3,0-2.6,0-3.9,0
	h-3.2V13.4h6.9c2.2,0,4.3,0,6.4,0c1.7,0,2.9,0.7,3.5,2.1s0.4,2.2-0.8,3c-3,2-4.6,4.5-4.7,7.3c0,2.8,1.6,5.4,4.6,7.4
	c0.8,0.5,1.2,1.1,1.2,1.8s-0.5,1.3-1.3,1.9c-2.9,1.9-4.5,4.5-4.5,7.4c0,2.8,1.7,5.5,4.5,7.3c0.7,0.5,1.2,1.1,1.2,1.8
	C105.6,54,105.3,54.6,104.7,55.2z"/>
<path class="st0" d="M64.7,23.4l-0.2-0.2c-0.4,0-0.7,0-1.1,0c-1.1-0.1-2-0.1-2.7,1.2c-2.6,4.8-5.3,9.7-7.9,14.4
	c-1.2,2.2-2.5,4.5-3.7,6.7c-0.2,0.3-0.3,0.7-0.5,1.1l0,0c3,0.5,3.1,0.4,4.5-2.2c1.6-3,3.3-5.9,4.9-8.9c1.3-2.3,2.5-4.5,3.8-6.8
	c0.7-1.3,1.4-2.6,2.2-3.9L64.7,23.4z"/>
<path class="st0" d="M63.9,36.3c-1.5-0.1-2.9,0.5-3.9,1.5s-1.6,2.3-1.6,3.8c0,2.9,2.3,5.3,5.2,5.4c3.1,0.1,5.5-2.1,5.6-5.2
	c0-1.5-0.5-2.8-1.5-3.8C66.8,36.9,65.4,36.3,63.9,36.3z M66.7,42.4c-0.4,1.6-1.4,2.4-2.9,2.4h-0.1c-1.8,0-2.9-1.2-3-3
	c0-1,0.3-1.9,1-2.5c0.6-0.5,1.3-0.7,2.2-0.6c0.8,0.1,1.4,0.6,2,1.2C66.7,40.5,67,41.4,66.7,42.4z"/>
<path class="st0" d="M55.1,28.2c0-1.4-0.6-2.8-1.7-3.8c-1-1-2.3-1.5-3.7-1.5h-0.1c-3,0.1-5.3,2.5-5.3,5.5c0.1,3,2.4,5.3,5.4,5.3
	c0,0,0,0,0.1,0c1.4,0,2.8-0.6,3.8-1.6C54.6,31,55.1,29.7,55.1,28.2z M51.9,30.7c-0.5,0.5-1.3,0.8-2.1,0.8c-0.1,0-0.1,0-0.2,0
	c-1.8-0.1-2.9-1.2-2.9-3.1c0-1.8,1.1-3,3-3.2h0.1h0.1c2,0.2,3.1,1.4,3,3.2C52.8,29.3,52.4,30.1,51.9,30.7z"/>
</svg>
