<?xml version="1.0" encoding="utf-8"?>
<!-- Generator: Adobe Illustrator 28.1.0, SVG Export Plug-In . SVG Version: 6.00 Build 0)  -->
<svg version="1.1" id="圖層_1" xmlns="http://www.w3.org/2000/svg" xmlns:xlink="http://www.w3.org/1999/xlink" x="0px" y="0px"
	 viewBox="0 0 130 70" style="enable-background:new 0 0 130 70;" xml:space="preserve">
<style type="text/css">
	.st0{fill:none;}
	.st1{fill:url(#SVGID_1_);}
	.st2{fill:url(#SVGID_00000081623159095353447440000006846623736661666207_);}
	.st3{fill:url(#SVGID_00000035529002234323622700000008571204696004759686_);}
	.st4{fill:url(#SVGID_00000007387218696082443850000012909927242168874400_);}
</style>
<path class="st0" d="M103.7,52.3c-3.1-2-5-5-5-8.1c0-3.1,1.8-6.1,4.9-8.2c0.5-0.3,0.8-0.7,0.8-1.1c0-0.3-0.3-0.6-0.7-1
	c-3.3-2.2-5.1-5.1-5.1-8.2c0-3.1,1.8-6,5.1-8.1c0.6-0.4,0.9-0.7,0.4-1.8c-0.5-1.1-1.3-1.6-2.6-1.5c-2.2,0-4.3,0-6.5,0l-5.9,0v41.3
	l2.1,0h0.1c3.7,0,7.2,0,10.7-0.1c0.4,0,1.3-0.4,1.9-1c0.3-0.3,0.6-0.7,0.5-1.1C104.5,53,104.2,52.7,103.7,52.3z"/>
<path class="st0" d="M63.8,39.6c-0.1,0-0.2,0-0.3,0c-0.4,0-0.8,0.1-1.1,0.4c-0.4,0.4-0.6,1-0.6,1.7c0,1.3,0.7,2,2,2.1
	c1.1,0.1,1.7-0.5,2-1.7c0.1-0.6,0-1.2-0.5-1.6C64.8,40.1,64.3,39.7,63.8,39.6z"/>
<path class="st0" d="M49.7,26.2c-1.4,0.2-2.1,0.9-2.1,2.2c0,1.3,0.7,2,1.9,2.1c0.7,0,1.2-0.1,1.6-0.5c0.4-0.4,0.6-0.9,0.6-1.5
	C51.8,26.8,50.7,26.3,49.7,26.2z"/>
<path class="st0" d="M82,30.5l0-16.1l-13,0c-11.5,0-23,0-34.4,0l-1.1,0c-2.8,0-4.8-0.1-6.8,1.8c-0.6,0.5-0.8,0.9-1,1.1
	c0.2,0.1,0.4,0.3,0.8,0.6c3,1.9,4.7,4.8,4.7,8c0,3.2-1.7,6.1-4.6,8c-1,0.6-1.2,1.1-1.2,1.2c0,0.1,0.3,0.6,1.2,1.2
	c2.9,1.9,4.6,4.8,4.5,8.1c0,3.2-1.7,6.1-4.7,8c-0.7,0.4-1.1,0.9-1.1,1.3c0,0.4,0.4,0.8,0.7,1c0.8,0.6,2.1,1,3.2,1
	c9,0,18.1,0.1,26.9,0.1h0.6c8.2,0,16.5,0,24.7,0c0.2,0,0.3,0,0.4,0c0-0.1,0-0.3,0-0.5C82,46.9,82,38.5,82,30.5z M43.3,28.4
	c-0.1-3.6,2.7-6.4,6.3-6.5c1.7,0,3.3,0.6,4.6,1.8c1.2,1.2,1.9,2.8,2,4.5c0,1.7-0.6,3.4-1.8,4.6c-1.2,1.2-2.8,1.9-4.5,1.9
	c0,0-0.1,0-0.1,0C46.1,34.7,43.4,32,43.3,28.4z M53.9,44.9c-1.2,2.3-1.8,3-3.4,3c-0.7,0-1.6-0.1-2.8-0.4l-0.6-0.1l0.2-0.6
	c0.1-0.2,0.2-0.4,0.2-0.6c0.2-0.4,0.3-0.8,0.5-1.2c1.2-2.2,2.5-4.5,3.7-6.7c2.6-4.7,5.3-9.6,7.9-14.4c1-1.9,2.5-1.8,3.7-1.7
	c0.4,0,0.8,0.1,1.2,0l0.3,0l0.9,1.2l-1,1.9c-0.7,1.3-1.4,2.6-2.2,4c-1.3,2.3-2.5,4.5-3.8,6.8C57.2,39,55.6,41.9,53.9,44.9z M63.8,48
	c-0.1,0-0.1,0-0.2,0c-3.5-0.1-6.3-3-6.2-6.4c0-1.7,0.7-3.3,1.9-4.5c1.2-1.2,2.9-1.8,4.6-1.8c1.8,0,3.4,0.7,4.6,2
	c1.2,1.2,1.8,2.8,1.7,4.6C70.1,45.4,67.4,48,63.8,48z"/>
<linearGradient id="SVGID_1_" gradientUnits="userSpaceOnUse" x1="44.1534" y1="14.9861" x2="88.1973" y2="57.1839">
	<stop  offset="0.2528" style="stop-color:#823E93"/>
	<stop  offset="1" style="stop-color:#5D318B"/>
</linearGradient>
<path class="st1" d="M106.8,46.9c-1.2-0.7-1.8-1.6-1.8-2.6c0-1.1,0.7-2.3,2.1-3.1c2.3-1.4,3.7-3.8,3.7-6.3c0-2.4-1.3-4.6-3.5-6
	c-1.5-0.9-2.3-2-2.3-3.1c0-1.1,0.8-2.2,2.4-3.2c2.6-1.6,3.7-4.2,3.2-7.3c-0.7-4.3-4.3-7.1-9.2-7.1c-17.4,0-34.8,0-52.2,0l-19.7,0
	c-0.2,0-3.4,0.2-6.3,2.1c-3.4,2.2-3.6,6.7-3.7,6.9l0,0.1l0,0.1c0.1,0.2,0.1,0.5,0.1,0.7c0.3,1.7,1.8,3.4,3.2,4.4
	c1.4,1,2.2,2.2,2.2,3.3c0,1-0.8,2.1-2.2,3c-2.3,1.4-3.6,3.7-3.6,6.1c0,2.5,1.3,4.7,3.7,6.2c1.4,0.9,2.1,1.9,2.2,3
	c0,1.1-0.8,2.1-2.1,3c-3.7,2.4-4.6,6.5-2.4,10.2c1.7,2.8,4.3,4.4,7.7,4.4c24.5,0,49.1,0,73.6,0c0.9,0,2.1-0.1,3.4-0.6
	c3.1-1.2,5-3.6,5.4-7C110.9,51.1,109.7,48.6,106.8,46.9z M83,56.2l-0.1,0.3l-0.3,0.1c-0.2,0.1-0.7,0.1-1,0.1c-8.3,0-16.5,0-24.8,0
	h-0.6c-8.8,0-17.9,0-26.9-0.1c-1.4,0-2.9-0.5-3.8-1.2c-0.7-0.6-1.1-1.2-1-1.9c0-0.8,0.6-1.5,1.5-2.1c2.6-1.6,4.2-4.2,4.2-7.1
	c0-2.9-1.5-5.5-4.1-7.2c-1.1-0.7-1.7-1.4-1.7-2.1c0-0.8,0.9-1.5,1.7-2c2.6-1.7,4.1-4.3,4.1-7.1c0-2.9-1.5-5.5-4.2-7.2
	c-0.6-0.4-0.9-0.7-1.1-0.8h-0.4l0.1-0.6c0-0.2,0.2-0.6,1.4-1.8c2.2-2.1,4.6-2.1,7.4-2.1l1.1,0c11.5,0,23,0,34.4,0l14,0l0,17.1
	c0,8.1,0,16.4,0,24.7C83.1,55.6,83,56,83,56.2z M104.7,55.2c-0.7,0.7-1.8,1.3-2.6,1.3c-2.3,0.1-4.5,0.1-6.8,0.1c-1.3,0-2.6,0-3.9,0
	l-3.2,0V13.4l6.9,0c2.2,0,4.3,0,6.4,0c1.7,0,2.9,0.7,3.5,2.1c0.6,1.4,0.4,2.2-0.8,3c-3,2-4.6,4.5-4.7,7.3c0,2.8,1.6,5.4,4.6,7.4
	c0.8,0.5,1.2,1.1,1.2,1.8c0,0.7-0.5,1.3-1.3,1.9c-2.9,1.9-4.5,4.5-4.5,7.4c0,2.8,1.7,5.5,4.5,7.3c0.7,0.5,1.2,1.1,1.2,1.8
	C105.6,54,105.3,54.6,104.7,55.2z"/>
<linearGradient id="SVGID_00000134231459343792977600000011806689383429993113_" gradientUnits="userSpaceOnUse" x1="40.1003" y1="19.2165" x2="84.1443" y2="61.4143">
	<stop  offset="0.2528" style="stop-color:#823E93"/>
	<stop  offset="1" style="stop-color:#5D318B"/>
</linearGradient>
<path style="fill:url(#SVGID_00000134231459343792977600000011806689383429993113_);" d="M64.7,23.4l-0.2-0.2c-0.4,0-0.7,0-1.1,0
	c-1.1-0.1-2-0.1-2.7,1.2c-2.6,4.8-5.3,9.7-7.9,14.4c-1.2,2.2-2.5,4.5-3.7,6.7c-0.2,0.3-0.3,0.7-0.5,1.1c0,0,0,0,0,0
	c3,0.5,3.1,0.4,4.5-2.2c1.6-3,3.3-5.9,4.9-8.9c1.3-2.3,2.5-4.5,3.8-6.8c0.7-1.3,1.4-2.6,2.2-3.9L64.7,23.4z"/>
<linearGradient id="SVGID_00000146493150444983956710000015334697835235632524_" gradientUnits="userSpaceOnUse" x1="40.2481" y1="19.0622" x2="84.2921" y2="61.26">
	<stop  offset="0.2528" style="stop-color:#823E93"/>
	<stop  offset="1" style="stop-color:#5D318B"/>
</linearGradient>
<path style="fill:url(#SVGID_00000146493150444983956710000015334697835235632524_);" d="M63.9,36.3c-1.5-0.1-2.9,0.5-3.9,1.5
	c-1,1-1.6,2.3-1.6,3.8c0,2.9,2.3,5.3,5.2,5.4c3.1,0.1,5.5-2.1,5.6-5.2c0-1.5-0.5-2.8-1.5-3.8C66.8,36.9,65.4,36.3,63.9,36.3z
	 M66.7,42.4c-0.4,1.6-1.4,2.4-2.9,2.4c0,0-0.1,0-0.1,0c-1.8,0-2.9-1.2-3-3c0-1,0.3-1.9,1-2.5c0.6-0.5,1.3-0.7,2.2-0.6
	c0.8,0.1,1.4,0.6,2,1.2C66.7,40.5,67,41.4,66.7,42.4z"/>
<linearGradient id="SVGID_00000032615667669987316140000004315727977974598291_" gradientUnits="userSpaceOnUse" x1="40.1357" y1="19.1795" x2="84.1797" y2="61.3773">
	<stop  offset="0.2528" style="stop-color:#823E93"/>
	<stop  offset="1" style="stop-color:#5D318B"/>
</linearGradient>
<path style="fill:url(#SVGID_00000032615667669987316140000004315727977974598291_);" d="M55.1,28.2c0-1.4-0.6-2.8-1.7-3.8
	c-1-1-2.3-1.5-3.7-1.5c0,0-0.1,0-0.1,0c-3,0.1-5.3,2.5-5.3,5.5c0.1,3,2.4,5.3,5.4,5.3c0,0,0,0,0.1,0c1.4,0,2.8-0.6,3.8-1.6
	C54.6,31,55.1,29.7,55.1,28.2z M51.9,30.7c-0.5,0.5-1.3,0.8-2.1,0.8c-0.1,0-0.1,0-0.2,0c-1.8-0.1-2.9-1.2-2.9-3.1c0-1.8,1.1-3,3-3.2
	l0.1,0l0.1,0c2,0.2,3.1,1.4,3,3.2C52.8,29.3,52.4,30.1,51.9,30.7z"/>
</svg>
