<?xml version="1.0" encoding="utf-8"?>
<!-- Generator: Adobe Illustrator 28.1.0, SVG Export Plug-In . SVG Version: 6.00 Build 0)  -->
<svg version="1.1" id="圖層_1" xmlns="http://www.w3.org/2000/svg" xmlns:xlink="http://www.w3.org/1999/xlink" x="0px" y="0px"
	 viewBox="0 0 130 70" style="enable-background:new 0 0 130 70;" xml:space="preserve">
<style type="text/css">
	.st0{fill:none;}
	.st1{fill:url(#SVGID_1_);}
	.st2{fill:url(#SVGID_00000072240861238361185100000002007735197465228962_);}
	.st3{fill:url(#SVGID_00000007394010778631631640000001077317838906036902_);}
	.st4{fill:url(#SVGID_00000096033443129332312810000002491342427459553423_);}
	.st5{fill:url(#SVGID_00000034771005839556877010000006317820881511265460_);}
	.st6{fill:url(#SVGID_00000144327056837455496390000014441854671045183899_);}
	.st7{fill:url(#SVGID_00000137829098751230299450000005617950562431931293_);}
</style>
<g>
	<path class="st0" d="M53.1,59.4L53.1,59.4l3.1,3.8l3.1-3.9c0.8-0.8,1.8-0.7,2.6,0l3.1,3.9l3.1-3.9c0.8-0.8,1.8-0.7,2.6,0l3.1,3.9
		l3.1-3.9c0.4-0.4,0.8-0.6,1.3-0.6c0.5,0,1,0.3,1.2,0.7l3.1,3.8c0.8-0.8,1.5-1.6,2.1-2.4l0.2-0.2c0.1-0.1,0.1-0.1,0.1-0.4V15H44.9
		v45.5c0.4,0.5,0.9,1,1.3,1.5c0.4,0.4,0.8,0.9,1.2,1.3l3.2-3.9C51.3,58.7,52.3,58.7,53.1,59.4z"/>
	<path class="st0" d="M86.9,5.2H43.3c-2.7,0-4.8,1.8-5.4,4.5c-0.5,2.4,0.7,4.8,2.9,5.9v-3.2c0-0.9,0.7-1.6,1.6-1.6h45
		c0.9,0,1.6,0.7,1.7,1.5l0,3.3c2.2-1,3.4-3.3,3-5.8C91.9,7.2,89.6,5.2,86.9,5.2z"/>
	
		<linearGradient id="SVGID_1_" gradientUnits="userSpaceOnUse" x1="51.5652" y1="63.2818" x2="88.3565" y2="6.5126" gradientTransform="matrix(1 0 0 -1 0 72)">
		<stop  offset="0.2528" style="stop-color:#823E93"/>
		<stop  offset="1" style="stop-color:#5D318B"/>
	</linearGradient>
	<path class="st1" d="M86.7,1.6H43.3c-4.1,0-7.6,2.6-8.9,6.6c-1.2,3.8,0.4,8,3.7,10.1c0.7,0.4,1.3,0.7,2,1c0.2,0.1,0.4,0.2,0.6,0.3
		c0.1,0,0.1,0,0.2,0.1h0.2l0,0.3v40.7c0,0.8,0.2,1.4,0.5,1.8c0.6,0.7,1.2,1.3,1.7,2c0.6,0.7,1.2,1.4,1.8,2.1l1.2,1.4
		c0.5,0.5,1.3,0.5,1.8,0l3.5-4.3l3.5,4.3c0.5,0.5,1.3,0.5,1.8,0l3.5-4.3l3.5,4.3c0.5,0.5,1.3,0.5,1.8,0l3.5-4.3l3.5,4.3
		c0.2,0.2,0.6,0.4,0.9,0.4c0.3,0,0.7-0.2,0.9-0.4l3.5-4.3l3.5,4.3c0.2,0.2,0.6,0.4,0.9,0.4c0.3,0,0.7-0.2,0.9-0.4l1.3-1.4
		c1.1-1.2,2.1-2.4,3.1-3.6c0.6-0.7,0.8-1.4,0.8-2.3V19.8l0.2-0.1c4.3-1.2,7.2-5.1,6.9-9.3C95.5,5.3,91.6,1.6,86.7,1.6z M85.5,60.3
		c0,0.3,0,0.5-0.3,0.8L85,61.2c-0.7,0.8-1.5,1.7-2.3,2.6l-0.2,0.2L79,59.8c-0.3-0.6-1.2-0.6-1.7-0.1L73.8,64l-3.5-4.3
		c-0.2-0.2-0.6-0.4-0.9-0.4c-0.3,0-0.7,0.2-0.9,0.4L65,64l-3.5-4.3c-0.5-0.5-1.3-0.5-1.8,0L56.2,64l-3.5-4.2c-0.5-0.5-1.3-0.5-1.8,0
		l-3.6,4.3l-0.2-0.2c-0.5-0.5-0.9-1-1.4-1.6c-0.4-0.5-0.9-1-1.3-1.5l-0.1-0.1V14.5h41.1V60.3z M89.1,16.2l-0.3,0.1v-4
		c-0.1-0.6-0.6-1-1.2-1h-45c-0.7,0-1.1,0.5-1.1,1.1v3.9h-0.2c-0.2,0-0.3-0.1-0.3-0.1c-2.5-1.2-3.9-3.9-3.3-6.6
		c0.6-2.9,3-4.9,5.8-4.9h43.6c2.9,0,5.4,2.2,5.8,5C93.2,12.6,91.7,15.2,89.1,16.2z"/>
	
		<linearGradient id="SVGID_00000069366625419347760000000006145731041748414596_" gradientUnits="userSpaceOnUse" x1="57.7414" y1="67.2844" x2="94.5326" y2="10.5152" gradientTransform="matrix(1 0 0 -1 0 72)">
		<stop  offset="0.2528" style="stop-color:#823E93"/>
		<stop  offset="1" style="stop-color:#5D318B"/>
	</linearGradient>
	<path style="fill:url(#SVGID_00000069366625419347760000000006145731041748414596_);" d="M47.2,16.9h35.6c0.3,0,0.6-0.3,0.6-0.6
		v-0.7c0-0.3-0.3-0.6-0.6-0.6H47.2c-0.3,0-0.6,0.3-0.6,0.6v0.7C46.7,16.6,46.9,16.9,47.2,16.9z"/>
	
		<linearGradient id="SVGID_00000104679419613191343840000015951097613120256945_" gradientUnits="userSpaceOnUse" x1="54.3596" y1="65.0927" x2="91.1508" y2="8.3235" gradientTransform="matrix(1 0 0 -1 0 72)">
		<stop  offset="0.2528" style="stop-color:#823E93"/>
		<stop  offset="1" style="stop-color:#5D318B"/>
	</linearGradient>
	<path style="fill:url(#SVGID_00000104679419613191343840000015951097613120256945_);" d="M47.7,24.2c0.1,0,0.1,0,0.2,0H48
		c11.3,0,22.6,0,33.9,0c0.2,0,0.4,0,0.5,0h0.3c0.2,0,0.5-0.2,0.5-0.4c0-0.2,0.2-0.8-0.1-1.2c-0.3-0.4-0.8-0.3-1.1-0.3
		c-0.1,0-0.1,0-0.2,0l0,0c-11.3,0-22.5,0-33.8,0c-0.2,0-0.4,0-0.6,0h-0.2c-0.2,0-0.4,0.2-0.5,0.4c-0.1,0.2-0.2,0.7,0.1,1.2
		C47.1,24.2,47.4,24.2,47.7,24.2z"/>
	
		<linearGradient id="SVGID_00000047777798348310188290000013451542840344599728_" gradientUnits="userSpaceOnUse" x1="51.119" y1="62.9925" x2="87.9102" y2="6.2233" gradientTransform="matrix(1 0 0 -1 0 72)">
		<stop  offset="0.2528" style="stop-color:#823E93"/>
		<stop  offset="1" style="stop-color:#5D318B"/>
	</linearGradient>
	<path style="fill:url(#SVGID_00000047777798348310188290000013451542840344599728_);" d="M47.3,31.5h35.5c0.3,0,0.6-0.3,0.6-0.6
		v-0.8c0-0.3-0.3-0.6-0.6-0.6H47.2c-0.2,0-0.3,0.1-0.4,0.2c-0.1,0.1-0.2,0.3-0.1,0.4l0.1,0.8C46.7,31.3,47,31.5,47.3,31.5z"/>
	
		<linearGradient id="SVGID_00000063628869496926711480000010728718088093479564_" gradientUnits="userSpaceOnUse" x1="47.7198" y1="60.7896" x2="84.511" y2="4.0203" gradientTransform="matrix(1 0 0 -1 0 72)">
		<stop  offset="0.2528" style="stop-color:#823E93"/>
		<stop  offset="1" style="stop-color:#5D318B"/>
	</linearGradient>
	<path style="fill:url(#SVGID_00000063628869496926711480000010728718088093479564_);" d="M83,37L83,37c-0.1-0.1-0.2-0.1-0.4-0.1
		h-8.2c-8.9,0-17.8,0-26.6,0c-0.2,0-0.7,0-1,0.4c-0.3,0.3-0.2,0.8-0.1,1.1c0.1,0.2,0.3,0.4,0.5,0.4h35.6c0.2,0,0.3-0.1,0.4-0.2
		c0.1-0.1,0.2-0.3,0.1-0.4l-0.1-0.7C83.3,37.3,83.2,37.1,83,37z"/>
	
		<linearGradient id="SVGID_00000170984177754007108910000003887814496821982109_" gradientUnits="userSpaceOnUse" x1="44.3944" y1="58.6345" x2="81.1856" y2="1.8653" gradientTransform="matrix(1 0 0 -1 0 72)">
		<stop  offset="0.2528" style="stop-color:#823E93"/>
		<stop  offset="1" style="stop-color:#5D318B"/>
	</linearGradient>
	<path style="fill:url(#SVGID_00000170984177754007108910000003887814496821982109_);" d="M47.3,46.2h35.5c0.3,0,0.5-0.2,0.6-0.5
		v-0.8c0-0.2,0-0.3-0.2-0.4c-0.1-0.1-0.3-0.2-0.4-0.2H47.2c-0.2,0-0.3,0.1-0.4,0.2c-0.1,0.1-0.2,0.3-0.1,0.4l0.1,0.8
		C46.7,46,47,46.2,47.3,46.2z"/>
	
		<linearGradient id="SVGID_00000107570696711204746350000006822039392567636382_" gradientUnits="userSpaceOnUse" x1="40.9989" y1="56.4339" x2="77.7901" y2="-0.3353" gradientTransform="matrix(1 0 0 -1 0 72)">
		<stop  offset="0.2528" style="stop-color:#823E93"/>
		<stop  offset="1" style="stop-color:#5D318B"/>
	</linearGradient>
	<path style="fill:url(#SVGID_00000107570696711204746350000006822039392567636382_);" d="M83.2,53.3c0.1-0.1,0.2-0.3,0.2-0.4v-0.7
		c0-0.3-0.3-0.5-0.6-0.5H47.2c-0.2,0-0.3,0.1-0.4,0.2c-0.1,0.1-0.2,0.3-0.2,0.4V53c0,0.3,0.3,0.5,0.6,0.5h35.6
		C83,53.5,83.1,53.4,83.2,53.3z"/>
</g>
</svg>
