<?xml version="1.0" encoding="utf-8"?>
<!-- Generator: Adobe Illustrator 28.1.0, SVG Export Plug-In . SVG Version: 6.00 Build 0)  -->
<svg version="1.1" id="圖層_1" xmlns="http://www.w3.org/2000/svg" xmlns:xlink="http://www.w3.org/1999/xlink" x="0px" y="0px"
	 viewBox="0 0 130 70" style="enable-background:new 0 0 130 70;" xml:space="preserve">
<style type="text/css">
	.st0{fill:url(#SVGID_1_);}
	.st1{fill:url(#SVGID_00000118356237298272903660000004799570796632940962_);}
	.st2{fill:url(#SVGID_00000077313734608529325400000013204418308038402480_);}
	.st3{fill:url(#SVGID_00000057117801208397315300000017894935132455813254_);}
	.st4{fill:url(#SVGID_00000016760474331035083010000012315907742757544330_);}
	.st5{fill:url(#SVGID_00000121966469592793997720000017359996610532499587_);}
	.st6{fill:url(#SVGID_00000168838363015815326040000007622639668799358597_);}
	.st7{fill:url(#SVGID_00000142876453651044214230000003541229819128658585_);}
	.st8{fill:url(#SVGID_00000101065067199438132180000016949429020331504038_);}
	.st9{fill:url(#SVGID_00000016784152423125683830000017653694626245353135_);}
	.st10{fill:url(#SVGID_00000120532538748087677440000007274509294733797262_);}
	.st11{fill:url(#SVGID_00000156587059225755075780000005147272286124860572_);}
</style>
<g>
	<linearGradient id="SVGID_1_" gradientUnits="userSpaceOnUse" x1="35.3237" y1="16.1892" x2="80.95" y2="60.7606">
		<stop  offset="0.2528" style="stop-color:#823E93"/>
		<stop  offset="1" style="stop-color:#5D318B"/>
	</linearGradient>
	<path class="st0" d="M95.4,44h-61c-0.6,0-1.1,0.5-1.1,1.1s0.5,1.1,1.1,1.1h61c0.6,0,1.1-0.5,1.1-1.1S96,44,95.4,44z"/>
	
		<linearGradient id="SVGID_00000033361449541509091720000001211823127917645239_" gradientUnits="userSpaceOnUse" x1="28.5842" y1="23.0882" x2="74.2106" y2="67.6596">
		<stop  offset="0.2528" style="stop-color:#823E93"/>
		<stop  offset="1" style="stop-color:#5D318B"/>
	</linearGradient>
	<path style="fill:url(#SVGID_00000033361449541509091720000001211823127917645239_);" d="M86.4,50.4h-1.5c-0.3,0-0.6,0.1-0.7,0.3
		c-0.2,0.2-0.3,0.5-0.3,0.7v1.6c0,3.9,0,5,0,9.9c0,1.6-0.6,2.2-2.2,2.2c-10.5,0.1-21.5,0.2-33.7,0.2c-0.6,0-1.1-0.2-1.4-0.5
		c-0.3-0.3-0.5-0.8-0.5-1.4l0-12.1c0-0.6-0.5-1.1-1.1-1.1h-1.5c-0.3,0-0.5,0.1-0.7,0.3c-0.2,0.2-0.3,0.5-0.3,0.7v2.4
		c0,3.1,0,5.1,0,9.8c0,1.5,0.6,3,1.6,4c1,1,2.3,1.5,3.8,1.5c11.5-0.1,22.9-0.1,34.1-0.2c3.4,0,5.6-2.3,5.6-5.7c0-4.2,0-5.3,0-8
		l0-3.7C87.4,50.9,87,50.4,86.4,50.4z"/>
	
		<linearGradient id="SVGID_00000086661305771726271920000012487623947569570980_" gradientUnits="userSpaceOnUse" x1="47.8159" y1="3.4013" x2="93.4423" y2="47.9727">
		<stop  offset="0.2528" style="stop-color:#823E93"/>
		<stop  offset="1" style="stop-color:#5D318B"/>
	</linearGradient>
	<path style="fill:url(#SVGID_00000086661305771726271920000012487623947569570980_);" d="M43.4,37h1.5c0.3,0,0.6-0.1,0.7-0.3
		c0.2-0.2,0.3-0.5,0.3-0.7l0-9.3c0-6.6,0-13.3,0-19.9c0-1.8,0.6-2.4,2.3-2.4c10.4-0.1,21-0.1,31.2-0.2l2.5,0c0.2,0,0.4,0,0.6,0
		c0.9,0.4,1.3,1,1.3,2.1c0,2.3,0,4.7,0,7c0,1.8,0,3.7,0,5.5l0,17.2c0,0.6,0.5,1.1,1.1,1.1h1.5c0.6,0,1.1-0.5,1.1-1.1l0-5.2
		c0-8.1,0-16.3,0-24.4c0-1.7-0.5-3.1-1.6-4.2c-1-1-2.5-1.6-4.2-1.6l-0.1,0c-3.2,0-6.4,0-9.7,0.1l-0.4,0c-2.3,0-4.6,0-6.9,0l-2.1,0
		c-4.9,0-9.9,0.1-14.8,0.1c-2.4,0-4.1,1.3-5.1,3.7c0,0.1-0.1,0.2-0.1,0.3c0,0.1,0,0.2-0.1,0.3c-0.1,0.4-0.2,0.9-0.2,1.4
		c0,2.9,0,5.8,0,8.7l0,20.7C42.3,36.6,42.8,37,43.4,37z"/>
	
		<linearGradient id="SVGID_00000170238229699934974420000001397547356478279583_" gradientUnits="userSpaceOnUse" x1="54.649" y1="-3.5935" x2="100.2753" y2="40.9779">
		<stop  offset="0.2528" style="stop-color:#823E93"/>
		<stop  offset="1" style="stop-color:#5D318B"/>
	</linearGradient>
	<path style="fill:url(#SVGID_00000170238229699934974420000001397547356478279583_);" d="M69,6.4c0-0.4-0.3-0.7-0.7-0.7l-6.7,0
		c-0.4,0-0.7,0.3-0.7,0.7s0.3,0.7,0.7,0.7l6.7,0C68.7,7.2,69,6.8,69,6.4z"/>
	
		<linearGradient id="SVGID_00000089532627593096889080000010767498034453955486_" gradientUnits="userSpaceOnUse" x1="40.4345" y1="10.9574" x2="86.0609" y2="55.5288">
		<stop  offset="0.2528" style="stop-color:#823E93"/>
		<stop  offset="1" style="stop-color:#5D318B"/>
	</linearGradient>
	<path style="fill:url(#SVGID_00000089532627593096889080000010767498034453955486_);" d="M50.2,17c-0.4,0-0.7,0.3-0.7,0.7l0,8
		c0,0.4,0.3,0.7,0.7,0.7l2.6,0c0.4,0,0.7-0.3,0.7-0.7l0-8c0-0.4-0.3-0.7-0.7-0.7L50.2,17z"/>
	
		<linearGradient id="SVGID_00000023267663053440094150000003428795976146167684_" gradientUnits="userSpaceOnUse" x1="50.0389" y1="1.1257" x2="95.6653" y2="45.6971">
		<stop  offset="0.2528" style="stop-color:#823E93"/>
		<stop  offset="1" style="stop-color:#5D318B"/>
	</linearGradient>
	<path style="fill:url(#SVGID_00000023267663053440094150000003428795976146167684_);" d="M69.9,17c-0.4,0-0.7,0.3-0.7,0.7l0,8
		c0,0.4,0.3,0.7,0.7,0.7l2.6,0c0.4,0,0.7-0.3,0.7-0.7l0-8c0-0.4-0.3-0.7-0.7-0.7L69.9,17z"/>
	
		<linearGradient id="SVGID_00000119813629824801664090000002207417486664501939_" gradientUnits="userSpaceOnUse" x1="42.8118" y1="8.5238" x2="88.4381" y2="53.0953">
		<stop  offset="0.2528" style="stop-color:#823E93"/>
		<stop  offset="1" style="stop-color:#5D318B"/>
	</linearGradient>
	<path style="fill:url(#SVGID_00000119813629824801664090000002207417486664501939_);" d="M55.5,17c-0.4,0-0.7,0.3-0.7,0.7l0,8
		c0,0.4,0.3,0.7,0.7,0.7l1.9,0c0.4,0,0.7-0.3,0.7-0.7l0-8c0-0.4-0.3-0.7-0.7-0.7L55.5,17z"/>
	
		<linearGradient id="SVGID_00000023282500686408165020000016676092841267803033_" gradientUnits="userSpaceOnUse" x1="44.6768" y1="6.6147" x2="90.3031" y2="51.1861">
		<stop  offset="0.2528" style="stop-color:#823E93"/>
		<stop  offset="1" style="stop-color:#5D318B"/>
	</linearGradient>
	<path style="fill:url(#SVGID_00000023282500686408165020000016676092841267803033_);" d="M59.9,17c-0.4,0-0.7,0.3-0.7,0.7l0,8
		c0,0.4,0.3,0.7,0.7,0.7l0.7,0c0.4,0,0.7-0.3,0.7-0.7l0-8c0-0.4-0.3-0.7-0.7-0.7L59.9,17z"/>
	
		<linearGradient id="SVGID_00000132767643241056944970000017309248168924732314_" gradientUnits="userSpaceOnUse" x1="46.3273" y1="4.9251" x2="91.9537" y2="49.4965">
		<stop  offset="0.2528" style="stop-color:#823E93"/>
		<stop  offset="1" style="stop-color:#5D318B"/>
	</linearGradient>
	<path style="fill:url(#SVGID_00000132767643241056944970000017309248168924732314_);" d="M63.3,17c-0.4,0-0.7,0.3-0.7,0.7l0,8
		c0,0.4,0.3,0.7,0.7,0.7l0.7,0c0.4,0,0.7-0.3,0.7-0.7l0-8c0-0.4-0.3-0.7-0.7-0.7L63.3,17z"/>
	
		<linearGradient id="SVGID_00000034092029035683978300000010692069747442429365_" gradientUnits="userSpaceOnUse" x1="47.9909" y1="3.2222" x2="93.6173" y2="47.7936">
		<stop  offset="0.2528" style="stop-color:#823E93"/>
		<stop  offset="1" style="stop-color:#5D318B"/>
	</linearGradient>
	<path style="fill:url(#SVGID_00000034092029035683978300000010692069747442429365_);" d="M66.7,17c-0.4,0-0.7,0.3-0.7,0.7l0,8
		c0,0.4,0.3,0.7,0.7,0.7l0.7,0c0.4,0,0.7-0.3,0.7-0.7l0-8c0-0.4-0.3-0.7-0.7-0.7L66.7,17z"/>
	
		<linearGradient id="SVGID_00000030488376645449725040000014418389091278842267_" gradientUnits="userSpaceOnUse" x1="52.2537" y1="-1.1416" x2="97.8801" y2="43.4298">
		<stop  offset="0.2528" style="stop-color:#823E93"/>
		<stop  offset="1" style="stop-color:#5D318B"/>
	</linearGradient>
	<path style="fill:url(#SVGID_00000030488376645449725040000014418389091278842267_);" d="M75.4,17c-0.4,0-0.7,0.3-0.7,0.7l0,8
		c0,0.4,0.3,0.7,0.7,0.7l0.7,0c0.4,0,0.7-0.3,0.7-0.7l0-8c0-0.4-0.3-0.7-0.7-0.7L75.4,17z"/>
	
		<linearGradient id="SVGID_00000164489978429379634500000009968947945309609094_" gradientUnits="userSpaceOnUse" x1="53.9173" y1="-2.8445" x2="99.5437" y2="41.7269">
		<stop  offset="0.2528" style="stop-color:#823E93"/>
		<stop  offset="1" style="stop-color:#5D318B"/>
	</linearGradient>
	<path style="fill:url(#SVGID_00000164489978429379634500000009968947945309609094_);" d="M78.8,17.1c-0.4,0-0.7,0.3-0.7,0.7l0,8
		c0,0.4,0.3,0.7,0.7,0.7l0.7,0c0.4,0,0.7-0.3,0.7-0.7l0-8c0-0.4-0.3-0.7-0.7-0.7L78.8,17.1z"/>
</g>
</svg>
