<?xml version="1.0" encoding="utf-8"?>
<!-- Generator: Adobe Illustrator 28.1.0, SVG Export Plug-In . SVG Version: 6.00 Build 0)  -->
<svg version="1.1" id="圖層_1" xmlns="http://www.w3.org/2000/svg" xmlns:xlink="http://www.w3.org/1999/xlink" x="0px" y="0px"
	 viewBox="0 0 130 70" style="enable-background:new 0 0 130 70;" xml:space="preserve">
<style type="text/css">
	.st0{fill:#FFFFFF;}
</style>
<g>
	<path class="st0" d="M95.4,44h-61c-0.6,0-1.1,0.5-1.1,1.1s0.5,1.1,1.1,1.1h61c0.6,0,1.1-0.5,1.1-1.1S96,44,95.4,44z"/>
	<path class="st0" d="M86.4,50.4h-1.5c-0.3,0-0.6,0.1-0.7,0.3c-0.2,0.2-0.3,0.5-0.3,0.7V53c0,3.9,0,5,0,9.9c0,1.6-0.6,2.2-2.2,2.2
		c-10.5,0.1-21.5,0.2-33.7,0.2c-0.6,0-1.1-0.2-1.4-0.5c-0.3-0.3-0.5-0.8-0.5-1.4V51.3c0-0.6-0.5-1.1-1.1-1.1h-1.5
		c-0.3,0-0.5,0.1-0.7,0.3s-0.3,0.5-0.3,0.7v2.4c0,3.1,0,5.1,0,9.8c0,1.5,0.6,3,1.6,4s2.3,1.5,3.8,1.5c11.5-0.1,22.9-0.1,34.1-0.2
		c3.4,0,5.6-2.3,5.6-5.7c0-4.2,0-5.3,0-8v-3.7C87.4,50.9,87,50.4,86.4,50.4z"/>
	<path class="st0" d="M43.4,37h1.5c0.3,0,0.6-0.1,0.7-0.3c0.2-0.2,0.3-0.5,0.3-0.7v-9.3c0-6.6,0-13.3,0-19.9c0-1.8,0.6-2.4,2.3-2.4
		c10.4-0.1,21-0.1,31.2-0.2h2.5c0.2,0,0.4,0,0.6,0c0.9,0.4,1.3,1,1.3,2.1c0,2.3,0,4.7,0,7c0,1.8,0,3.7,0,5.5V36
		c0,0.6,0.5,1.1,1.1,1.1h1.5c0.6,0,1.1-0.5,1.1-1.1v-5.2c0-8.1,0-16.3,0-24.4c0-1.7-0.5-3.1-1.6-4.2c-1-1-2.5-1.6-4.2-1.6h-0.1
		c-3.2,0-6.4,0-9.7,0.1h-0.4c-2.3,0-4.6,0-6.9,0h-2.1c-4.9,0-9.9,0.1-14.8,0.1c-2.4,0-4.1,1.3-5.1,3.7c0,0.1-0.1,0.2-0.1,0.3
		c0,0.1,0,0.2-0.1,0.3c-0.1,0.4-0.2,0.9-0.2,1.4c0,2.9,0,5.8,0,8.7v20.7C42.3,36.6,42.8,37,43.4,37z"/>
	<path class="st0" d="M69,6.4c0-0.4-0.3-0.7-0.7-0.7h-6.7c-0.4,0-0.7,0.3-0.7,0.7s0.3,0.7,0.7,0.7h6.7C68.7,7.2,69,6.8,69,6.4z"/>
	<path class="st0" d="M50.2,17c-0.4,0-0.7,0.3-0.7,0.7v8c0,0.4,0.3,0.7,0.7,0.7h2.6c0.4,0,0.7-0.3,0.7-0.7v-8c0-0.4-0.3-0.7-0.7-0.7
		H50.2z"/>
	<path class="st0" d="M69.9,17c-0.4,0-0.7,0.3-0.7,0.7v8c0,0.4,0.3,0.7,0.7,0.7h2.6c0.4,0,0.7-0.3,0.7-0.7v-8c0-0.4-0.3-0.7-0.7-0.7
		H69.9z"/>
	<path class="st0" d="M55.5,17c-0.4,0-0.7,0.3-0.7,0.7v8c0,0.4,0.3,0.7,0.7,0.7h1.9c0.4,0,0.7-0.3,0.7-0.7v-8c0-0.4-0.3-0.7-0.7-0.7
		H55.5z"/>
	<path class="st0" d="M59.9,17c-0.4,0-0.7,0.3-0.7,0.7v8c0,0.4,0.3,0.7,0.7,0.7h0.7c0.4,0,0.7-0.3,0.7-0.7v-8c0-0.4-0.3-0.7-0.7-0.7
		H59.9z"/>
	<path class="st0" d="M63.3,17c-0.4,0-0.7,0.3-0.7,0.7v8c0,0.4,0.3,0.7,0.7,0.7H64c0.4,0,0.7-0.3,0.7-0.7v-8c0-0.4-0.3-0.7-0.7-0.7
		H63.3z"/>
	<path class="st0" d="M66.7,17c-0.4,0-0.7,0.3-0.7,0.7v8c0,0.4,0.3,0.7,0.7,0.7h0.7c0.4,0,0.7-0.3,0.7-0.7v-8c0-0.4-0.3-0.7-0.7-0.7
		H66.7z"/>
	<path class="st0" d="M75.4,17c-0.4,0-0.7,0.3-0.7,0.7v8c0,0.4,0.3,0.7,0.7,0.7h0.7c0.4,0,0.7-0.3,0.7-0.7v-8c0-0.4-0.3-0.7-0.7-0.7
		H75.4z"/>
	<path class="st0" d="M78.8,17.1c-0.4,0-0.7,0.3-0.7,0.7v8c0,0.4,0.3,0.7,0.7,0.7h0.7c0.4,0,0.7-0.3,0.7-0.7v-8
		c0-0.4-0.3-0.7-0.7-0.7H78.8z"/>
</g>
</svg>
