<?xml version="1.0" encoding="utf-8"?>
<!-- Generator: Adobe Illustrator 28.1.0, SVG Export Plug-In . SVG Version: 6.00 Build 0)  -->
<svg version="1.1" id="圖層_1" xmlns="http://www.w3.org/2000/svg" xmlns:xlink="http://www.w3.org/1999/xlink" x="0px" y="0px"
	 viewBox="0 0 130 70" style="enable-background:new 0 0 130 70;" xml:space="preserve">
<style type="text/css">
	.st0{fill:#FFFFFF;}
</style>
<g>
	<path class="st0" d="M47.1,33.1c-1.4,0-2.5,1.1-2.5,2.5s1.1,2.5,2.5,2.5s2.5-1.1,2.5-2.5C49.6,34.2,48.4,33.1,47.1,33.1z
		 M47.1,36.4c-0.4,0-0.8-0.3-0.8-0.8s0.3-0.8,0.8-0.8c0.4,0,0.8,0.3,0.8,0.8C47.9,36,47.6,36.4,47.1,36.4z"/>
	<path class="st0" d="M39.1,33.1c-1.4,0-2.5,1.1-2.5,2.5s1.1,2.5,2.5,2.5s2.5-1.1,2.5-2.5C41.6,34.2,40.5,33.1,39.1,33.1z
		 M39.1,36.4c-0.4,0-0.8-0.3-0.8-0.8c0.1-0.5,0.4-0.8,0.8-0.8c0.4,0,0.8,0.3,0.8,0.8C39.9,36,39.5,36.4,39.1,36.4z"/>
	<path class="st0" d="M39.1,39.2c-1.4,0-2.5,1.1-2.5,2.5s1.1,2.5,2.5,2.5s2.5-1.1,2.5-2.5S40.5,39.2,39.1,39.2z M39.1,42.5
		c-0.4,0-0.8-0.3-0.8-0.8s0.4-0.8,0.8-0.8c0.4,0,0.8,0.3,0.8,0.8S39.5,42.5,39.1,42.5z"/>
	<path class="st0" d="M39.1,45c-1.4,0-2.5,1.1-2.5,2.5s1.1,2.5,2.5,2.5s2.5-1.1,2.5-2.5S40.5,45,39.1,45z M39.1,48.2
		c-0.4,0-0.8-0.3-0.8-0.8s0.4-0.8,0.8-0.8c0.4,0,0.8,0.3,0.8,0.8S39.5,48.2,39.1,48.2z"/>
	<path class="st0" d="M47.1,39.2c-1.4,0-2.5,1.1-2.5,2.5s1.1,2.5,2.5,2.5s2.5-1.1,2.5-2.5C49.5,40.3,48.4,39.2,47.1,39.2z
		 M47.1,42.5c-0.4,0-0.8-0.3-0.8-0.8s0.3-0.8,0.8-0.8c0.4,0,0.8,0.3,0.8,0.8S47.6,42.5,47.1,42.5z"/>
	<path class="st0" d="M47.1,45c-1.4,0-2.5,1.1-2.5,2.5s1.1,2.5,2.5,2.5s2.5-1.1,2.5-2.5S48.4,45,47.1,45z M47.1,48.2
		c-0.4,0-0.8-0.3-0.8-0.8s0.3-0.8,0.8-0.8c0.4,0,0.8,0.3,0.8,0.8S47.6,48.2,47.1,48.2z"/>
	<path class="st0" d="M56.6,52.3c2.8,0,5.1-2.4,5.1-5.3V23.7c0-2.9-2.4-5.3-5.3-5.3H37.8c-2.9,0-5.3,2.4-5.3,5.3V47
		c0,2.9,2.4,5.3,5.3,5.3h18.6C56.5,52.3,56.5,52.3,56.6,52.3z M56.4,50.1H37.8c-1.7,0-3.1-1.4-3.1-3.1V23.7c0-1.7,1.4-3.1,3.1-3.1
		h18.6c1.7,0,3.1,1.4,3.1,3.1V47C59.5,48.7,58.1,50.1,56.4,50.1z"/>
	<path class="st0" d="M36.4,31.7h21.4v-9.8H36.4V31.7z M38.1,23.5h18V30h-18V23.5z"/>
	<path class="st0" d="M55,39.2c-1.4,0-2.5,1.1-2.5,2.5s1.1,2.5,2.5,2.5s2.5-1.1,2.5-2.5S56.4,39.2,55,39.2z M55,42.5
		c-0.4,0-0.8-0.3-0.8-0.8s0.4-0.8,0.8-0.8s0.8,0.3,0.8,0.8S55.4,42.5,55,42.5z"/>
	<path class="st0" d="M55,33.1c-1.4,0-2.5,1.1-2.5,2.5S53.6,38,55,38s2.5-1.1,2.5-2.5S56.4,33.1,55,33.1z M55,36.4
		c-0.4,0-0.8-0.3-0.8-0.8s0.4-0.8,0.8-0.8s0.8,0.3,0.8,0.8C55.8,36,55.4,36.4,55,36.4z"/>
	<path class="st0" d="M55,45c-1.4,0-2.5,1.1-2.5,2.5S53.6,50,55,50s2.5-1.1,2.5-2.5S56.4,45,55,45z M55,48.2c-0.4,0-0.8-0.3-0.8-0.8
		s0.4-0.8,0.8-0.8s0.8,0.3,0.8,0.8S55.4,48.2,55,48.2z"/>
	<path class="st0" d="M84.5,2.5H55c-3.1,0-5.6,2.5-5.6,5.6v8.1h3.4V8.1c0-1.2,1-2.2,2.2-2.2h27.9V12c0,2.6,2.1,4.7,4.7,4.7h6.2v45.2
		c0,1.2-1,2.2-2.2,2.2H55c-1.2,0-2.2-1-2.2-2.2v-5.4h-3.4v5.4c0,3.1,2.5,5.6,5.6,5.6h36.6c3.1,0,5.6-2.5,5.6-5.6V15.2L84.5,2.5z
		 M87.6,15.1c-1.7,0-3.1-1.4-3.1-3.1V7.4h0.1l7.7,7.7H87.6z"/>
	<path class="st0" d="M56.6,10.2h24c0.6,0,1-0.4,1-1s-0.4-1-1-1h-24c-0.6,0-1,0.4-1,1S56.1,10.2,56.6,10.2z"/>
	<path class="st0" d="M56.6,14.9h24c0.6,0,1-0.4,1-1s-0.4-1-1-1h-24c-0.6,0-1,0.4-1,1C55.6,14.4,56.1,14.9,56.6,14.9z"/>
	<path class="st0" d="M89.3,22.5h-24c-0.6,0-1,0.4-1,1s0.4,1,1,1h24c0.6,0,1-0.4,1-1S89.8,22.5,89.3,22.5z"/>
	<path class="st0" d="M89.3,27.2h-24c-0.6,0-1,0.4-1,1s0.4,1,1,1h24c0.6,0,1-0.4,1-1S89.8,27.2,89.3,27.2z"/>
	<path class="st0" d="M89.3,52.7h-24c-0.6,0-1,0.4-1,1s0.4,1,1,1h24c0.6,0,1-0.4,1-1C90.3,53.1,89.8,52.7,89.3,52.7z"/>
	<path class="st0" d="M89.3,57.3h-24c-0.6,0-1,0.4-1,1s0.4,1,1,1h24c0.6,0,1-0.4,1-1C90.3,57.8,89.8,57.3,89.3,57.3z"/>
	<path class="st0" d="M75.7,45.2c-0.3-0.3-0.5-0.9-0.6-1.7L75,43.1l-2.4,0.5V44c0.1,0.9,0.3,1.7,0.7,2.3c0.4,0.6,0.9,1.1,1.5,1.4
		c0.5,0.2,1,0.4,1.7,0.5v1.7h1.8v-1.6c1-0.1,1.9-0.6,2.6-1.3c0.8-0.8,1.2-1.8,1.2-3.1c0-0.6-0.1-1.1-0.3-1.6S81.3,41.4,81,41
		c-0.3-0.3-0.8-0.6-1.3-0.9c-0.2-0.1-0.7-0.2-1.3-0.4V36c0.2,0.1,0.4,0.2,0.5,0.4c0.2,0.3,0.4,0.7,0.5,1.2l0.1,0.4l2.5-0.4l-0.1-0.4
		c-0.2-1.1-0.6-2-1.4-2.6c-0.5-0.4-1.2-0.7-2.1-0.9v-0.8h-1.8v0.8c-1,0.1-1.7,0.5-2.3,0.9c-0.9,0.8-1.3,1.8-1.3,3.1
		c0,0.7,0.2,1.4,0.5,1.9c0.3,0.6,0.8,1,1.3,1.3c0.6,0.3,1.2,0.6,1.8,0.7v4.2C76.3,45.8,76,45.6,75.7,45.2z M78.4,42.2
		c0.6,0.2,0.8,0.5,1,0.6c0.2,0.3,0.3,0.7,0.3,1.1c0,0.6-0.2,1-0.5,1.4c-0.3,0.3-0.5,0.5-0.8,0.6V42.2z M75.8,38.7
		c-0.2-0.3-0.4-0.7-0.4-1.1c0-0.4,0.1-0.8,0.4-1.1s0.5-0.5,0.8-0.6v3.3C76.2,39,76,38.9,75.8,38.7z"/>
</g>
</svg>
