<?xml version="1.0" encoding="utf-8"?>
<!-- Generator: Adobe Illustrator 28.1.0, SVG Export Plug-In . SVG Version: 6.00 Build 0)  -->
<svg version="1.1" id="圖層_1" xmlns="http://www.w3.org/2000/svg" xmlns:xlink="http://www.w3.org/1999/xlink" x="0px" y="0px"
	 viewBox="0 0 130 70" style="enable-background:new 0 0 130 70;" xml:space="preserve">
<style type="text/css">
	.st0{fill:#FFFFFF;}
</style>
<g>
	<path class="st0" d="M95,24.8c-0.7-0.8-1.6-1.3-2.5-1.6c0.3-0.4,0.6-0.8,1-1.1c1.9-2.3,1.9-5.7-0.1-7.8c-0.7-0.8-1.6-1.3-2.6-1.5
		c1.6-2.3,1.3-5.4-0.6-7.3c-1.1-1.1-2.6-1.7-4.2-1.6c-1.3,0.1-2.6,0.7-3.5,1.6c-0.4-0.9-1-1.7-1.8-2.2c-2.3-1.7-5.4-1.3-7.2,0.8
		c-3.6,4.3-7.4,8.4-11.3,12.3c0,0-0.1,0.1-0.1,0.2l0,0c-1.8-0.9-3.8-0.6-5.2,0.7c-5.7,5.3-11.7,10.2-18.1,14.6
		c-5.6,3.9-6.9,11.9-3,18.1l0,0l0,0l5.8,9.2c1.9,3,5,5.2,8.5,5.9c0.9,0.2,1.8,0.3,2.7,0.3c2.8,0,5.5-0.9,7.8-2.5l1.2-0.9
		c0.7-0.5,0.9-1.5,0.4-2.2s-1.5-0.9-2.2-0.4l-1,0.8c-2.4,1.7-5.3,2.3-8.1,1.7s-5.1-2.2-6.5-4.5l-5.8-9.2l0,0
		c-3-4.8-2.1-10.9,2.2-13.9c6.4-4.5,12.6-9.5,18.4-14.9c0.7-0.6,1.5-0.3,1.7-0.2c0.6,0.3,1.3,1,1.2,2c-0.1,1.7-1,3.3-2.7,4.8
		c-3.4,3-5.7,5-6.7,5.7c-0.3,0.2-0.5,0.5-0.6,0.9l0,0c0,0,0,0,0,0.1s0,0.1,0,0.2c0,0.1,0,0.2,0,0.3s0,0.3,0.1,0.5s0.1,0.3,0.2,0.4
		l0,0c0.1,0.1,0.2,0.2,0.3,0.3c2.4,1.8,5.8,5.8,1.9,11.4c-0.5,0.7-0.3,1.7,0.4,2.2s1.7,0.3,2.2-0.4c4-5.8,2.2-11-1.2-14.4
		c1.5-1.3,3.7-3.1,5.4-4.6c0.7-0.6,1.3-1.3,1.8-1.9l6.3,7l0,0l0,0l6.9,7.7c0.3,0.3,0.7,0.5,1.2,0.5c0.4,0,0.7-0.1,1-0.4
		c0.6-0.6,0.7-1.6,0.1-2.2l-0.6-0.7c3.8-3.6,7.6-7.5,11.1-11.4l0,0l0,0c0.5-0.5,1.1-0.8,1.8-0.8l0,0c0.6,0,1.2,0.3,1.7,0.8
		c0.8,0.9,0.7,2.6-0.3,3.7c-3.2,3.5-6.5,7-9.9,10.3c-0.6,0.6-0.6,1.6,0,2.2c0.3,0.3,0.7,0.5,1.1,0.5s0.8-0.1,1.1-0.4
		c3.5-3.3,6.8-6.8,10.1-10.4C96.8,30.4,96.9,26.9,95,24.8z M84.8,7.7C85.1,7.3,85.7,7,86.3,7c0.7,0,1.3,0.2,1.8,0.7
		c0.9,0.9,0.9,2.5,0.1,3.5c-0.9,1.1-1.8,2.3-2.8,3.4l0,0l0,0c-4.6,5.5-9.5,10.7-14.6,15.6l-3.2-3.6c5.1-4.8,9.9-10,14.4-15.3l0,0
		l0,0l0,0C82.9,10.1,83.8,8.9,84.8,7.7z M64.5,18.5c4-3.9,7.9-8.1,11.5-12.5c0.7-0.9,2-1,3-0.3c0.6,0.4,1,1.1,1,1.8
		c0.1,0.6-0.1,1.2-0.5,1.7l0,0l0,0c-4.4,5.3-9.1,10.3-14.1,15l-0.6-0.7c0.2-0.7,0.3-1.3,0.4-2C65.2,20.4,65,19.4,64.5,18.5z
		 M91.1,20.1c-1.3,1.6-2.7,3.2-4.1,4.7c-3.5,3.9-7.2,7.7-10.9,11.3l-3.2-3.6c5.3-5,10.3-10.3,15-15.9l0,0c0.4-0.5,1-0.8,1.6-0.8
		s1.2,0.2,1.7,0.7C92,17.4,92,19,91.1,20.1z"/>
	<path class="st0" d="M80.6,44.1c-1.9,0-3.8,0.7-5.3,1.9c-1.5-1.2-3.4-1.9-5.3-1.9c-4.5,0-8,3.5-8,8c0,5.3,4.7,9.4,10.6,14.6l0,0
		l0,0c0.7,0.7,1.7,1.1,2.7,1.1s2-0.4,2.7-1.1c5.9-5.2,10.5-9.3,10.5-14.6C88.6,47.6,85.1,44.1,80.6,44.1z M75.9,64.4
		c-0.1,0.1-0.1,0.1-0.2,0.2c-0.3,0.3-0.7,0.3-1,0c-0.1-0.1-0.1-0.1-0.2-0.2C68.4,59,65,55.8,65,52.1c0-2.8,2.1-4.9,4.9-4.9
		c1.5,0,3.1,0.7,4.1,1.9c0.3,0.4,0.7,0.6,1.2,0.6s0.9-0.2,1.2-0.6c1-1.2,2.6-1.9,4.1-1.9c2.8,0,4.9,2.1,4.9,4.9
		C85.4,55.8,82,59,75.9,64.4z"/>
</g>
</svg>
