<?xml version="1.0" encoding="utf-8"?>
<!-- Generator: Adobe Illustrator 28.1.0, SVG Export Plug-In . SVG Version: 6.00 Build 0)  -->
<svg version="1.1" id="圖層_1" xmlns="http://www.w3.org/2000/svg" xmlns:xlink="http://www.w3.org/1999/xlink" x="0px" y="0px"
	 viewBox="0 0 130 70" style="enable-background:new 0 0 130 70;" xml:space="preserve">
<style type="text/css">
	.st0{fill:url(#SVGID_1_);}
	.st1{fill:url(#SVGID_00000082353258956686318430000006557108454417739653_);}
	.st2{fill:url(#SVGID_00000072997840334273001730000013618990808965152150_);}
	.st3{fill:url(#SVGID_00000176740896216788603430000014695018840850912643_);}
	.st4{fill:url(#SVGID_00000017476668810215652740000009739897477437548931_);}
</style>
<g>
	<linearGradient id="SVGID_1_" gradientUnits="userSpaceOnUse" x1="28.6238" y1="22.1834" x2="75.8986" y2="59.1724">
		<stop  offset="0.2528" style="stop-color:#823E93"/>
		<stop  offset="1" style="stop-color:#5D318B"/>
	</linearGradient>
	<path class="st0" d="M73.5,16.6H27.1c-4.3,0-7.8,3.5-7.8,7.8v15.2c0,0.1,0,0.2,0,0.3s0,0.2,0,0.3v9.7c0,0.1,0,0.2,0,0.3
		s0,0.2,0,0.3v3.4c0,4.3,3.5,7.8,7.8,7.8h46.4c4.3,0,7.8-3.5,7.8-7.8V24.4C81.4,20.1,77.8,16.6,73.5,16.6z M22.3,41.4h56.1v7.3H22.3
		V41.4z M27.1,19.6h46.4c2.7,0,4.8,2.2,4.8,4.8v14.1H22.3V24.4C22.3,21.7,24.4,19.6,27.1,19.6z M73.5,58.8H27.1
		c-2.7,0-4.8-2.2-4.8-4.8v-2.2h56.1v2.2C78.4,56.6,76.2,58.8,73.5,58.8z"/>
	
		<linearGradient id="SVGID_00000173139204941308094920000002566083589392057739_" gradientUnits="userSpaceOnUse" x1="43.5761" y1="3.0732" x2="90.8509" y2="40.0622">
		<stop  offset="0.2528" style="stop-color:#823E93"/>
		<stop  offset="1" style="stop-color:#5D318B"/>
	</linearGradient>
	<path style="fill:url(#SVGID_00000173139204941308094920000002566083589392057739_);" d="M80.6,8.2H34.2c-3.8,0-7,2.7-7.7,6.4
		c-0.2,0.8,0.4,1.6,1.2,1.8c0.8,0.2,1.6-0.4,1.8-1.2c0.4-2.3,2.4-3.9,4.7-3.9h46.4c2.7,0,4.8,2.2,4.8,4.8v29.5
		c0,1.7-0.9,3.2-2.3,4.1c-0.7,0.4-0.9,1.4-0.5,2.1c0.3,0.5,0.8,0.7,1.3,0.7c0.3,0,0.5-0.1,0.8-0.2c2.3-1.4,3.8-4,3.8-6.7V16.1
		C88.5,11.8,85,8.2,80.6,8.2z"/>
	
		<linearGradient id="SVGID_00000116915601605162729080000005406981737810385566_" gradientUnits="userSpaceOnUse" x1="46.6495" y1="-0.8548" x2="93.9242" y2="36.1342">
		<stop  offset="0.2528" style="stop-color:#823E93"/>
		<stop  offset="1" style="stop-color:#5D318B"/>
	</linearGradient>
	<path style="fill:url(#SVGID_00000116915601605162729080000005406981737810385566_);" d="M103.4,25.9c-0.6-0.6-1.6-0.5-2.1,0.1
		s-0.5,1.6,0.1,2.1c4.1,3.6,6.4,9.1,6.4,14.9c0,5.6-2.2,10.9-6,14.6c-0.6,0.6-0.6,1.5,0,2.1c0.3,0.3,0.7,0.5,1.1,0.5
		c0.4,0,0.7-0.1,1-0.4c4.4-4.2,6.9-10.3,6.9-16.7C110.8,36.4,108.1,30.2,103.4,25.9z"/>
	
		<linearGradient id="SVGID_00000178899684166464024790000009132800534457190061_" gradientUnits="userSpaceOnUse" x1="45.1413" y1="1.0728" x2="92.416" y2="38.0619">
		<stop  offset="0.2528" style="stop-color:#823E93"/>
		<stop  offset="1" style="stop-color:#5D318B"/>
	</linearGradient>
	<path style="fill:url(#SVGID_00000178899684166464024790000009132800534457190061_);" d="M99.9,31.9c-0.6-0.6-1.6-0.5-2.1,0.1
		c-0.6,0.6-0.5,1.6,0.1,2.1c2.5,2.2,3.9,5.6,3.9,9.2c0,3.5-1.3,6.7-3.7,9c-0.6,0.6-0.6,1.5,0,2.1c0.3,0.3,0.7,0.5,1.1,0.5
		c0.4,0,0.7-0.1,1-0.4c2.9-2.8,4.6-6.9,4.6-11.1C104.8,38.9,103,34.7,99.9,31.9z"/>
	
		<linearGradient id="SVGID_00000139267400993193750060000005660657696614608313_" gradientUnits="userSpaceOnUse" x1="43.2096" y1="3.5417" x2="90.4843" y2="40.5307">
		<stop  offset="0.2528" style="stop-color:#823E93"/>
		<stop  offset="1" style="stop-color:#5D318B"/>
	</linearGradient>
	<path style="fill:url(#SVGID_00000139267400993193750060000005660657696614608313_);" d="M94.6,35.5c-0.6-0.6-1.6-0.5-2.1,0.1
		c-0.6,0.6-0.5,1.6,0.1,2.1c1.5,1.3,2.3,3.3,2.3,5.4c0,2.1-0.8,4-2.2,5.3c-0.6,0.6-0.6,1.5,0,2.1c0.3,0.3,0.7,0.5,1.1,0.5
		c0.4,0,0.7-0.1,1-0.4c2-1.9,3.1-4.6,3.1-7.5C97.9,40.2,96.7,37.4,94.6,35.5z"/>
</g>
</svg>
