<?xml version="1.0" encoding="utf-8"?>
<!-- Generator: Adobe Illustrator 28.1.0, SVG Export Plug-In . SVG Version: 6.00 Build 0)  -->
<svg version="1.1" id="圖層_1" xmlns="http://www.w3.org/2000/svg" xmlns:xlink="http://www.w3.org/1999/xlink" x="0px" y="0px"
	 viewBox="0 0 130 70" style="enable-background:new 0 0 130 70;" xml:space="preserve">
<style type="text/css">
	.st0{fill:#FFFFFF;}
</style>
<g>
	<path class="st0" d="M86.7,1.6H43.3c-4.1,0-7.6,2.6-8.9,6.6c-1.2,3.8,0.4,8,3.7,10.1c0.7,0.4,1.3,0.7,2,1c0.2,0.1,0.4,0.2,0.6,0.3
		c0.1,0,0.1,0,0.2,0.1h0.2V20v40.7c0,0.8,0.2,1.4,0.5,1.8c0.6,0.7,1.2,1.3,1.7,2c0.6,0.7,1.2,1.4,1.8,2.1l1.2,1.4
		c0.5,0.5,1.3,0.5,1.8,0l3.5-4.3l3.5,4.3c0.5,0.5,1.3,0.5,1.8,0l3.5-4.3l3.5,4.3c0.5,0.5,1.3,0.5,1.8,0l3.5-4.3l3.5,4.3
		c0.2,0.2,0.6,0.4,0.9,0.4s0.7-0.2,0.9-0.4l3.5-4.3l3.5,4.3c0.2,0.2,0.6,0.4,0.9,0.4s0.7-0.2,0.9-0.4l1.3-1.4
		c1.1-1.2,2.1-2.4,3.1-3.6c0.6-0.7,0.8-1.4,0.8-2.3V19.8l0.2-0.1c4.3-1.2,7.2-5.1,6.9-9.3C95.5,5.3,91.6,1.6,86.7,1.6z M85.5,60.3
		c0,0.3,0,0.5-0.3,0.8L85,61.2c-0.7,0.8-1.5,1.7-2.3,2.6L82.5,64L79,59.8c-0.3-0.6-1.2-0.6-1.7-0.1L73.8,64l-3.5-4.3
		c-0.2-0.2-0.6-0.4-0.9-0.4s-0.7,0.2-0.9,0.4L65,64l-3.5-4.3c-0.5-0.5-1.3-0.5-1.8,0L56.2,64l-3.5-4.2c-0.5-0.5-1.3-0.5-1.8,0
		l-3.6,4.3l-0.2-0.2c-0.5-0.5-0.9-1-1.4-1.6c-0.4-0.5-0.9-1-1.3-1.5l-0.1-0.1V14.5h41.1L85.5,60.3L85.5,60.3z M89.1,16.2l-0.3,0.1
		v-4c-0.1-0.6-0.6-1-1.2-1h-45c-0.7,0-1.1,0.5-1.1,1.1v3.9h-0.2c-0.2,0-0.3-0.1-0.3-0.1c-2.5-1.2-3.9-3.9-3.3-6.6
		c0.6-2.9,3-4.9,5.8-4.9h43.6c2.9,0,5.4,2.2,5.8,5C93.2,12.6,91.7,15.2,89.1,16.2z"/>
	<path class="st0" d="M47.2,16.9h35.6c0.3,0,0.6-0.3,0.6-0.6v-0.7c0-0.3-0.3-0.6-0.6-0.6H47.2c-0.3,0-0.6,0.3-0.6,0.6v0.7
		C46.7,16.6,46.9,16.9,47.2,16.9z"/>
	<path class="st0" d="M47.7,24.2c0.1,0,0.1,0,0.2,0H48c11.3,0,22.6,0,33.9,0c0.2,0,0.4,0,0.5,0h0.3c0.2,0,0.5-0.2,0.5-0.4
		c0-0.2,0.2-0.8-0.1-1.2c-0.3-0.4-0.8-0.3-1.1-0.3c-0.1,0-0.1,0-0.2,0l0,0c-11.3,0-22.5,0-33.8,0c-0.2,0-0.4,0-0.6,0h-0.2
		c-0.2,0-0.4,0.2-0.5,0.4c-0.1,0.2-0.2,0.7,0.1,1.2C47.1,24.2,47.4,24.2,47.7,24.2z"/>
	<path class="st0" d="M47.3,31.5h35.5c0.3,0,0.6-0.3,0.6-0.6v-0.8c0-0.3-0.3-0.6-0.6-0.6H47.2c-0.2,0-0.3,0.1-0.4,0.2
		c-0.1,0.1-0.2,0.3-0.1,0.4l0.1,0.8C46.7,31.3,47,31.5,47.3,31.5z"/>
	<path class="st0" d="M83,37L83,37c-0.1-0.1-0.2-0.1-0.4-0.1h-8.2c-8.9,0-17.8,0-26.6,0c-0.2,0-0.7,0-1,0.4
		c-0.3,0.3-0.2,0.8-0.1,1.1c0.1,0.2,0.3,0.4,0.5,0.4h35.6c0.2,0,0.3-0.1,0.4-0.2c0.1-0.1,0.2-0.3,0.1-0.4l-0.1-0.7
		C83.3,37.3,83.2,37.1,83,37z"/>
	<path class="st0" d="M47.3,46.2h35.5c0.3,0,0.5-0.2,0.6-0.5v-0.8c0-0.2,0-0.3-0.2-0.4c-0.1-0.1-0.3-0.2-0.4-0.2H47.2
		c-0.2,0-0.3,0.1-0.4,0.2c-0.1,0.1-0.2,0.3-0.1,0.4l0.1,0.8C46.7,46,47,46.2,47.3,46.2z"/>
	<path class="st0" d="M83.2,53.3c0.1-0.1,0.2-0.3,0.2-0.4v-0.7c0-0.3-0.3-0.5-0.6-0.5H47.2c-0.2,0-0.3,0.1-0.4,0.2
		c-0.1,0.1-0.2,0.3-0.2,0.4V53c0,0.3,0.3,0.5,0.6,0.5h35.6C83,53.5,83.1,53.4,83.2,53.3z"/>
</g>
</svg>
