<?xml version="1.0" encoding="utf-8"?>
<!-- Generator: Adobe Illustrator 28.1.0, SVG Export Plug-In . SVG Version: 6.00 Build 0)  -->
<svg version="1.1" id="圖層_1" xmlns="http://www.w3.org/2000/svg" xmlns:xlink="http://www.w3.org/1999/xlink" x="0px" y="0px"
	 viewBox="0 0 130 70" style="enable-background:new 0 0 130 70;" xml:space="preserve">
<style type="text/css">
	.st0{fill:url(#SVGID_1_);}
	.st1{fill:url(#SVGID_00000141430018697997442270000000292752777665999790_);}
	.st2{fill:url(#SVGID_00000069384603153361016790000006624674610937801894_);}
	.st3{fill:url(#SVGID_00000099627039725936062160000015079558688409290124_);}
	.st4{fill:url(#SVGID_00000083059124796346030080000013093059629414976683_);}
	.st5{fill:url(#SVGID_00000062911633683579716550000000871467294754671541_);}
	.st6{fill:url(#SVGID_00000147898350030333387690000017877128003492976569_);}
	.st7{fill:url(#SVGID_00000156548561452115177870000003377546626359754114_);}
	.st8{fill:url(#SVGID_00000155131989941026242420000011823389316072436124_);}
	.st9{fill:url(#SVGID_00000159430731572811763350000000499340686960230536_);}
	.st10{fill:url(#SVGID_00000089573837926989901300000004023725823271549584_);}
	.st11{fill:url(#SVGID_00000088117325876152146070000000180294225452370586_);}
	.st12{fill:url(#SVGID_00000078748341820465062290000008355198537189490103_);}
	.st13{fill:url(#SVGID_00000068654495567741881550000006324555281000147134_);}
	.st14{fill:url(#SVGID_00000121975713108738088360000005791416740730346156_);}
	.st15{fill:url(#SVGID_00000051368268419689153220000010253295185538173106_);}
	.st16{fill:url(#SVGID_00000060739965007213287250000007524820937419092413_);}
	.st17{fill:url(#SVGID_00000081606306955780493350000013664818287868102299_);}
	.st18{fill:url(#SVGID_00000163032786515799159570000010480393402107207813_);}
</style>
<g>
	<linearGradient id="SVGID_1_" gradientUnits="userSpaceOnUse" x1="36.5145" y1="26.4708" x2="90.8442" y2="73.4159">
		<stop  offset="0.2528" style="stop-color:#823E93"/>
		<stop  offset="1" style="stop-color:#5D318B"/>
	</linearGradient>
	<path class="st0" d="M47.1,33.1c-1.4,0-2.5,1.1-2.5,2.5c0,1.4,1.1,2.5,2.5,2.5c1.4,0,2.5-1.1,2.5-2.5
		C49.6,34.2,48.4,33.1,47.1,33.1z M47.1,36.4c-0.4,0-0.8-0.3-0.8-0.8s0.3-0.8,0.8-0.8c0.4,0,0.8,0.3,0.8,0.8
		C47.9,36,47.6,36.4,47.1,36.4z"/>
	
		<linearGradient id="SVGID_00000072989904725685065330000005912346080803149721_" gradientUnits="userSpaceOnUse" x1="33.1034" y1="30.4185" x2="87.4331" y2="77.3636">
		<stop  offset="0.2528" style="stop-color:#823E93"/>
		<stop  offset="1" style="stop-color:#5D318B"/>
	</linearGradient>
	<path style="fill:url(#SVGID_00000072989904725685065330000005912346080803149721_);" d="M39.1,33.1c-1.4,0-2.5,1.1-2.5,2.5
		c0,1.4,1.1,2.5,2.5,2.5c1.4,0,2.5-1.1,2.5-2.5C41.6,34.2,40.5,33.1,39.1,33.1z M39.1,36.4c-0.4,0-0.8-0.3-0.8-0.8
		c0.1-0.5,0.4-0.8,0.8-0.8c0.4,0,0.8,0.3,0.8,0.8C39.9,36,39.5,36.4,39.1,36.4z"/>
	
		<linearGradient id="SVGID_00000150790226445135959280000004290261472860896959_" gradientUnits="userSpaceOnUse" x1="30.0857" y1="33.9109" x2="84.4154" y2="80.856">
		<stop  offset="0.2528" style="stop-color:#823E93"/>
		<stop  offset="1" style="stop-color:#5D318B"/>
	</linearGradient>
	<path style="fill:url(#SVGID_00000150790226445135959280000004290261472860896959_);" d="M39.1,39.2c-1.4,0-2.5,1.1-2.5,2.5
		c0,1.4,1.1,2.5,2.5,2.5c1.4,0,2.5-1.1,2.5-2.5C41.6,40.3,40.5,39.2,39.1,39.2z M39.1,42.5c-0.4,0-0.8-0.3-0.8-0.8s0.4-0.8,0.8-0.8
		c0.4,0,0.8,0.3,0.8,0.8S39.5,42.5,39.1,42.5z"/>
	
		<linearGradient id="SVGID_00000003067533350688542250000000775153814053216651_" gradientUnits="userSpaceOnUse" x1="27.2164" y1="37.2316" x2="81.546" y2="84.1767">
		<stop  offset="0.2528" style="stop-color:#823E93"/>
		<stop  offset="1" style="stop-color:#5D318B"/>
	</linearGradient>
	<path style="fill:url(#SVGID_00000003067533350688542250000000775153814053216651_);" d="M39.1,45c-1.4,0-2.5,1.1-2.5,2.5
		s1.1,2.5,2.5,2.5c1.4,0,2.5-1.1,2.5-2.5S40.5,45,39.1,45z M39.1,48.2c-0.4,0-0.8-0.3-0.8-0.8s0.4-0.8,0.8-0.8
		c0.4,0,0.8,0.3,0.8,0.8S39.5,48.2,39.1,48.2z"/>
	
		<linearGradient id="SVGID_00000150783658532514632290000015033320602847178389_" gradientUnits="userSpaceOnUse" x1="33.4896" y1="29.9716" x2="87.8192" y2="76.9167">
		<stop  offset="0.2528" style="stop-color:#823E93"/>
		<stop  offset="1" style="stop-color:#5D318B"/>
	</linearGradient>
	<path style="fill:url(#SVGID_00000150783658532514632290000015033320602847178389_);" d="M47.1,39.2c-1.4,0-2.5,1.1-2.5,2.5
		c0,1.4,1.1,2.5,2.5,2.5c1.4,0,2.5-1.1,2.5-2.5C49.5,40.3,48.4,39.2,47.1,39.2z M47.1,42.5c-0.4,0-0.8-0.3-0.8-0.8s0.3-0.8,0.8-0.8
		c0.4,0,0.8,0.3,0.8,0.8S47.6,42.5,47.1,42.5z"/>
	
		<linearGradient id="SVGID_00000177480660265559138080000002671041973592550789_" gradientUnits="userSpaceOnUse" x1="30.6275" y1="33.2839" x2="84.9571" y2="80.229">
		<stop  offset="0.2528" style="stop-color:#823E93"/>
		<stop  offset="1" style="stop-color:#5D318B"/>
	</linearGradient>
	<path style="fill:url(#SVGID_00000177480660265559138080000002671041973592550789_);" d="M47.1,45c-1.4,0-2.5,1.1-2.5,2.5
		s1.1,2.5,2.5,2.5c1.4,0,2.5-1.1,2.5-2.5S48.4,45,47.1,45z M47.1,48.2c-0.4,0-0.8-0.3-0.8-0.8s0.3-0.8,0.8-0.8
		c0.4,0,0.8,0.3,0.8,0.8S47.6,48.2,47.1,48.2z"/>
	
		<linearGradient id="SVGID_00000017509226609953718070000011037435443147797683_" gradientUnits="userSpaceOnUse" x1="36.6469" y1="26.3177" x2="90.9765" y2="73.2627">
		<stop  offset="0.2528" style="stop-color:#823E93"/>
		<stop  offset="1" style="stop-color:#5D318B"/>
	</linearGradient>
	<path style="fill:url(#SVGID_00000017509226609953718070000011037435443147797683_);" d="M56.6,52.3c2.8,0,5.1-2.4,5.1-5.3V23.7
		c0-2.9-2.4-5.3-5.3-5.3H37.8c-2.9,0-5.3,2.4-5.3,5.3V47c0,2.9,2.4,5.3,5.3,5.3h18.6C56.5,52.3,56.5,52.3,56.6,52.3z M56.4,50.1
		H37.8c-1.7,0-3.1-1.4-3.1-3.1V23.7c0-1.7,1.4-3.1,3.1-3.1h18.6c1.7,0,3.1,1.4,3.1,3.1V47C59.5,48.7,58.1,50.1,56.4,50.1z"/>
	
		<linearGradient id="SVGID_00000037682465995648596380000000377542764281346457_" gradientUnits="userSpaceOnUse" x1="40.8766" y1="21.4225" x2="95.2063" y2="68.3676">
		<stop  offset="0.2528" style="stop-color:#823E93"/>
		<stop  offset="1" style="stop-color:#5D318B"/>
	</linearGradient>
	<path style="fill:url(#SVGID_00000037682465995648596380000000377542764281346457_);" d="M36.4,31.7h21.4v-9.8H36.4V31.7z
		 M38.1,23.5h18V30h-18V23.5z"/>
	
		<linearGradient id="SVGID_00000150102096967436482080000013662332762259970232_" gradientUnits="userSpaceOnUse" x1="36.8825" y1="26.045" x2="91.2121" y2="72.9901">
		<stop  offset="0.2528" style="stop-color:#823E93"/>
		<stop  offset="1" style="stop-color:#5D318B"/>
	</linearGradient>
	<path style="fill:url(#SVGID_00000150102096967436482080000013662332762259970232_);" d="M55,39.2c-1.4,0-2.5,1.1-2.5,2.5
		c0,1.4,1.1,2.5,2.5,2.5s2.5-1.1,2.5-2.5C57.5,40.3,56.4,39.2,55,39.2z M55,42.5c-0.4,0-0.8-0.3-0.8-0.8s0.4-0.8,0.8-0.8
		s0.8,0.3,0.8,0.8S55.4,42.5,55,42.5z"/>
	
		<linearGradient id="SVGID_00000025416178887528454890000007954694611396812467_" gradientUnits="userSpaceOnUse" x1="39.9249" y1="22.524" x2="94.2546" y2="69.469">
		<stop  offset="0.2528" style="stop-color:#823E93"/>
		<stop  offset="1" style="stop-color:#5D318B"/>
	</linearGradient>
	<path style="fill:url(#SVGID_00000025416178887528454890000007954694611396812467_);" d="M55,33.1c-1.4,0-2.5,1.1-2.5,2.5
		c0,1.4,1.1,2.4,2.5,2.4s2.5-1.1,2.5-2.5S56.4,33.1,55,33.1z M55,36.4c-0.4,0-0.8-0.3-0.8-0.8s0.4-0.8,0.8-0.8s0.8,0.3,0.8,0.8
		C55.8,36,55.4,36.4,55,36.4z"/>
	
		<linearGradient id="SVGID_00000122691668581692898680000006852721651508762004_" gradientUnits="userSpaceOnUse" x1="34.0131" y1="29.3657" x2="88.3428" y2="76.3108">
		<stop  offset="0.2528" style="stop-color:#823E93"/>
		<stop  offset="1" style="stop-color:#5D318B"/>
	</linearGradient>
	<path style="fill:url(#SVGID_00000122691668581692898680000006852721651508762004_);" d="M55,45c-1.4,0-2.5,1.1-2.5,2.5
		S53.6,50,55,50s2.5-1.1,2.5-2.5S56.4,45,55,45z M55,48.2c-0.4,0-0.8-0.3-0.8-0.8s0.4-0.8,0.8-0.8s0.8,0.3,0.8,0.8
		S55.4,48.2,55,48.2z"/>
	
		<linearGradient id="SVGID_00000179616385932791840520000006190156638840765103_" gradientUnits="userSpaceOnUse" x1="46.0555" y1="15.4291" x2="100.3851" y2="62.3741">
		<stop  offset="0.2528" style="stop-color:#823E93"/>
		<stop  offset="1" style="stop-color:#5D318B"/>
	</linearGradient>
	<path style="fill:url(#SVGID_00000179616385932791840520000006190156638840765103_);" d="M84.5,2.5H55c-3.1,0-5.6,2.5-5.6,5.6v8.1
		h3.4V8.1c0-1.2,1-2.2,2.2-2.2h27.9V12c0,2.6,2.1,4.7,4.7,4.7h6.2v45.2c0,1.2-1,2.2-2.2,2.2H55c-1.2,0-2.2-1-2.2-2.2v-5.4h-3.4v5.4
		c0,3.1,2.5,5.6,5.6,5.6h36.6c3.1,0,5.6-2.5,5.6-5.6V15.2L84.5,2.5z M87.6,15.1c-1.7,0-3.1-1.4-3.1-3.1V7.4h0.1l7.7,7.7H87.6z"/>
	
		<linearGradient id="SVGID_00000075851056880111038110000005477855504016533165_" gradientUnits="userSpaceOnUse" x1="58.7827" y1="0.6999" x2="113.1123" y2="47.6449">
		<stop  offset="0.2528" style="stop-color:#823E93"/>
		<stop  offset="1" style="stop-color:#5D318B"/>
	</linearGradient>
	<path style="fill:url(#SVGID_00000075851056880111038110000005477855504016533165_);" d="M56.6,10.2h24c0.6,0,1-0.4,1-1
		c0-0.6-0.4-1-1-1h-24c-0.6,0-1,0.4-1,1C55.6,9.8,56.1,10.2,56.6,10.2z"/>
	
		<linearGradient id="SVGID_00000086668136054697637650000003167370573179967161_" gradientUnits="userSpaceOnUse" x1="56.466" y1="3.3809" x2="110.7957" y2="50.326">
		<stop  offset="0.2528" style="stop-color:#823E93"/>
		<stop  offset="1" style="stop-color:#5D318B"/>
	</linearGradient>
	<path style="fill:url(#SVGID_00000086668136054697637650000003167370573179967161_);" d="M56.6,14.9h24c0.6,0,1-0.4,1-1
		c0-0.6-0.4-1-1-1h-24c-0.6,0-1,0.4-1,1C55.6,14.4,56.1,14.9,56.6,14.9z"/>
	
		<linearGradient id="SVGID_00000104690372669197018620000016149270361222846903_" gradientUnits="userSpaceOnUse" x1="55.4102" y1="4.6028" x2="109.7399" y2="51.5478">
		<stop  offset="0.2528" style="stop-color:#823E93"/>
		<stop  offset="1" style="stop-color:#5D318B"/>
	</linearGradient>
	<path style="fill:url(#SVGID_00000104690372669197018620000016149270361222846903_);" d="M89.3,22.5h-24c-0.6,0-1,0.4-1,1
		s0.4,1,1,1h24c0.6,0,1-0.4,1-1S89.8,22.5,89.3,22.5z"/>
	
		<linearGradient id="SVGID_00000178164762535155976010000003441469927763830943_" gradientUnits="userSpaceOnUse" x1="53.0851" y1="7.2937" x2="107.4148" y2="54.2387">
		<stop  offset="0.2528" style="stop-color:#823E93"/>
		<stop  offset="1" style="stop-color:#5D318B"/>
	</linearGradient>
	<path style="fill:url(#SVGID_00000178164762535155976010000003441469927763830943_);" d="M89.3,27.2h-24c-0.6,0-1,0.4-1,1
		c0,0.6,0.4,1,1,1h24c0.6,0,1-0.4,1-1C90.3,27.6,89.8,27.2,89.3,27.2z"/>
	
		<linearGradient id="SVGID_00000029752769497604070580000017113270706857760898_" gradientUnits="userSpaceOnUse" x1="40.47" y1="21.8932" x2="94.7996" y2="68.8383">
		<stop  offset="0.2528" style="stop-color:#823E93"/>
		<stop  offset="1" style="stop-color:#5D318B"/>
	</linearGradient>
	<path style="fill:url(#SVGID_00000029752769497604070580000017113270706857760898_);" d="M89.3,52.7h-24c-0.6,0-1,0.4-1,1
		c0,0.6,0.4,1,1,1h24c0.6,0,1-0.4,1-1C90.3,53.1,89.8,52.7,89.3,52.7z"/>
	
		<linearGradient id="SVGID_00000183238569048410726820000010368834410606810026_" gradientUnits="userSpaceOnUse" x1="38.1858" y1="24.5367" x2="92.5155" y2="71.4817">
		<stop  offset="0.2528" style="stop-color:#823E93"/>
		<stop  offset="1" style="stop-color:#5D318B"/>
	</linearGradient>
	<path style="fill:url(#SVGID_00000183238569048410726820000010368834410606810026_);" d="M89.3,57.3h-24c-0.6,0-1,0.4-1,1
		c0,0.6,0.4,1,1,1h24c0.6,0,1-0.4,1-1C90.3,57.8,89.8,57.3,89.3,57.3z"/>
	
		<linearGradient id="SVGID_00000091017111842722023340000016303325709758623106_" gradientUnits="userSpaceOnUse" x1="46.6583" y1="14.7314" x2="100.988" y2="61.6765">
		<stop  offset="0.2528" style="stop-color:#823E93"/>
		<stop  offset="1" style="stop-color:#5D318B"/>
	</linearGradient>
	<path style="fill:url(#SVGID_00000091017111842722023340000016303325709758623106_);" d="M75.7,45.2c-0.3-0.3-0.5-0.9-0.6-1.7
		L75,43.1l-2.4,0.5V44c0.1,0.9,0.3,1.7,0.7,2.3c0.4,0.6,0.9,1.1,1.5,1.4c0.5,0.2,1,0.4,1.7,0.5v1.7h1.8v-1.6c1-0.1,1.9-0.6,2.6-1.3
		c0.8-0.8,1.2-1.8,1.2-3.1c0-0.6-0.1-1.1-0.3-1.6S81.3,41.4,81,41c-0.3-0.3-0.8-0.6-1.3-0.9c-0.2-0.1-0.7-0.2-1.3-0.4V36
		c0.2,0.1,0.4,0.2,0.5,0.4c0.2,0.3,0.4,0.7,0.5,1.2l0.1,0.4l2.5-0.4l-0.1-0.4c-0.2-1.1-0.6-2-1.4-2.6c-0.5-0.4-1.2-0.7-2.1-0.9v-0.8
		h-1.8v0.8c-1,0.1-1.7,0.5-2.3,0.9c-0.9,0.8-1.3,1.8-1.3,3.1c0,0.7,0.2,1.4,0.5,1.9c0.3,0.6,0.8,1,1.3,1.3c0.6,0.3,1.2,0.6,1.8,0.7
		v4.2C76.3,45.8,76,45.6,75.7,45.2z M78.4,42.2c0.6,0.2,0.8,0.5,1,0.6c0.2,0.3,0.3,0.7,0.3,1.1c0,0.6-0.2,1-0.5,1.4
		c-0.3,0.3-0.5,0.5-0.8,0.6V42.2z M75.8,38.7c-0.2-0.3-0.4-0.7-0.4-1.1c0-0.4,0.1-0.8,0.4-1.1s0.5-0.5,0.8-0.6v3.3
		C76.2,39,76,38.9,75.8,38.7z"/>
</g>
</svg>
