<?xml version="1.0" encoding="utf-8"?>
<!-- Generator: Adobe Illustrator 28.1.0, SVG Export Plug-In . SVG Version: 6.00 Build 0)  -->
<svg version="1.1" id="圖層_1" xmlns="http://www.w3.org/2000/svg" xmlns:xlink="http://www.w3.org/1999/xlink" x="0px" y="0px"
	 viewBox="0 0 150 150" style="enable-background:new 0 0 150 150;" xml:space="preserve">
<style type="text/css">
	.st0{fill:url(#SVGID_1_);}
	.st1{fill:url(#SVGID_00000180367565819911851930000017075504942632286643_);}
</style>
<g>
	<linearGradient id="SVGID_1_" gradientUnits="userSpaceOnUse" x1="34.2029" y1="43.1244" x2="105.6755" y2="106.6848">
		<stop  offset="5.347593e-03" style="stop-color:#9733B1"/>
		<stop  offset="1" style="stop-color:#623293"/>
	</linearGradient>
	<path class="st0" d="M131.1,89.1c-2.1-2.5-4.1-4.6-6.8-6.4c-2.3-1.5-4.9-2.8-6.6-4.9c-2.1-2.6-3-5.9-4.8-8.6
		c-4.2-6.5-8.3-13.1-12.2-19.2c1-1.4,2.5-2.5,2.6-3.7c0.3-4.6,0.2-9.2,0.1-13.9c0-1.8-1-2.9-3.1-2.8c-4.1,0.3-7.8,1.5-10.2,5.2
		c-1.1,1.6-2.2,2.2-4.2,2.1c-3.4-0.2-6.8-0.2-10.2,0.1c-0.3,0-0.7,0.2-1,0.4c-1.2,0.9-1.3,2.7-0.1,3.7c0.4,0.3,0.8,0.6,1.2,0.6
		c2.8,0.4,5.6,0.4,8.4,0.1c2.8-0.3,3.9,1.1,4.3,3.4c1.2,6.7,2.6,13.4,3.5,20.1c0.7,5.4,0.6,10.8-1.4,16c-1,2.5-2.5,4-5.3,4
		c-4.4-0.1-8.8,0-13.3-0.1c-2.6-0.1-4.3-1.3-5.2-3.7c-1.5-4.1-1.9-8,0.2-12.1c2.8-5.6,0.1-13.1-7.8-12.6c-8.7,0.5-17.4,0.5-26,0
		c-8-0.4-10.6,6.9-8.4,12.2c0.3,0.7,0.4,1.9,0,2.4c-3.3,4.5-4.8,9.7-5.5,15c-0.6,4.8-0.8,9.8-0.5,14.6c0.1,2.7,2.1,4.5,5.2,4.1
		c2.4-0.3,3.4,0.5,4.2,2.9c3.8,11.9,17.8,16.2,27,8.1c3.1-2.7,4.9-6.9,7.7-11c5.4,0,11.8-0.1,18.2,0c3.8,0.1,7.4,0.1,10.1-3.1
		c0.2-0.3,0.8-0.3,1.3-0.4c0,11.8,7.6,17.5,13.9,18.4c10.5,1.5,16.9-3.5,19.6-11.3c1.1-3.3,0.8-7.7-0.2-11.1
		c-1.7-6.1-6.5-9.6-12.8-11.2c2.3-3.3,4-2.8,10.2,1.9c1.5,1.2,2.8,2.6,4,4c1.2,1.5,2.7,0.5,3.7-0.4
		C131.5,91.5,131.6,89.7,131.1,89.1z M98.3,34.9c0,3.1,0,5.8,0,8.6c-2.5-0.6-4.5-1.5-4.7-4C93.4,36.8,95.7,36,98.3,34.9z M32.3,61.8
		c4.5,0,9,0,13.5,0c4.5,0,9,0,13.5,0c2.2,0,3.6,0.8,3.7,3.2c0.1,2.5-1.5,3.1-3.5,3.1c-9.1,0-18.3,0-27.4,0c-2,0-3.5-0.7-3.4-3.2
		C28.9,62.6,30.2,61.8,32.3,61.8z M46.5,114.7c-7.4,0.7-13-3-13.9-9.5c7.7,0,15.4,0,23.1,0C56,109.5,51.4,114.2,46.5,114.7z
		 M87,98.8c-0.9,0.7-2.1,1.2-3.2,1.2C64.4,100,45,100,25.7,100c-0.7,0-1.4-0.2-2.2-0.3c-0.7-8.2,0.5-16,4-23.4
		c1-2.2,2.7-3.3,5.5-3.2c9,0.2,18,0.1,27.1,0.1c0.5,2.8,0.8,5.3,1.3,7.9c1.2,6.2,5.5,9.1,11.4,9.4c3.9,0.2,7.8,0,11.7,0
		c5.5,0,9.8-3.2,11.2-8.5c1.8-7,1.6-14.1,0.7-21.2c-0.4-2.8-0.8-5.5-1.2-8.3c0.2-0.2,0.4-0.3,0.6-0.5c3.6,5.3,7.3,10.6,10.7,16
		c1.9,2.9,3.4,6.1,5.1,9.1c0.9,1.7,0.9,3-0.9,4.3C102.7,87.2,94.9,93.1,87,98.8z M122,103.4c-0.2,7.6-5.8,12.2-12.1,12.2
		c-6.6,0-12.1-5.1-12.2-12.5c-0.1-6.4,5.9-12,12.4-12C116.6,91.2,122.1,96.8,122,103.4z"/>
	
		<linearGradient id="SVGID_00000130609312882326113630000000991150935681931196_" gradientUnits="userSpaceOnUse" x1="17.9474" y1="61.4035" x2="89.4199" y2="124.9639">
		<stop  offset="5.347593e-03" style="stop-color:#9733B1"/>
		<stop  offset="1" style="stop-color:#623293"/>
	</linearGradient>
	<path style="fill:url(#SVGID_00000130609312882326113630000000991150935681931196_);" d="M51.9,82.3c-5.8-0.5-11.7-0.2-17.6-0.2
		c0,1.7,0,3.2,0,4.8c4.4,0,8.6,0,12.8,0c5,0,5.8,0.6,7.2,5.3c4.9,0.4,5.4-0.2,3.5-4.7C56.9,84.6,54.6,82.5,51.9,82.3z"/>
</g>
</svg>
